{
.appVersion = "1312";
classes = (
{
code = "Euro bar cent colon comma degree divide dollar eight equal five four greater less minus multiply nine numbersign one paragraph percent period periodcentered plus plusminus quotedbl quotesingle section semicolon seven six slash sterling three two underscore yen zero";
name = tnum1;
},
{
code = "Euro.tnum bar.tnum cent.tnum colon.tnum comma.tnum degree.tnum divide.tnum dollar.tnum eight.tnum equal.tnum five.tnum four.tnum greater.tnum less.tnum minus.tnum multiply.tnum nine.tnum numbersign.tnum one.tnum paragraph.tnum percent.tnum period.tnum periodcentered.tnum plus.tnum plusminus.tnum quotedbl.tnum quotesingle.tnum section.tnum semicolon.tnum seven.tnum six.tnum slash.tnum sterling.tnum three.tnum two.tnum underscore.tnum yen.tnum zero.tnum";
name = tnum2;
}
);
copyright = "Copyright 2020 The Libre Caslon Text Project Authors (https://github.com/thundernixon/Libre-Caslon)";
customParameters = (
{
name = macintoshFONDFamilyID;
value = 128;
},
{
name = macintoshFONDName;
value = "Libre Caslon Text";
},
{
name = openTypeHeadFlags;
value = (
);
},
{
name = description;
value = "Libre Caslon in Text is optimized for web body text";
},
{
name = openTypeNameSampleText;
value = "";
},
{
name = openTypeNameUniqueID;
value = "PabloImpallari,RodrigoFuenzalida: Libre Caslon Text: 2012";
},
{
name = openTypeOS2FamilyClass;
value = (
0,
0
);
},
{
name = openTypeOS2Panose;
value = (
2,
2,
6,
2,
6,
3,
0,
0,
0,
4
);
},
{
name = openTypeOS2Selection;
value = (
);
},
{
name = openTypeOS2StrikeoutPosition;
value = 250;
},
{
name = openTypeOS2StrikeoutSize;
value = 50;
},
{
name = openTypeOS2SubscriptXOffset;
value = 0;
},
{
name = openTypeOS2SubscriptXSize;
value = 700;
},
{
name = openTypeOS2SubscriptYOffset;
value = 140;
},
{
name = openTypeOS2SubscriptYSize;
value = 650;
},
{
name = openTypeOS2SuperscriptXOffset;
value = 0;
},
{
name = openTypeOS2SuperscriptXSize;
value = 700;
},
{
name = openTypeOS2SuperscriptYOffset;
value = 477;
},
{

glyphs = (
{
glyphname = A;
layers = (
{
anchors = (
{
name = bottom;
position = "{1213, 0}";
},
{
name = ogonekcap;
position = "{1594, 0}";
},
{
name = topcap;
position = "{722, 1643}";
}
);
layerId = "FA6D65B5-4623-4FAC-A199-3F662257AC29";
paths = (
{
closed = 1;
nodes = (
"573 0 LINE",
"573 73 LINE",
"358 105 OFFCURVE",
"321 144 OFFCURVE",
"372 289 CURVE SMOOTH",
"653 1021 LINE",
"661 1021 LINE",
"953 226 LINE SMOOTH",
"1005 94 OFFCURVE",
"950 78 OFFCURVE",
"778 73 CURVE",
"778 0 LINE",
"1594 0 LINE",
"1594 73 LINE",
"1449 83 OFFCURVE",
"1416 104 OFFCURVE",
"1379 193 CURVE SMOOTH",
"813 1563 LINE",
"518 1451 LINE",
"609 1247 LINE",
"235 292 LINE SMOOTH",
"172 132 OFFCURVE",
"146 105 OFFCURVE",
"-39 73 CURVE",
"-39 0 LINE"
);
},
{
closed = 1;
nodes = (
"1002 440 LINE",
"1002 552 LINE",
"364 552 LINE",
"364 440 LINE"
);
}
);
width = 1546;
},
{
anchors = (
{
name = bottom;
position = "{1183, 0}";
},
{
name = topcap;
position = "{722, 1643}";
}
);
associatedMasterId = "FA6D65B5-4623-4FAC-A199-3F662257AC29";
layerId = "CBD44848-52BD-4DC5-BFA6-577546B7224D";
paths = (
{
closed = 1;
nodes = (
"508 0 LINE",
"508 45 LINE",
"375 66 OFFCURVE",
"305 97 OFFCURVE",
"305 168 CURVE SMOOTH",
"305 192 OFFCURVE",
"312 221 OFFCURVE",
"326 261 CURVE SMOOTH",
"667 1216 LINE",
"675 1216 LINE",
"1043 198 LINE SMOOTH",
"1061 151 OFFCURVE",
"1065 128 OFFCURVE",
"1065 112 CURVE SMOOTH",
"1065 70 OFFCURVE",
"1043 54 OFFCURVE",
"861 45 CURVE",
"861 0 LINE",
"1490 0 LINE",
"1490 45 LINE",
"1352 55 OFFCURVE",
"1322 75 OFFCURVE",
"1289 167 CURVE SMOOTH",
"766 1563 LINE",
"572 1457 LINE",
"623 1340 LINE",
"240 265 LINE SMOOTH",
"190 127 OFFCURVE",
"162 77 OFFCURVE",
"-47 45 CURVE",
"-47 0 LINE"
);
},
{
closed = 1;
nodes = (
"942 560 LINE",
"942 639 LINE",
"408 639 LINE",
"408 560 LINE"
);
}
);
width = 1472;
},
{
anchors = (
{
name = bottom;
position = "{1187, 0}";
},
{
name = ogonekcap;
position = "{1504, 0}";
},
{
name = topcap;
position = "{722, 1643}";
}
);
layerId = "7C8D72FA-6E62-4564-8BB2-D9F9BC4EB15A";
paths = (
{
closed = 1;
nodes = (
"517 0 LINE",
"517 48 LINE",
"328 77 OFFCURVE",
"283 124 OFFCURVE",
"327 246 CURVE SMOOTH",
"666 1189 LINE",
"672 1189 LINE",
"1032 202 LINE SMOOTH",
"1082 61 OFFCURVE",
"1044 59 OFFCURVE",
"850 48 CURVE",
"850 0 LINE",
"1504 0 LINE",
"1504 48 LINE",
"1365 59 OFFCURVE",
"1335 79 OFFCURVE",
"1301 170 CURVE SMOOTH",
"773 1563 LINE",
"565 1455 LINE",
"621 1328 LINE",
"238 269 LINE SMOOTH",
"188 128 OFFCURVE",
"160 82 OFFCURVE",
"-46 48 CURVE",
"-46 0 LINE"
);
},
{
closed = 1;
nodes = (
"950 544 LINE",
"950 628 LINE",
"402 628 LINE",
"402 544 LINE"
);
}
);
width = 1482;
},
{
anchors = (
{
name = bottom;
position = "{1213, 0}";
},
{
name = topcap;
position = "{722, 1643}";
}
);
associatedMasterId = "FA6D65B5-4623-4FAC-A199-3F662257AC29";
layerId = "88D3A241-B746-4321-BD8E-66107D9B414D";
name = "Jan 7 19, 14:34";
paths = (
{
closed = 1;
nodes = (
"573 0 LINE",
"573 73 LINE",
"409 97 OFFCURVE",
"351 128 OFFCURVE",
"351 196 CURVE SMOOTH",
"351 221 OFFCURVE",
"359 252 OFFCURVE",
"372 289 CURVE SMOOTH",
"653 1021 LINE",
"661 1021 LINE",
"953 226 LINE SMOOTH",
"1005 94 OFFCURVE",
"950 78 OFFCURVE",
"778 73 CURVE",
"778 0 LINE",
"1594 0 LINE",
"1594 73 LINE",
"1449 83 OFFCURVE",
"1416 104 OFFCURVE",
"1379 193 CURVE SMOOTH",
"813 1563 LINE",
"518 1451 LINE",
"609 1247 LINE",
"235 292 LINE SMOOTH",
"172 132 OFFCURVE",
"146 105 OFFCURVE",
"-39 73 CURVE",
"-39 0 LINE"
);
},
{
closed = 1;
nodes = (
"1002 440 LINE",
"1002 552 LINE",
"364 552 LINE",
"364 440 LINE"
);
}
);
width = 1546;
},
{
anchors = (
{
name = bottom;
position = "{1187, 0}";
},
{
name = topcap;
position = "{722, 1643}";
}
);
associatedMasterId = "7C8D72FA-6E62-4564-8BB2-D9F9BC4EB15A";
layerId = "E08BA8F9-D3C9-4B29-8F3A-516038531B7D";
name = "Jan 7 19, 14:34";
paths = (
{
closed = 1;
nodes = (
"517 0 LINE",
"517 48 LINE",
"380 69 OFFCURVE",
"311 101 OFFCURVE",
"311 173 CURVE SMOOTH",
"311 196 OFFCURVE",
"319 226 OFFCURVE",
"333 265 CURVE SMOOTH",
"666 1189 LINE",
"672 1189 LINE",
"1032 202 LINE SMOOTH",
"1082 61 OFFCURVE",
"1044 59 OFFCURVE",
"850 48 CURVE",
"850 0 LINE",
"1504 0 LINE",
"1504 48 LINE",
"1365 59 OFFCURVE",
"1335 79 OFFCURVE",
"1301 170 CURVE SMOOTH",
"773 1563 LINE",
"565 1455 LINE",
"621 1328 LINE",
"238 269 LINE SMOOTH",
"188 128 OFFCURVE",
"160 82 OFFCURVE",
"-46 48 CURVE",
"-46 0 LINE"
);
},
{
closed = 1;
nodes = (
"950 544 LINE",
"950 628 LINE",
"402 628 LINE",
"402 544 LINE"
);
}
);
visible = 1;
width = 1482;
}
);
leftKerningGroup = A;
rightKerningGroup = A;
unicode = 0041;
},
{
glyphname = Aringacute;
layers = (
{
components = (
{
name = A;
}
);
layerId = "FA6D65B5-4623-4FAC-A199-3F662257AC29";
paths = (
{
closed = 1;
nodes = (
"586 1666 LINE",
"607 1651 OFFCURVE",
"638 1643 OFFCURVE",
"669 1643 CURVE SMOOTH",
"737 1643 OFFCURVE",
"788 1685 OFFCURVE",
"804 1746 CURVE",
"892 1771 OFFCURVE",
"911 1809 OFFCURVE",
"911 1848 CURVE SMOOTH",
"911 1895 OFFCURVE",
"862 1917 OFFCURVE",
"823 1917 CURVE SMOOTH",
"796 1917 OFFCURVE",
"774 1909 OFFCURVE",
"750 1895 CURVE",
"727 1911 OFFCURVE",
"698 1920 OFFCURVE",
"669 1920 CURVE SMOOTH",
"590 1920 OFFCURVE",
"531 1860 OFFCURVE",
"531 1781 CURVE SMOOTH",
"531 1765 OFFCURVE",
"532 1751 OFFCURVE",
"537 1738 CURVE",
"451 1674 LINE",
"473 1633 LINE"
);
},
{
closed = 1;
nodes = (
"646 1742 OFFCURVE",
"630 1757 OFFCURVE",
"630 1781 CURVE SMOOTH",
"630 1804 OFFCURVE",
"646 1821 OFFCURVE",
"669 1821 CURVE SMOOTH",
"693 1821 OFFCURVE",
"708 1804 OFFCURVE",
"708 1781 CURVE SMOOTH",
"708 1757 OFFCURVE",
"693 1742 OFFCURVE",
"669 1742 CURVE SMOOTH"
);
}
);
width = 1546;
},
{
associatedMasterId = "FA6D65B5-4623-4FAC-A199-3F662257AC29";
components = (
{
name = A;
}
);
layerId = "CBD44848-52BD-4DC5-BFA6-577546B7224D";
paths = (
{
closed = 1;
nodes = (
"599 1666 LINE",
"620 1651 OFFCURVE",
"648 1643 OFFCURVE",
"681 1643 CURVE SMOOTH",
"747 1643 OFFCURVE",
"799 1685 OFFCURVE",
"815 1746 CURVE",
"904 1771 OFFCURVE",
"922 1809 OFFCURVE",
"922 1848 CURVE SMOOTH",
"922 1895 OFFCURVE",
"875 1917 OFFCURVE",
"836 1917 CURVE SMOOTH",
"807 1917 OFFCURVE",
"786 1909 OFFCURVE",
"762 1895 CURVE",
"738 1911 OFFCURVE",
"710 1920 OFFCURVE",
"681 1920 CURVE SMOOTH",
"601 1920 OFFCURVE",
"542 1860 OFFCURVE",
"542 1781 CURVE SMOOTH",
"542 1765 OFFCURVE",
"545 1751 OFFCURVE",
"549 1738 CURVE",
"463 1674 LINE",
"485 1633 LINE"
);
},
{
closed = 1;
nodes = (
"639 1711 OFFCURVE",
"611 1740 OFFCURVE",
"611 1781 CURVE SMOOTH",
"611 1823 OFFCURVE",
"639 1850 OFFCURVE",
"681 1850 CURVE SMOOTH",
"722 1850 OFFCURVE",
"750 1823 OFFCURVE",
"750 1781 CURVE SMOOTH",
"750 1740 OFFCURVE",
"722 1711 OFFCURVE",
"681 1711 CURVE SMOOTH"
);
}
);
width = 1472;
},
{
components = (
{
alignment = -1;
name = A;
}
);
layerId = "7C8D72FA-6E62-4564-8BB2-D9F9BC4EB15A";
paths = (
{
closed = 1;
nodes = (
"596 1666 LINE",
"618 1651 OFFCURVE",
"647 1643 OFFCURVE",
"679 1643 CURVE SMOOTH",
"746 1643 OFFCURVE",
"798 1685 OFFCURVE",
"814 1746 CURVE",
"903 1771 OFFCURVE",
"920 1809 OFFCURVE",
"920 1848 CURVE SMOOTH",
"920 1895 OFFCURVE",
"873 1917 OFFCURVE",
"834 1917 CURVE SMOOTH",
"806 1917 OFFCURVE",
"784 1909 OFFCURVE",
"761 1895 CURVE",
"736 1911 OFFCURVE",
"709 1920 OFFCURVE",
"679 1920 CURVE SMOOTH",
"600 1920 OFFCURVE",
"540 1860 OFFCURVE",
"540 1781 CURVE SMOOTH",
"540 1765 OFFCURVE",
"542 1751 OFFCURVE",
"547 1738 CURVE",
"462 1674 LINE",
"484 1633 LINE"
);
},
{
closed = 1;
nodes = (
"639 1716 OFFCURVE",
"614 1742 OFFCURVE",
"614 1781 CURVE SMOOTH",
"614 1821 OFFCURVE",
"639 1847 OFFCURVE",
"679 1847 CURVE SMOOTH",
"719 1847 OFFCURVE",
"745 1821 OFFCURVE",
"745 1781 CURVE SMOOTH",
"745 1742 OFFCURVE",
"719 1716 OFFCURVE",
"679 1716 CURVE SMOOTH"
);
}
);
width = 1482;
}
);
leftKerningGroup = A;
rightKerningGroup = A;
unicode = 01FA;
},
{
glyphname = AE;
layers = (
{
layerId = "FA6D65B5-4623-4FAC-A199-3F662257AC29";
paths = (
{
closed = 1;
nodes = (
"539 0 LINE",
"539 73 LINE",
"432 89 OFFCURVE",
"386 120 OFFCURVE",
"386 174 CURVE SMOOTH",
"386 204 OFFCURVE",
"402 242 OFFCURVE",
"425 289 CURVE SMOOTH",
"570 570 LINE",
"968 570 LINE",
"968 112 LINE",
"799 73 LINE",
"799 0 LINE",
"2000 0 LINE",
"2084 463 LINE",
"1982 463 LINE",
"1936 334 OFFCURVE",
"1886 229 OFFCURVE",
"1801 113 CURVE",
"1308 113 LINE",
"1308 752 LINE",
"1558 752 LINE",
"1602 679 OFFCURVE",
"1628 607 OFFCURVE",
"1643 529 CURVE",
"1726 529 LINE",
"1726 1082 LINE",
"1643 1082 LINE",
"1628 1003 OFFCURVE",
"1602 933 OFFCURVE",
"1558 859 CURVE",
"1308 859 LINE",
"1308 1412 LINE",
"1812 1412 LINE",
"1880 1308 OFFCURVE",
"1935 1193 OFFCURVE",
"1966 1088 CURVE",
"2049 1088 LINE",
"2011 1523 LINE",
"760 1523 LINE",
"760 1470 LINE",
"883 1435 LINE",
"281 292 LINE SMOOTH",
"203 143 OFFCURVE",
"149 104 OFFCURVE",
"-54 73 CURVE",
"-54 0 LINE"
);
},
{
closed = 1;
nodes = (
"960 1320 LINE",
"968 1320 LINE",
"968 677 LINE",
"625 677 LINE"
);
}
);
width = 2164;
},
{
associatedMasterId = "FA6D65B5-4623-4FAC-A199-3F662257AC29";
layerId = "CBD44848-52BD-4DC5-BFA6-577546B7224D";
paths = (
{
closed = 1;
nodes = (
"510 0 LINE",
"510 45 LINE",
"388 66 OFFCURVE",
"334 86 OFFCURVE",
"334 143 CURVE SMOOTH",
"334 172 OFFCURVE",
"349 211 OFFCURVE",
"375 261 CURVE SMOOTH",
"540 578 LINE",
"933 578 LINE",
"933 83 LINE",
"763 45 LINE",
"763 0 LINE",
"1856 0 LINE",
"1930 463 LINE",
"1864 463 LINE",
"1821 334 OFFCURVE",
"1777 208 OFFCURVE",
"1698 78 CURVE",
"1140 78 LINE",
"1140 727 LINE",
"1495 727 LINE",
"1531 648 OFFCURVE",
"1556 568 OFFCURVE",
"1567 489 CURVE",
"1614 489 LINE",
"1614 1043 LINE",
"1567 1043 LINE",
"1555 964 OFFCURVE",
"1531 886 OFFCURVE",
"1495 805 CURVE",
"1140 805 LINE",
"1140 1445 LINE",
"1708 1445 LINE",
"1773 1331 OFFCURVE",
"1818 1201 OFFCURVE",
"1850 1088 CURVE",
"1898 1088 LINE",
"1864 1523 LINE",
"744 1523 LINE",
"744 1479 LINE",
"912 1445 LINE",
"291 265 LINE SMOOTH",
"216 122 OFFCURVE",
"169 77 OFFCURVE",
"-44 45 CURVE",
"-44 0 LINE"
);
},
{
closed = 1;
nodes = (
"922 1320 LINE",
"930 1320 LINE",
"930 656 LINE",
"582 656 LINE"
);
}
);
width = 2037;
},
{
layerId = "7C8D72FA-6E62-4564-8BB2-D9F9BC4EB15A";
paths = (
{
closed = 1;
nodes = (
"515 0 LINE",
"515 48 LINE",
"394 68 OFFCURVE",
"341 91 OFFCURVE",
"341 147 CURVE SMOOTH",
"341 176 OFFCURVE",
"356 214 OFFCURVE",
"382 265 CURVE SMOOTH",
"544 577 LINE",
"937 577 LINE",
"937 88 LINE",
"768 48 LINE",
"768 0 LINE",
"1876 0 LINE",
"1951 463 LINE",
"1880 463 LINE",
"1835 334 OFFCURVE",
"1792 211 OFFCURVE",
"1712 83 CURVE",
"1163 83 LINE",
"1163 730 LINE",
"1503 730 LINE",
"1541 652 OFFCURVE",
"1565 573 OFFCURVE",
"1578 494 CURVE",
"1629 494 LINE",
"1629 1049 LINE",
"1578 1049 LINE",
"1564 968 OFFCURVE",
"1541 891 OFFCURVE",
"1503 812 CURVE",
"1163 812 LINE",
"1163 1441 LINE",
"1723 1441 LINE",
"1787 1329 OFFCURVE",
"1834 1200 OFFCURVE",
"1867 1088 CURVE",
"1918 1088 LINE",
"1884 1523 LINE",
"746 1523 LINE",
"746 1477 LINE",
"909 1444 LINE",
"290 269 LINE SMOOTH",
"214 126 OFFCURVE",
"167 81 OFFCURVE",
"-45 48 CURVE",
"-45 0 LINE"
);
},
{
closed = 1;
nodes = (
"927 1320 LINE",
"935 1320 LINE",
"935 660 LINE",
"587 660 LINE"
);
}
);
width = 2053;
}
);
leftKerningGroup = AE;
rightKerningGroup = E;
unicode = 00C6;
},
{
glyphname = B;
layers = (
{
layerId = "FA6D65B5-4623-4FAC-A199-3F662257AC29";
paths = (
{
closed = 1;
nodes = (
"786 0 LINE SMOOTH",
"1024 0 OFFCURVE",
"1156 29 OFFCURVE",
"1257 104 CURVE SMOOTH",
"1348 172 OFFCURVE",
"1404 283 OFFCURVE",
"1404 404 CURVE SMOOTH",
"1404 636 OFFCURVE",
"1226 801 OFFCURVE",
"960 828 CURVE",
"960 836 LINE",
"1195 877 OFFCURVE",
"1328 994 OFFCURVE",
"1328 1154 CURVE SMOOTH",
"1328 1271 OFFCURVE",
"1269 1377 OFFCURVE",
"1166 1443 CURVE SMOOTH",
"1077 1498 OFFCURVE",
"950 1523 OFFCURVE",
"750 1523 CURVE SMOOTH",
"83 1523 LINE",
"83 1451 LINE",
"252 1409 LINE",
"252 117 LINE",
"83 73 LINE",
"83 0 LINE"
);
},
{
closed = 1;
nodes = (
"628 105 OFFCURVE",
"592 130 OFFCURVE",
"592 223 CURVE SMOOTH",
"592 758 LINE",
"664 758 LINE",
"914 758 OFFCURVE",
"1032 653 OFFCURVE",
"1032 421 CURVE SMOOTH",
"1032 204 OFFCURVE",
"940 105 OFFCURVE",
"744 105 CURVE SMOOTH"
);
},
{
closed = 1;
nodes = (
"592 1416 LINE",
"628 1416 LINE SMOOTH",
"740 1416 OFFCURVE",
"826 1396 OFFCURVE",
"883 1350 CURVE SMOOTH",
"936 1307 OFFCURVE",
"966 1239 OFFCURVE",
"966 1146 CURVE SMOOTH",
"966 983 OFFCURVE",
"877 887 OFFCURVE",
"719 871 CURVE SMOOTH",
"693 867 OFFCURVE",
"661 865 OFFCURVE",
"614 865 CURVE SMOOTH",
"592 865 LINE"
);
}
);
width = 1487;
},
{
associatedMasterId = "FA6D65B5-4623-4FAC-A199-3F662257AC29";
layerId = "CBD44848-52BD-4DC5-BFA6-577546B7224D";
paths = (
{
closed = 1;
nodes = (
"716 0 LINE SMOOTH",
"933 0 OFFCURVE",
"1052 29 OFFCURVE",
"1143 104 CURVE SMOOTH",
"1226 172 OFFCURVE",
"1276 283 OFFCURVE",
"1276 404 CURVE SMOOTH",
"1276 620 OFFCURVE",
"1120 782 OFFCURVE",
"883 807 CURVE",
"883 815 LINE",
"1093 859 OFFCURVE",
"1209 982 OFFCURVE",
"1209 1154 CURVE SMOOTH",
"1209 1271 OFFCURVE",
"1154 1377 OFFCURVE",
"1061 1443 CURVE SMOOTH",
"980 1498 OFFCURVE",
"865 1523 OFFCURVE",
"683 1523 CURVE SMOOTH",
"97 1523 LINE",
"97 1479 LINE",
"265 1441 LINE",
"265 83 LINE",
"97 45 LINE",
"97 0 LINE"
);
},
{
closed = 1;
nodes = (
"512 75 OFFCURVE",
"473 101 OFFCURVE",
"473 193 CURVE SMOOTH",
"473 770 LINE",
"641 770 LINE",
"919 770 OFFCURVE",
"1047 659 OFFCURVE",
"1047 421 CURVE SMOOTH",
"1047 184 OFFCURVE",
"920 75 OFFCURVE",
"648 75 CURVE SMOOTH"
);
},
{
closed = 1;
nodes = (
"473 1445 LINE",
"644 1445 LINE SMOOTH",
"788 1445 OFFCURVE",
"857 1424 OFFCURVE",
"914 1366 CURVE SMOOTH",
"966 1313 OFFCURVE",
"987 1253 OFFCURVE",
"987 1160 CURVE SMOOTH",
"987 980 OFFCURVE",
"906 871 OFFCURVE",
"762 854 CURVE SMOOTH",
"719 851 OFFCURVE",
"672 849 OFFCURVE",
"596 849 CURVE SMOOTH",
"473 849 LINE"
);
}
);
width = 1383;
},
{
layerId = "7C8D72FA-6E62-4564-8BB2-D9F9BC4EB15A";
paths = (
{
closed = 1;
nodes = (
"725 0 LINE SMOOTH",
"944 0 OFFCURVE",
"1066 29 OFFCURVE",
"1158 104 CURVE SMOOTH",
"1242 172 OFFCURVE",
"1293 283 OFFCURVE",
"1293 404 CURVE SMOOTH",
"1293 622 OFFCURVE",
"1134 784 OFFCURVE",
"894 811 CURVE",
"894 818 LINE",
"1107 861 OFFCURVE",
"1225 983 OFFCURVE",
"1225 1154 CURVE SMOOTH",
"1225 1271 OFFCURVE",
"1169 1377 OFFCURVE",
"1074 1443 CURVE SMOOTH",
"993 1498 OFFCURVE",
"876 1523 OFFCURVE",
"692 1523 CURVE SMOOTH",
"94 1523 LINE",
"94 1475 LINE",
"264 1436 LINE",
"264 88 LINE",
"94 48 LINE",
"94 0 LINE"
);
},
{
closed = 1;
nodes = (
"529 79 OFFCURVE",
"489 105 OFFCURVE",
"489 197 CURVE SMOOTH",
"489 769 LINE",
"644 769 LINE",
"918 769 OFFCURVE",
"1044 659 OFFCURVE",
"1044 421 CURVE SMOOTH",
"1044 187 OFFCURVE",
"922 79 OFFCURVE",
"661 79 CURVE SMOOTH"
);
},
{
closed = 1;
nodes = (
"489 1442 LINE",
"641 1442 LINE SMOOTH",
"781 1442 OFFCURVE",
"852 1421 OFFCURVE",
"910 1363 CURVE SMOOTH",
"962 1312 OFFCURVE",
"985 1251 OFFCURVE",
"985 1157 CURVE SMOOTH",
"985 980 OFFCURVE",
"903 873 OFFCURVE",
"757 857 CURVE SMOOTH",
"715 853 OFFCURVE",
"671 851 OFFCURVE",
"599 851 CURVE SMOOTH",
"489 851 LINE"
);
}
);
width = 1397;
}
);
leftKerningGroup = I;
unicode = 0042;
},
{
glyphname = C;
layers = (
{
anchors = (
{
name = bottom;
position = "{874, 0}";
},
{
name = topcap;
position = "{872, 1643}";
}
);
layerId = "FA6D65B5-4623-4FAC-A199-3F662257AC29";
paths = (
{
closed = 1;
nodes = (
"1036 -21 OFFCURVE",
"1181 25 OFFCURVE",
"1336 130 CURVE",
"1416 0 LINE",
"1490 0 LINE",
"1490 549 LINE",
"1401 549 LINE",
"1383 451 OFFCURVE",
"1348 367 OFFCURVE",
"1302 302 CURVE SMOOTH",
"1214 172 OFFCURVE",
"1079 99 OFFCURVE",
"917 99 CURVE SMOOTH",
"622 99 OFFCURVE",
"463 334 OFFCURVE",
"463 772 CURVE SMOOTH",
"463 1206 OFFCURVE",
"620 1427 OFFCURVE",
"925 1427 CURVE SMOOTH",
"1090 1427 OFFCURVE",
"1216 1362 OFFCURVE",
"1308 1219 CURVE SMOOTH",
"1341 1170 OFFCURVE",
"1369 1109 OFFCURVE",
"1396 1039 CURVE",
"1490 1039 LINE",
"1490 1523 LINE",
"1430 1523 LINE",
"1344 1422 LINE",
"1336 1422 LINE",
"1206 1500 OFFCURVE",
"1034 1544 OFFCURVE",
"869 1544 CURVE SMOOTH",
"411 1544 OFFCURVE",
"89 1216 OFFCURVE",
"89 752 CURVE SMOOTH",
"89 292 OFFCURVE",
"404 -21 OFFCURVE",
"862 -21 CURVE SMOOTH"
);
}
);
width = 1609;
},
{
anchors = (
{
name = bottom;
position = "{857, 0}";
},
{
name = topcap;
position = "{857, 1643}";
}
);
associatedMasterId = "FA6D65B5-4623-4FAC-A199-3F662257AC29";
layerId = "CBD44848-52BD-4DC5-BFA6-577546B7224D";
paths = (
{
closed = 1;
nodes = (
"989 -21 OFFCURVE",
"1123 25 OFFCURVE",
"1263 130 CURVE",
"1354 0 LINE",
"1401 0 LINE",
"1401 518 LINE",
"1348 518 LINE",
"1328 413 OFFCURVE",
"1292 325 OFFCURVE",
"1242 256 CURVE SMOOTH",
"1158 132 OFFCURVE",
"1029 70 OFFCURVE",
"871 70 CURVE SMOOTH",
"547 70 OFFCURVE",
"360 325 OFFCURVE",
"360 766 CURVE SMOOTH",
"360 1208 OFFCURVE",
"542 1457 OFFCURVE",
"869 1457 CURVE SMOOTH",
"1044 1457 OFFCURVE",
"1168 1398 OFFCURVE",
"1261 1247 CURVE SMOOTH",
"1291 1198 OFFCURVE",
"1318 1140 OFFCURVE",
"1341 1069 CURVE",
"1401 1069 LINE",
"1401 1523 LINE",
"1366 1523 LINE",
"1269 1422 LINE",
"1261 1422 LINE",
"1142 1500 OFFCURVE",
"989 1544 OFFCURVE",
"836 1544 CURVE SMOOTH",
"411 1544 OFFCURVE",
"112 1216 OFFCURVE",
"112 752 CURVE SMOOTH",
"112 295 OFFCURVE",
"402 -21 OFFCURVE",
"828 -21 CURVE SMOOTH"
);
}
);
width = 1531;
},
{
anchors = (
{
name = bottom;
position = "{859, 0}";
},
{
name = topcap;
position = "{859, 1643}";
}
);
layerId = "7C8D72FA-6E62-4564-8BB2-D9F9BC4EB15A";
paths = (
{
closed = 1;
nodes = (
"996 -21 OFFCURVE",
"1131 25 OFFCURVE",
"1272 130 CURVE",
"1362 0 LINE",
"1413 0 LINE",
"1413 523 LINE",
"1355 523 LINE",
"1336 419 OFFCURVE",
"1300 330 OFFCURVE",
"1251 261 CURVE SMOOTH",
"1165 138 OFFCURVE",
"1035 74 OFFCURVE",
"876 74 CURVE SMOOTH",
"556 74 OFFCURVE",
"373 326 OFFCURVE",
"373 767 CURVE SMOOTH",
"373 1208 OFFCURVE",
"553 1452 OFFCURVE",
"876 1452 CURVE SMOOTH",
"1051 1452 OFFCURVE",
"1173 1393 OFFCURVE",
"1267 1244 CURVE SMOOTH",
"1298 1194 OFFCURVE",
"1325 1137 OFFCURVE",
"1348 1064 CURVE",
"1413 1064 LINE",
"1413 1523 LINE",
"1374 1523 LINE",
"1278 1422 LINE",
"1270 1422 LINE",
"1150 1500 OFFCURVE",
"996 1544 OFFCURVE",
"839 1544 CURVE SMOOTH",
"411 1544 OFFCURVE",
"108 1216 OFFCURVE",
"108 752 CURVE SMOOTH",
"108 295 OFFCURVE",
"402 -21 OFFCURVE",
"833 -21 CURVE SMOOTH"
);
}
);
width = 1542;
}
);
leftKerningGroup = C;
rightKerningGroup = C;
unicode = 0043;
},
{
glyphname = D;
layers = (
{
anchors = (
{
name = bottom;
position = "{815, 0}";
},
{
name = topcap;
position = "{812, 1643}";
}
);
layerId = "FA6D65B5-4623-4FAC-A199-3F662257AC29";
paths = (
{
closed = 1;
nodes = (
"815 0 LINE",
"1039 0 OFFCURVE",
"1183 33 OFFCURVE",
"1315 117 CURVE SMOOTH",
"1515 244 OFFCURVE",
"1647 487 OFFCURVE",
"1647 763 CURVE SMOOTH",
"1647 1033 OFFCURVE",
"1523 1252 OFFCURVE",
"1330 1379 CURVE SMOOTH",
"1170 1487 OFFCURVE",
"966 1523 OFFCURVE",
"622 1523 CURVE SMOOTH",
"81 1523 LINE",
"81 1451 LINE",
"252 1414 LINE",
"252 113 LINE",
"81 75 LINE",
"81 0 LINE"
);
},
{
closed = 1;
nodes = (
"648 107 OFFCURVE",
"592 143 OFFCURVE",
"592 226 CURVE SMOOTH",
"592 1414 LINE",
"770 1414 LINE SMOOTH",
"937 1414 OFFCURVE",
"1059 1368 OFFCURVE",
"1138 1271 CURVE SMOOTH",
"1226 1164 OFFCURVE",
"1267 1005 OFFCURVE",
"1267 763 CURVE SMOOTH",
"1267 518 OFFCURVE",
"1226 344 OFFCURVE",
"1138 240 CURVE SMOOTH",
"1061 149 OFFCURVE",
"948 107 OFFCURVE",
"793 107 CURVE SMOOTH"
);
}
);
width = 1738;
},
{
anchors = (
{
name = bottom;
position = "{812, 0}";
},
{
name = topcap;
position = "{812, 1643}";
}
);
associatedMasterId = "FA6D65B5-4623-4FAC-A199-3F662257AC29";
layerId = "CBD44848-52BD-4DC5-BFA6-577546B7224D";
paths = (
{
closed = 1;
nodes = (
"760 0 LINE",
"958 0 OFFCURVE",
"1082 33 OFFCURVE",
"1198 117 CURVE SMOOTH",
"1381 252 OFFCURVE",
"1490 489 OFFCURVE",
"1490 758 CURVE SMOOTH",
"1490 1018 OFFCURVE",
"1390 1242 OFFCURVE",
"1211 1379 CURVE SMOOTH",
"1073 1484 OFFCURVE",
"904 1523 OFFCURVE",
"590 1523 CURVE SMOOTH",
"97 1523 LINE",
"97 1479 LINE",
"265 1441 LINE",
"265 83 LINE",
"97 45 LINE",
"97 0 LINE"
);
},
{
closed = 1;
nodes = (
"523 75 OFFCURVE",
"473 104 OFFCURVE",
"473 193 CURVE SMOOTH",
"473 1445 LINE",
"630 1445 LINE SMOOTH",
"851 1445 OFFCURVE",
"974 1406 OFFCURVE",
"1076 1300 CURVE SMOOTH",
"1185 1183 OFFCURVE",
"1242 1005 OFFCURVE",
"1242 782 CURVE SMOOTH",
"1242 560 OFFCURVE",
"1185 366 OFFCURVE",
"1080 235 CURVE SMOOTH",
"985 120 OFFCURVE",
"873 75 OFFCURVE",
"679 75 CURVE SMOOTH"
);
}
);
width = 1604;
},
{
anchors = (
{
name = bottom;
position = "{812, 0}";
},
{
name = topcap;
position = "{812, 1643}";
}
);
layerId = "7C8D72FA-6E62-4564-8BB2-D9F9BC4EB15A";
paths = (
{
closed = 1;
nodes = (
"768 0 LINE",
"968 0 OFFCURVE",
"1096 33 OFFCURVE",
"1214 117 CURVE SMOOTH",
"1399 251 OFFCURVE",
"1511 489 OFFCURVE",
"1511 759 CURVE SMOOTH",
"1511 1020 OFFCURVE",
"1408 1244 OFFCURVE",
"1227 1379 CURVE SMOOTH",
"1086 1484 OFFCURVE",
"912 1523 OFFCURVE",
"593 1523 CURVE SMOOTH",
"94 1523 LINE",
"94 1475 LINE",
"264 1437 LINE",
"264 88 LINE",
"94 50 LINE",
"94 0 LINE"
);
},
{
closed = 1;
nodes = (
"540 79 OFFCURVE",
"489 108 OFFCURVE",
"489 198 CURVE SMOOTH",
"489 1441 LINE",
"648 1441 LINE SMOOTH",
"862 1441 OFFCURVE",
"986 1400 OFFCURVE",
"1084 1297 CURVE SMOOTH",
"1191 1180 OFFCURVE",
"1246 1005 OFFCURVE",
"1246 780 CURVE SMOOTH",
"1246 555 OFFCURVE",
"1191 364 OFFCURVE",
"1088 236 CURVE SMOOTH",
"995 124 OFFCURVE",
"883 79 OFFCURVE",
"694 79 CURVE SMOOTH"
);
}
);
width = 1621;
}
);
leftKerningGroup = I;
rightKerningGroup = D;
unicode = 0044;
},
{
glyphname = Eth;
layers = (
{
layerId = "FA6D65B5-4623-4FAC-A199-3F662257AC29";
paths = (
{
closed = 1;
nodes = (
"815 0 LINE SMOOTH",
"1039 0 OFFCURVE",
"1183 33 OFFCURVE",
"1315 117 CURVE SMOOTH",
"1515 245 OFFCURVE",
"1647 487 OFFCURVE",
"1647 763 CURVE SMOOTH",
"1647 1033 OFFCURVE",
"1523 1251 OFFCURVE",
"1330 1379 CURVE SMOOTH",
"1170 1487 OFFCURVE",
"966 1523 OFFCURVE",
"622 1523 CURVE SMOOTH",
"81 1523 LINE",
"81 1451 LINE",
"252 1414 LINE",
"252 869 LINE",
"104 869 LINE",
"104 700 LINE",
"252 700 LINE",
"252 113 LINE",
"81 75 LINE",
"81 0 LINE"
);
},
{
closed = 1;
nodes = (
"648 107 OFFCURVE",
"592 143 OFFCURVE",
"592 226 CURVE SMOOTH",
"592 700 LINE",
"869 700 LINE",
"869 869 LINE",
"592 869 LINE",
"592 1414 LINE",
"770 1414 LINE SMOOTH",
"937 1414 OFFCURVE",
"1059 1368 OFFCURVE",
"1138 1271 CURVE SMOOTH",
"1226 1164 OFFCURVE",
"1267 1005 OFFCURVE",
"1267 763 CURVE SMOOTH",
"1267 518 OFFCURVE",
"1226 344 OFFCURVE",
"1138 240 CURVE SMOOTH",
"1061 149 OFFCURVE",
"948 107 OFFCURVE",
"793 107 CURVE SMOOTH"
);
}
);
width = 1738;
},
{
associatedMasterId = "FA6D65B5-4623-4FAC-A199-3F662257AC29";
layerId = "CBD44848-52BD-4DC5-BFA6-577546B7224D";
paths = (
{
closed = 1;
nodes = (
"762 0 LINE SMOOTH",
"960 0 OFFCURVE",
"1084 33 OFFCURVE",
"1200 117 CURVE SMOOTH",
"1383 252 OFFCURVE",
"1492 489 OFFCURVE",
"1492 758 CURVE SMOOTH",
"1492 1018 OFFCURVE",
"1391 1242 OFFCURVE",
"1214 1379 CURVE SMOOTH",
"1076 1484 OFFCURVE",
"906 1523 OFFCURVE",
"592 1523 CURVE SMOOTH",
"99 1523 LINE",
"99 1479 LINE",
"267 1441 LINE",
"267 849 LINE",
"112 849 LINE",
"112 721 LINE",
"267 721 LINE",
"267 83 LINE",
"99 45 LINE",
"99 0 LINE"
);
},
{
closed = 1;
nodes = (
"524 75 OFFCURVE",
"474 104 OFFCURVE",
"474 193 CURVE SMOOTH",
"474 721 LINE",
"719 721 LINE",
"719 849 LINE",
"474 849 LINE",
"474 1445 LINE",
"631 1445 LINE SMOOTH",
"853 1445 OFFCURVE",
"976 1406 OFFCURVE",
"1077 1300 CURVE SMOOTH",
"1187 1183 OFFCURVE",
"1245 1005 OFFCURVE",
"1245 782 CURVE SMOOTH",
"1245 560 OFFCURVE",
"1187 366 OFFCURVE",
"1082 235 CURVE SMOOTH",
"987 120 OFFCURVE",
"875 75 OFFCURVE",
"681 75 CURVE SMOOTH"
);
}
);
width = 1605;
},
{
layerId = "7C8D72FA-6E62-4564-8BB2-D9F9BC4EB15A";
paths = (
{
closed = 1;
nodes = (
"769 0 LINE SMOOTH",
"971 0 OFFCURVE",
"1097 33 OFFCURVE",
"1215 117 CURVE SMOOTH",
"1401 251 OFFCURVE",
"1513 489 OFFCURVE",
"1513 759 CURVE SMOOTH",
"1513 1020 OFFCURVE",
"1408 1244 OFFCURVE",
"1229 1379 CURVE SMOOTH",
"1088 1484 OFFCURVE",
"914 1523 OFFCURVE",
"595 1523 CURVE SMOOTH",
"97 1523 LINE",
"97 1475 LINE",
"266 1437 LINE",
"266 852 LINE",
"111 852 LINE",
"111 719 LINE",
"266 719 LINE",
"266 88 LINE",
"97 50 LINE",
"97 0 LINE"
);
},
{
closed = 1;
nodes = (
"541 79 OFFCURVE",
"491 108 OFFCURVE",
"491 198 CURVE SMOOTH",
"491 719 LINE",
"738 719 LINE",
"738 852 LINE",
"491 852 LINE",
"491 1441 LINE",
"649 1441 LINE SMOOTH",
"865 1441 OFFCURVE",
"987 1400 OFFCURVE",
"1085 1297 CURVE SMOOTH",
"1193 1180 OFFCURVE",
"1248 1005 OFFCURVE",
"1248 780 CURVE SMOOTH",
"1248 555 OFFCURVE",
"1193 364 OFFCURVE",
"1090 236 CURVE SMOOTH",
"997 124 OFFCURVE",
"884 79 OFFCURVE",
"696 79 CURVE SMOOTH"
);
}
);
width = 1622;
}
);
leftKerningGroup = I;
rightKerningGroup = D;
unicode = 00D0;
},
{
glyphname = Dcroat;
layers = (
{
layerId = "FA6D65B5-4623-4FAC-A199-3F662257AC29";
paths = (
{
closed = 1;
nodes = (
"815 0 LINE SMOOTH",
"1039 0 OFFCURVE",
"1183 33 OFFCURVE",
"1315 117 CURVE SMOOTH",
"1515 245 OFFCURVE",
"1647 487 OFFCURVE",
"1647 763 CURVE SMOOTH",
"1647 1033 OFFCURVE",
"1523 1251 OFFCURVE",
"1330 1379 CURVE SMOOTH",
"1170 1487 OFFCURVE",
"966 1523 OFFCURVE",
"622 1523 CURVE SMOOTH",
"81 1523 LINE",
"81 1451 LINE",
"252 1414 LINE",
"252 869 LINE",
"104 869 LINE",
"104 700 LINE",
"252 700 LINE",
"252 113 LINE",
"81 75 LINE",
"81 0 LINE"
);
},
{
closed = 1;
nodes = (
"648 107 OFFCURVE",
"592 143 OFFCURVE",
"592 226 CURVE SMOOTH",
"592 700 LINE",
"869 700 LINE",
"869 869 LINE",
"592 869 LINE",
"592 1414 LINE",
"770 1414 LINE SMOOTH",
"937 1414 OFFCURVE",
"1059 1368 OFFCURVE",
"1138 1271 CURVE SMOOTH",
"1226 1164 OFFCURVE",
"1267 1005 OFFCURVE",
"1267 763 CURVE SMOOTH",
"1267 518 OFFCURVE",
"1226 344 OFFCURVE",
"1138 240 CURVE SMOOTH",
"1061 149 OFFCURVE",
"948 107 OFFCURVE",
"793 107 CURVE SMOOTH"
);
}
);
width = 1738;
},
{
associatedMasterId = "FA6D65B5-4623-4FAC-A199-3F662257AC29";
layerId = "CBD44848-52BD-4DC5-BFA6-577546B7224D";
paths = (
{
closed = 1;
nodes = (
"762 0 LINE SMOOTH",
"960 0 OFFCURVE",
"1084 33 OFFCURVE",
"1200 117 CURVE SMOOTH",
"1383 252 OFFCURVE",
"1492 489 OFFCURVE",
"1492 758 CURVE SMOOTH",
"1492 1018 OFFCURVE",
"1391 1242 OFFCURVE",
"1214 1379 CURVE SMOOTH",
"1076 1484 OFFCURVE",
"906 1523 OFFCURVE",
"592 1523 CURVE SMOOTH",
"99 1523 LINE",
"99 1479 LINE",
"267 1441 LINE",
"267 849 LINE",
"112 849 LINE",
"112 721 LINE",
"267 721 LINE",
"267 83 LINE",
"99 45 LINE",
"99 0 LINE"
);
},
{
closed = 1;
nodes = (
"524 75 OFFCURVE",
"474 104 OFFCURVE",
"474 193 CURVE SMOOTH",
"474 721 LINE",
"719 721 LINE",
"719 849 LINE",
"474 849 LINE",
"474 1445 LINE",
"631 1445 LINE SMOOTH",
"853 1445 OFFCURVE",
"976 1406 OFFCURVE",
"1077 1300 CURVE SMOOTH",
"1187 1183 OFFCURVE",
"1245 1005 OFFCURVE",
"1245 782 CURVE SMOOTH",
"1245 560 OFFCURVE",
"1187 366 OFFCURVE",
"1082 235 CURVE SMOOTH",
"987 120 OFFCURVE",
"875 75 OFFCURVE",
"681 75 CURVE SMOOTH"
);
}
);
width = 1605;
},
{
layerId = "7C8D72FA-6E62-4564-8BB2-D9F9BC4EB15A";
paths = (
{
closed = 1;
nodes = (
"769 0 LINE SMOOTH",
"971 0 OFFCURVE",
"1097 33 OFFCURVE",
"1215 117 CURVE SMOOTH",
"1401 251 OFFCURVE",
"1513 489 OFFCURVE",
"1513 759 CURVE SMOOTH",
"1513 1020 OFFCURVE",
"1408 1244 OFFCURVE",
"1229 1379 CURVE SMOOTH",
"1088 1484 OFFCURVE",
"914 1523 OFFCURVE",
"595 1523 CURVE SMOOTH",
"97 1523 LINE",
"97 1475 LINE",
"266 1437 LINE",
"266 852 LINE",
"111 852 LINE",
"111 719 LINE",
"266 719 LINE",
"266 88 LINE",
"97 50 LINE",
"97 0 LINE"
);
},
{
closed = 1;
nodes = (
"541 79 OFFCURVE",
"491 108 OFFCURVE",
"491 198 CURVE SMOOTH",
"491 719 LINE",
"738 719 LINE",
"738 852 LINE",
"491 852 LINE",
"491 1441 LINE",
"649 1441 LINE SMOOTH",
"865 1441 OFFCURVE",
"987 1400 OFFCURVE",
"1085 1297 CURVE SMOOTH",
"1193 1180 OFFCURVE",
"1248 1005 OFFCURVE",
"1248 780 CURVE SMOOTH",
"1248 555 OFFCURVE",
"1193 364 OFFCURVE",
"1090 236 CURVE SMOOTH",
"997 124 OFFCURVE",
"884 79 OFFCURVE",
"696 79 CURVE SMOOTH"
);
}
);
width = 1622;
}
);
leftKerningGroup = I;
rightKerningGroup = D;
unicode = 0110;
},
{
glyphname = E;
layers = (
{
anchors = (
{
name = bottom;
position = "{765, 0}";
},
{
name = ogonekcap;
position = "{1284, 0}";
},
{
name = topcap;
position = "{752, 1643}";
}
);
layerId = "FA6D65B5-4623-4FAC-A199-3F662257AC29";
paths = (
{
closed = 1;
nodes = (
"1284 0 LINE",
"1368 463 LINE",
"1265 463 LINE",
"1217 347 OFFCURVE",
"1170 229 OFFCURVE",
"1084 113 CURVE",
"592 113 LINE",
"592 1412 LINE",
"1096 1412 LINE",
"1164 1308 OFFCURVE",
"1214 1192 OFFCURVE",
"1249 1088 CURVE",
"1331 1088 LINE",
"1294 1523 LINE",
"83 1523 LINE",
"83 1451 LINE",
"252 1414 LINE",
"252 112 LINE",
"83 73 LINE",
"83 0 LINE"
);
},
{
closed = 1;
nodes = (
"1010 529 LINE",
"1010 1082 LINE",
"927 1082 LINE",
"911 1010 OFFCURVE",
"886 933 OFFCURVE",
"841 859 CURVE",
"560 859 LINE",
"560 752 LINE",
"841 752 LINE",
"883 679 OFFCURVE",
"911 601 OFFCURVE",
"927 529 CURVE"
);
}
);
width = 1447;
},
{
anchors = (
{
name = bottom;
position = "{708, 0}";
},
{
name = topcap;
position = "{705, 1643}";
}
);
associatedMasterId = "FA6D65B5-4623-4FAC-A199-3F662257AC29";
layerId = "CBD44848-52BD-4DC5-BFA6-577546B7224D";
paths = (
{
closed = 1;
nodes = (
"1189 0 LINE",
"1263 463 LINE",
"1198 463 LINE",
"1154 334 OFFCURVE",
"1110 208 OFFCURVE",
"1032 78 CURVE",
"473 78 LINE",
"473 1445 LINE",
"1041 1445 LINE",
"1107 1331 OFFCURVE",
"1152 1201 OFFCURVE",
"1183 1088 CURVE",
"1231 1088 LINE",
"1198 1523 LINE",
"97 1523 LINE",
"97 1479 LINE",
"265 1441 LINE",
"265 83 LINE",
"97 45 LINE",
"97 0 LINE"
);
},
{
closed = 1;
nodes = (
"948 526 LINE",
"948 1080 LINE",
"900 1080 LINE",
"887 1002 OFFCURVE",
"865 922 OFFCURVE",
"828 843 CURVE",
"446 843 LINE",
"446 763 LINE",
"828 763 LINE",
"865 685 OFFCURVE",
"888 606 OFFCURVE",
"900 526 CURVE"
);
}
);
width = 1369;
},
{
anchors = (
{
name = bottom;
position = "{716, 0}";
},
{
name = ogonekcap;
position = "{1202, 0}";
},
{
name = topcap;
position = "{712, 1643}";
}
);
layerId = "7C8D72FA-6E62-4564-8BB2-D9F9BC4EB15A";
paths = (
{
closed = 1;
nodes = (
"1202 0 LINE",
"1277 463 LINE",
"1207 463 LINE",
"1162 335 OFFCURVE",
"1118 211 OFFCURVE",
"1039 83 CURVE",
"489 83 LINE",
"489 1441 LINE",
"1049 1441 LINE",
"1115 1329 OFFCURVE",
"1160 1200 OFFCURVE",
"1192 1088 CURVE",
"1245 1088 LINE",
"1210 1523 LINE",
"94 1523 LINE",
"94 1475 LINE",
"264 1437 LINE",
"264 88 LINE",
"94 48 LINE",
"94 0 LINE"
);
},
{
closed = 1;
nodes = (
"956 526 LINE",
"956 1081 LINE",
"904 1081 LINE",
"889 1003 OFFCURVE",
"867 924 OFFCURVE",
"829 845 CURVE",
"461 845 LINE",
"461 762 LINE",
"829 762 LINE",
"867 684 OFFCURVE",
"891 606 OFFCURVE",
"904 526 CURVE"
);
}
);
width = 1379;
}
);
leftKerningGroup = I;
rightKerningGroup = E;
unicode = 0045;
},
{
glyphname = F;
layers = (
{
layerId = "FA6D65B5-4623-4FAC-A199-3F662257AC29";
paths = (
{
closed = 1;
nodes = (
"815 0 LINE",
"815 73 LINE",
"590 112 LINE",
"590 1412 LINE",
"1109 1412 LINE",
"1175 1308 OFFCURVE",
"1219 1192 OFFCURVE",
"1251 1088 CURVE",
"1328 1088 LINE",
"1294 1523 LINE",
"83 1523 LINE",
"83 1451 LINE",
"252 1414 LINE",
"252 112 LINE",
"83 73 LINE",
"83 0 LINE"
);
},
{
closed = 1;
nodes = (
"1008 529 LINE",
"1008 1082 LINE",
"930 1082 LINE",
"917 1008 OFFCURVE",
"895 935 OFFCURVE",
"857 859 CURVE",
"564 859 LINE",
"564 754 LINE",
"857 754 LINE",
"892 679 OFFCURVE",
"917 603 OFFCURVE",
"930 529 CURVE"
);
}
);
width = 1354;
},
{
associatedMasterId = "FA6D65B5-4623-4FAC-A199-3F662257AC29";
layerId = "CBD44848-52BD-4DC5-BFA6-577546B7224D";
paths = (
{
closed = 1;
nodes = (
"698 0 LINE",
"698 45 LINE",
"473 83 LINE",
"473 1445 LINE",
"1041 1445 LINE",
"1107 1331 OFFCURVE",
"1152 1201 OFFCURVE",
"1183 1088 CURVE",
"1231 1088 LINE",
"1198 1523 LINE",
"97 1523 LINE",
"97 1479 LINE",
"265 1441 LINE",
"265 83 LINE",
"97 45 LINE",
"97 0 LINE"
);
},
{
closed = 1;
nodes = (
"948 526 LINE",
"948 1080 LINE",
"900 1080 LINE",
"887 1002 OFFCURVE",
"865 922 OFFCURVE",
"828 843 CURVE",
"446 843 LINE",
"446 763 LINE",
"828 763 LINE",
"865 685 OFFCURVE",
"888 606 OFFCURVE",
"900 526 CURVE"
);
}
);
width = 1286;
},
{
layerId = "7C8D72FA-6E62-4564-8BB2-D9F9BC4EB15A";
paths = (
{
closed = 1;
nodes = (
"714 0 LINE",
"714 48 LINE",
"489 88 LINE",
"489 1441 LINE",
"1050 1441 LINE",
"1116 1329 OFFCURVE",
"1161 1200 OFFCURVE",
"1192 1088 CURVE",
"1245 1088 LINE",
"1210 1523 LINE",
"94 1523 LINE",
"94 1475 LINE",
"264 1437 LINE",
"264 88 LINE",
"94 48 LINE",
"94 0 LINE"
);
},
{
closed = 1;
nodes = (
"956 526 LINE",
"956 1081 LINE",
"905 1081 LINE",
"890 1003 OFFCURVE",
"868 924 OFFCURVE",
"831 845 CURVE",
"462 845 LINE",
"462 762 LINE",
"831 762 LINE",
"868 684 OFFCURVE",
"892 606 OFFCURVE",
"905 526 CURVE"
);
}
);
width = 1295;
}
);
leftKerningGroup = I;
unicode = 0046;
},
{
glyphname = G;
layers = (
{
anchors = (
{
name = bottom;
position = "{868, 0}";
},
{
name = topcap;
position = "{892, 1643}";
}
);
layerId = "FA6D65B5-4623-4FAC-A199-3F662257AC29";
paths = (
{
closed = 1;
nodes = (
"1088 -21 OFFCURVE",
"1358 58 OFFCURVE",
"1482 161 CURVE",
"1482 653 LINE",
"1658 691 LINE",
"1658 763 LINE",
"964 763 LINE",
"964 691 LINE",
"1142 653 LINE",
"1142 318 LINE SMOOTH",
"1142 256 OFFCURVE",
"1138 234 OFFCURVE",
"1120 208 CURVE SMOOTH",
"1073 138 OFFCURVE",
"974 94 OFFCURVE",
"859 94 CURVE SMOOTH",
"592 94 OFFCURVE",
"469 291 OFFCURVE",
"469 746 CURVE SMOOTH",
"469 1201 OFFCURVE",
"617 1424 OFFCURVE",
"919 1424 CURVE SMOOTH",
"1127 1424 OFFCURVE",
"1253 1322 OFFCURVE",
"1390 1039 CURVE",
"1479 1039 LINE",
"1479 1523 LINE",
"1415 1523 LINE",
"1328 1422 LINE",
"1320 1422 LINE",
"1224 1498 OFFCURVE",
"1059 1544 OFFCURVE",
"883 1544 CURVE SMOOTH",
"417 1544 OFFCURVE",
"89 1211 OFFCURVE",
"89 738 CURVE SMOOTH",
"89 283 OFFCURVE",
"396 -21 OFFCURVE",
"859 -21 CURVE SMOOTH"
);
}
);
width = 1693;
},
{
anchors = (
{
name = bottom;
position = "{845, 0}";
},
{
name = topcap;
position = "{865, 1643}";
}
);
associatedMasterId = "FA6D65B5-4623-4FAC-A199-3F662257AC29";
layerId = "CBD44848-52BD-4DC5-BFA6-577546B7224D";
paths = (
{
closed = 1;
nodes = (
"1032 -21 OFFCURVE",
"1259 55 OFFCURVE",
"1368 161 CURVE",
"1368 681 LINE",
"1544 719 LINE",
"1544 763 LINE",
"982 763 LINE",
"982 719 LINE",
"1160 681 LINE",
"1160 295 LINE SMOOTH",
"1160 227 OFFCURVE",
"1156 212 OFFCURVE",
"1143 192 CURVE SMOOTH",
"1094 112 OFFCURVE",
"989 71 OFFCURVE",
"861 71 CURVE SMOOTH",
"526 71 OFFCURVE",
"362 295 OFFCURVE",
"362 744 CURVE SMOOTH",
"362 1211 OFFCURVE",
"539 1455 OFFCURVE",
"879 1455 CURVE SMOOTH",
"1099 1455 OFFCURVE",
"1217 1356 OFFCURVE",
"1344 1069 CURVE",
"1390 1069 LINE",
"1390 1523 LINE",
"1346 1523 LINE",
"1239 1422 LINE",
"1231 1422 LINE",
"1143 1500 OFFCURVE",
"1005 1544 OFFCURVE",
"851 1544 CURVE SMOOTH",
"424 1544 OFFCURVE",
"109 1203 OFFCURVE",
"109 744 CURVE SMOOTH",
"109 297 OFFCURVE",
"406 -21 OFFCURVE",
"828 -21 CURVE SMOOTH"
);
}
);
width = 1599;
},
{
anchors = (
{
name = bottom;
position = "{849, 0}";
},
{
name = topcap;
position = "{868, 1643}";
}
);
layerId = "7C8D72FA-6E62-4564-8BB2-D9F9BC4EB15A";
paths = (
{
closed = 1;
nodes = (
"1039 -21 OFFCURVE",
"1271 55 OFFCURVE",
"1383 161 CURVE",
"1383 677 LINE",
"1559 715 LINE",
"1559 763 LINE",
"979 763 LINE",
"979 715 LINE",
"1157 677 LINE",
"1157 298 LINE SMOOTH",
"1157 231 OFFCURVE",
"1154 214 OFFCURVE",
"1140 195 CURVE SMOOTH",
"1092 115 OFFCURVE",
"988 74 OFFCURVE",
"861 74 CURVE SMOOTH",
"535 74 OFFCURVE",
"377 294 OFFCURVE",
"377 745 CURVE SMOOTH",
"377 1210 OFFCURVE",
"549 1451 OFFCURVE",
"883 1451 CURVE SMOOTH",
"1102 1451 OFFCURVE",
"1222 1352 OFFCURVE",
"1350 1064 CURVE",
"1401 1064 LINE",
"1401 1523 LINE",
"1355 1523 LINE",
"1251 1422 LINE",
"1244 1422 LINE",
"1154 1499 OFFCURVE",
"1012 1544 OFFCURVE",
"856 1544 CURVE SMOOTH",
"423 1544 OFFCURVE",
"106 1204 OFFCURVE",
"106 744 CURVE SMOOTH",
"106 295 OFFCURVE",
"404 -21 OFFCURVE",
"831 -21 CURVE SMOOTH"
);
}
);
width = 1611;
}
);
leftKerningGroup = G;
rightKerningGroup = G;
unicode = 0047;
},
{
glyphname = H;
layers = (
{
anchors = (
{
name = bottom;
position = "{913, 0}";
},
{
name = topcap;
position = "{913, 1643}";
}
);
layerId = "FA6D65B5-4623-4FAC-A199-3F662257AC29";
paths = (
{
closed = 1;
nodes = (
"1745 0 LINE",
"1745 73 LINE",
"1578 115 LINE",
"1578 1412 LINE",
"1745 1451 LINE",
"1745 1523 LINE",
"1069 1523 LINE",
"1069 1451 LINE",
"1237 1412 LINE",
"1237 115 LINE",
"1069 73 LINE",
"1069 0 LINE"
);
},
{
closed = 1;
nodes = (
"758 0 LINE",
"758 73 LINE",
"592 115 LINE",
"592 1412 LINE",
"758 1451 LINE",
"758 1523 LINE",
"83 1523 LINE",
"83 1451 LINE",
"252 1412 LINE",
"252 115 LINE",
"83 73 LINE",
"83 0 LINE"
);
},
{
closed = 1;
nodes = (
"1435 747 LINE",
"1435 861 LINE",
"398 861 LINE",
"398 747 LINE"
);
}
);
width = 1826;
},
{
anchors = (
{
name = bottom;
position = "{854, 0}";
},
{
name = topcap;
position = "{854, 1643}";
}
);
associatedMasterId = "FA6D65B5-4623-4FAC-A199-3F662257AC29";
layerId = "CBD44848-52BD-4DC5-BFA6-577546B7224D";
paths = (
{
closed = 1;
nodes = (
"1607 0 LINE",
"1607 41 LINE",
"1430 83 LINE",
"1430 1441 LINE",
"1607 1474 LINE",
"1607 1523 LINE",
"1044 1523 LINE",
"1044 1479 LINE",
"1224 1441 LINE",
"1224 83 LINE",
"1044 45 LINE",
"1044 0 LINE"
);
},
{
closed = 1;
nodes = (
"651 0 LINE",
"651 45 LINE",
"474 83 LINE",
"474 1441 LINE",
"651 1479 LINE",
"651 1523 LINE",
"89 1523 LINE",
"89 1479 LINE",
"267 1441 LINE",
"267 83 LINE",
"89 45 LINE",
"89 0 LINE"
);
},
{
closed = 1;
nodes = (
"1307 762 LINE",
"1307 841 LINE",
"396 841 LINE",
"396 762 LINE"
);
}
);
width = 1696;
},
{
anchors = (
{
name = bottom;
position = "{862, 0}";
},
{
name = topcap;
position = "{862, 1643}";
}
);
layerId = "7C8D72FA-6E62-4564-8BB2-D9F9BC4EB15A";
paths = (
{
closed = 1;
nodes = (
"1625 0 LINE",
"1625 46 LINE",
"1450 88 LINE",
"1450 1437 LINE",
"1625 1472 LINE",
"1625 1523 LINE",
"1048 1523 LINE",
"1048 1475 LINE",
"1225 1437 LINE",
"1225 88 LINE",
"1048 48 LINE",
"1048 0 LINE"
);
},
{
closed = 1;
nodes = (
"666 0 LINE",
"666 48 LINE",
"491 88 LINE",
"491 1437 LINE",
"666 1475 LINE",
"666 1523 LINE",
"88 1523 LINE",
"88 1475 LINE",
"266 1437 LINE",
"266 88 LINE",
"88 48 LINE",
"88 0 LINE"
);
},
{
closed = 1;
nodes = (
"1324 760 LINE",
"1324 844 LINE",
"396 844 LINE",
"396 760 LINE"
);
}
);
width = 1713;
}
);
leftKerningGroup = I;
rightKerningGroup = I;
unicode = 0048;
},
{
glyphname = Hbar;
layers = (
{
layerId = "FA6D65B5-4623-4FAC-A199-3F662257AC29";
paths = (
{
closed = 1;
nodes = (
"760 0 LINE",
"760 73 LINE",
"594 115 LINE",
"594 747 LINE",
"1239 747 LINE",
"1239 115 LINE",
"1071 73 LINE",
"1071 0 LINE",
"1746 0 LINE",
"1746 73 LINE",
"1579 115 LINE",
"1579 1063 LINE",
"1732 1063 LINE",
"1732 1211 LINE",
"1579 1211 LINE",
"1579 1412 LINE",
"1746 1451 LINE",
"1746 1523 LINE",
"1071 1523 LINE",
"1071 1451 LINE",
"1239 1412 LINE",
"1239 1211 LINE",
"594 1211 LINE",
"594 1412 LINE",
"760 1451 LINE",
"760 1523 LINE",
"85 1523 LINE",
"85 1451 LINE",
"253 1412 LINE",
"253 1211 LINE",
"105 1211 LINE",
"105 1063 LINE",
"253 1063 LINE",
"253 115 LINE",
"85 73 LINE",
"85 0 LINE"
);
},
{
closed = 1;
nodes = (
"594 1063 LINE",
"1239 1063 LINE",
"1239 861 LINE",
"594 861 LINE"
);
}
);
width = 1831;
},
{
associatedMasterId = "FA6D65B5-4623-4FAC-A199-3F662257AC29";
layerId = "CBD44848-52BD-4DC5-BFA6-577546B7224D";
paths = (
{
closed = 1;
nodes = (
"651 0 LINE",
"651 45 LINE",
"474 83 LINE",
"474 762 LINE",
"1224 762 LINE",
"1224 83 LINE",
"1044 45 LINE",
"1044 0 LINE",
"1607 0 LINE",
"1607 41 LINE",
"1430 83 LINE",
"1430 1082 LINE",
"1609 1082 LINE",
"1609 1211 LINE",
"1430 1211 LINE",
"1430 1441 LINE",
"1607 1474 LINE",
"1607 1523 LINE",
"1044 1523 LINE",
"1044 1479 LINE",
"1224 1441 LINE",
"1224 1211 LINE",
"474 1211 LINE",
"474 1441 LINE",
"651 1479 LINE",
"651 1523 LINE",
"89 1523 LINE",
"89 1479 LINE",
"267 1441 LINE",
"267 1211 LINE",
"109 1211 LINE",
"109 1082 LINE",
"267 1082 LINE",
"267 83 LINE",
"89 45 LINE",
"89 0 LINE"
);
},
{
closed = 1;
nodes = (
"474 1082 LINE",
"1224 1082 LINE",
"1224 841 LINE",
"474 841 LINE"
);
}
);
width = 1698;
},
{
layerId = "7C8D72FA-6E62-4564-8BB2-D9F9BC4EB15A";
paths = (
{
closed = 1;
nodes = (
"666 0 LINE",
"666 48 LINE",
"491 88 LINE",
"491 760 LINE",
"1225 760 LINE",
"1225 88 LINE",
"1048 48 LINE",
"1048 0 LINE",
"1626 0 LINE",
"1626 46 LINE",
"1450 88 LINE",
"1450 1080 LINE",
"1626 1080 LINE",
"1626 1211 LINE",
"1450 1211 LINE",
"1450 1437 LINE",
"1626 1472 LINE",
"1626 1523 LINE",
"1048 1523 LINE",
"1048 1475 LINE",
"1225 1437 LINE",
"1225 1211 LINE",
"491 1211 LINE",
"491 1437 LINE",
"666 1475 LINE",
"666 1523 LINE",
"89 1523 LINE",
"89 1475 LINE",
"266 1437 LINE",
"266 1211 LINE",
"108 1211 LINE",
"108 1080 LINE",
"266 1080 LINE",
"266 88 LINE",
"89 48 LINE",
"89 0 LINE"
);
},
{
closed = 1;
nodes = (
"491 1080 LINE",
"1225 1080 LINE",
"1225 844 LINE",
"491 844 LINE"
);
}
);
width = 1716;
}
);
leftKerningGroup = I;
rightKerningGroup = I;
unicode = 0126;
},
{
glyphname = I;
layers = (
{
anchors = (
{
name = bottom;
position = "{420, 0}";
},
{
name = ogonekcap;
position = "{758, 0}";
},
{
name = topcap;
position = "{420, 1643}";
}
);
layerId = "FA6D65B5-4623-4FAC-A199-3F662257AC29";
paths = (
{
closed = 1;
nodes = (
"758 0 LINE",
"758 73 LINE",
"592 115 LINE",
"592 1412 LINE",
"758 1451 LINE",
"758 1523 LINE",
"83 1523 LINE",
"83 1451 LINE",
"252 1412 LINE",
"252 115 LINE",
"83 73 LINE",
"83 0 LINE"
);
}
);
width = 841;
},
{
anchors = (
{
name = bottom;
position = "{372, 0}";
},
{
name = topcap;
position = "{372, 1643}";
}
);
associatedMasterId = "FA6D65B5-4623-4FAC-A199-3F662257AC29";
layerId = "CBD44848-52BD-4DC5-BFA6-577546B7224D";
paths = (
{
closed = 1;
nodes = (
"651 0 LINE",
"651 45 LINE",
"474 83 LINE",
"474 1441 LINE",
"651 1479 LINE",
"651 1523 LINE",
"89 1523 LINE",
"89 1479 LINE",
"267 1441 LINE",
"267 83 LINE",
"89 45 LINE",
"89 0 LINE"
);
}
);
width = 740;
},
{
anchors = (
{
name = bottom;
position = "{379, 0}";
},
{
name = ogonekcap;
position = "{666, 0}";
},
{
name = topcap;
position = "{379, 1643}";
}
);
layerId = "7C8D72FA-6E62-4564-8BB2-D9F9BC4EB15A";
paths = (
{
closed = 1;
nodes = (
"666 0 LINE",
"666 48 LINE",
"491 88 LINE",
"491 1437 LINE",
"666 1475 LINE",
"666 1523 LINE",
"88 1523 LINE",
"88 1475 LINE",
"266 1437 LINE",
"266 88 LINE",
"88 48 LINE",
"88 0 LINE"
);
}
);
width = 753;
}
);
leftKerningGroup = I;
rightKerningGroup = I;
unicode = 0049;
},
{
glyphname = J;
layers = (
{
anchors = (
{
name = topcap;
position = "{405, 1643}";
}
);
layerId = "FA6D65B5-4623-4FAC-A199-3F662257AC29";
paths = (
{
closed = 1;
nodes = (
"216 -515 OFFCURVE",
"404 -425 OFFCURVE",
"508 -260 CURVE SMOOTH",
"565 -154 OFFCURVE",
"576 -81 OFFCURVE",
"576 307 CURVE SMOOTH",
"576 1412 LINE",
"743 1451 LINE",
"743 1523 LINE",
"68 1523 LINE",
"68 1451 LINE",
"235 1412 LINE",
"235 -85 LINE SMOOTH",
"235 -299 OFFCURVE",
"172 -402 OFFCURVE",
"93 -402 CURVE SMOOTH",
"45 -402 OFFCURVE",
"13 -364 OFFCURVE",
"-18 -275 CURVE SMOOTH",
"-44 -204 OFFCURVE",
"-81 -153 OFFCURVE",
"-162 -153 CURVE SMOOTH",
"-242 -153 OFFCURVE",
"-305 -204 OFFCURVE",
"-305 -303 CURVE SMOOTH",
"-305 -432 OFFCURVE",
"-184 -515 OFFCURVE",
"29 -515 CURVE SMOOTH"
);
}
);
width = 810;
},
{
anchors = (
{
name = topcap;
position = "{359, 1643}";
}
);
associatedMasterId = "FA6D65B5-4623-4FAC-A199-3F662257AC29";
layerId = "CBD44848-52BD-4DC5-BFA6-577546B7224D";
paths = (
{
closed = 1;
nodes = (
"144 -515 OFFCURVE",
"302 -425 OFFCURVE",
"394 -260 CURVE SMOOTH",
"451 -154 OFFCURVE",
"461 -81 OFFCURVE",
"461 307 CURVE SMOOTH",
"461 1441 LINE",
"638 1479 LINE",
"638 1523 LINE",
"75 1523 LINE",
"75 1479 LINE",
"253 1441 LINE",
"253 -94 LINE SMOOTH",
"253 -310 OFFCURVE",
"182 -411 OFFCURVE",
"91 -411 CURVE SMOOTH",
"39 -411 OFFCURVE",
"-2 -380 OFFCURVE",
"-29 -305 CURVE SMOOTH",
"-52 -245 OFFCURVE",
"-83 -214 OFFCURVE",
"-138 -214 CURVE SMOOTH",
"-211 -214 OFFCURVE",
"-256 -264 OFFCURVE",
"-256 -342 CURVE SMOOTH",
"-256 -450 OFFCURVE",
"-165 -515 OFFCURVE",
"-18 -515 CURVE SMOOTH"
);
}
);
width = 716;
},
{
anchors = (
{
name = topcap;
position = "{365, 1643}";
}
);
layerId = "7C8D72FA-6E62-4564-8BB2-D9F9BC4EB15A";
paths = (
{
closed = 1;
nodes = (
"153 -515 OFFCURVE",
"316 -425 OFFCURVE",
"409 -260 CURVE SMOOTH",
"466 -154 OFFCURVE",
"477 -81 OFFCURVE",
"477 307 CURVE SMOOTH",
"477 1437 LINE",
"652 1475 LINE",
"652 1523 LINE",
"75 1523 LINE",
"75 1475 LINE",
"251 1437 LINE",
"251 -93 LINE SMOOTH",
"251 -307 OFFCURVE",
"181 -410 OFFCURVE",
"91 -410 CURVE SMOOTH",
"40 -410 OFFCURVE",
"0 -378 OFFCURVE",
"-28 -301 CURVE SMOOTH",
"-51 -240 OFFCURVE",
"-83 -206 OFFCURVE",
"-142 -206 CURVE SMOOTH",
"-214 -206 OFFCURVE",
"-261 -256 OFFCURVE",
"-261 -336 CURVE SMOOTH",
"-261 -448 OFFCURVE",
"-167 -515 OFFCURVE",
"-12 -515 CURVE SMOOTH"
);
}
);
width = 729;
}
);
leftKerningGroup = J;
rightKerningGroup = J;
unicode = 004A;
},
{
glyphname = K;
layers = (
{
anchors = (
{
name = bottom;
position = "{866, 0}";
}
);
layerId = "FA6D65B5-4623-4FAC-A199-3F662257AC29";
paths = (
{
closed = 1;
nodes = (
"758 0 LINE",
"758 73 LINE",
"592 115 LINE",
"592 648 LINE",
"636 696 LINE",
"1123 0 LINE",
"1651 0 LINE",
"1651 73 LINE",
"1470 112 LINE",
"869 948 LINE",
"1217 1328 LINE SMOOTH",
"1282 1399 OFFCURVE",
"1323 1421 OFFCURVE",
"1511 1451 CURVE",
"1511 1523 LINE",
"942 1523 LINE",
"942 1453 LINE",
"1043 1449 OFFCURVE",
"1094 1432 OFFCURVE",
"1094 1396 CURVE SMOOTH",
"1094 1379 OFFCURVE",
"1088 1356 OFFCURVE",
"1067 1333 CURVE SMOOTH",
"592 823 LINE",
"592 1412 LINE",
"758 1451 LINE",
"758 1523 LINE",
"83 1523 LINE",
"83 1451 LINE",
"252 1412 LINE",
"252 115 LINE",
"83 73 LINE",
"83 0 LINE"
);
}
);
width = 1597;
},
{
anchors = (
{
name = bottom;
position = "{784, 0}";
}
);
associatedMasterId = "FA6D65B5-4623-4FAC-A199-3F662257AC29";
layerId = "CBD44848-52BD-4DC5-BFA6-577546B7224D";
paths = (
{
closed = 1;
nodes = (
"651 0 LINE",
"651 45 LINE",
"474 83 LINE",
"474 603 LINE",
"603 750 LINE",
"1168 0 LINE",
"1597 0 LINE",
"1597 45 LINE",
"1377 83 LINE",
"743 909 LINE",
"1133 1356 LINE SMOOTH",
"1198 1429 OFFCURVE",
"1241 1447 OFFCURVE",
"1422 1479 CURVE",
"1422 1523 LINE",
"900 1523 LINE",
"900 1479 LINE",
"1018 1470 OFFCURVE",
"1067 1453 OFFCURVE",
"1067 1419 CURVE SMOOTH",
"1067 1404 OFFCURVE",
"1057 1383 OFFCURVE",
"1034 1360 CURVE SMOOTH",
"474 732 LINE",
"474 1441 LINE",
"651 1479 LINE",
"651 1523 LINE",
"89 1523 LINE",
"89 1479 LINE",
"267 1441 LINE",
"267 83 LINE",
"89 45 LINE",
"89 0 LINE"
);
}
);
width = 1550;
},
{
anchors = (
{
name = bottom;
position = "{795, 0}";
}
);
layerId = "7C8D72FA-6E62-4564-8BB2-D9F9BC4EB15A";
paths = (
{
closed = 1;
nodes = (
"666 0 LINE",
"666 48 LINE",
"491 88 LINE",
"491 610 LINE",
"608 743 LINE",
"1161 0 LINE",
"1604 0 LINE",
"1604 48 LINE",
"1390 88 LINE",
"759 914 LINE",
"1145 1352 LINE SMOOTH",
"1209 1426 OFFCURVE",
"1253 1444 OFFCURVE",
"1435 1475 CURVE",
"1435 1523 LINE",
"906 1523 LINE",
"906 1475 LINE",
"1021 1468 OFFCURVE",
"1071 1450 OFFCURVE",
"1071 1416 CURVE SMOOTH",
"1071 1400 OFFCURVE",
"1062 1379 OFFCURVE",
"1039 1356 CURVE SMOOTH",
"491 744 LINE",
"491 1437 LINE",
"666 1475 LINE",
"666 1523 LINE",
"88 1523 LINE",
"88 1475 LINE",
"266 1437 LINE",
"266 88 LINE",
"88 48 LINE",
"88 0 LINE"
);
}
);
width = 1556;
}
);
leftKerningGroup = I;
rightKerningGroup = K;
unicode = 004B;
},
{
glyphname = L;
layers = (
{
anchors = (
{
name = bottom;
position = "{737, 0}";
},
{
name = topcap;
position = "{441, 1643}";
}
);
layerId = "FA6D65B5-4623-4FAC-A199-3F662257AC29";
paths = (
{
closed = 1;
nodes = (
"1284 0 LINE",
"1368 463 LINE",
"1265 463 LINE",
"1215 328 OFFCURVE",
"1163 222 OFFCURVE",
"1084 113 CURVE",
"592 113 LINE",
"592 1412 LINE",
"778 1451 LINE",
"778 1523 LINE",
"83 1523 LINE",
"83 1451 LINE",
"252 1414 LINE",
"252 112 LINE",
"83 73 LINE",
"83 0 LINE"
);
}
);
width = 1383;
},
{
anchors = (
{
name = bottom;
position = "{690, 0}";
},
{
name = topcap;
position = "{386, 1643}";
}
);
layerId = "7C8D72FA-6E62-4564-8BB2-D9F9BC4EB15A";
paths = (
{
closed = 1;
nodes = (
"1202 0 LINE",
"1277 472 LINE",
"1218 472 LINE",
"1170 320 OFFCURVE",
"1122 204 OFFCURVE",
"1050 83 CURVE",
"489 83 LINE",
"489 1437 LINE",
"677 1475 LINE",
"677 1523 LINE",
"94 1523 LINE",
"94 1475 LINE",
"264 1437 LINE",
"264 88 LINE",
"94 48 LINE",
"94 0 LINE"
);
}
);
width = 1310;
},
{
anchors = (
{
name = bottom;
position = "{690, 0}";
},
{
name = topcap;
position = "{386, 1643}";
}
);
associatedMasterId = "7C8D72FA-6E62-4564-8BB2-D9F9BC4EB15A";
layerId = "8ADAAAC7-AFE5-484B-8331-91EA8B26E085";
name = "Jan 7 19, 12:26";
paths = (
{
closed = 1;
nodes = (
"1202 0 LINE",
"1277 472 LINE",
"1218 472 LINE",
"1173 342 OFFCURVE",
"1131 213 OFFCURVE",
"1050 83 CURVE",
"489 83 LINE",
"489 1437 LINE",
"677 1475 LINE",
"677 1523 LINE",
"94 1523 LINE",
"94 1475 LINE",
"264 1437 LINE",
"264 88 LINE",
"94 48 LINE",
"94 0 LINE"
);
}
);
width = 1310;
},
{
anchors = (
{
name = bottom;
position = "{737, 0}";
},
{
name = topcap;
position = "{441, 1643}";
}
);
associatedMasterId = "FA6D65B5-4623-4FAC-A199-3F662257AC29";
layerId = "6D7EE985-9BFD-4474-8ADC-B784C8159E61";
name = "Jan 7 19, 12:27";
paths = (
{
closed = 1;
nodes = (
"1284 0 LINE",
"1368 463 LINE",
"1265 463 LINE",
"1216 344 OFFCURVE",
"1170 229 OFFCURVE",
"1084 113 CURVE",
"592 113 LINE",
"592 1412 LINE",
"778 1451 LINE",
"778 1523 LINE",
"83 1523 LINE",
"83 1451 LINE",
"252 1414 LINE",
"252 112 LINE",
"83 73 LINE",
"83 0 LINE"
);
}
);
visible = 1;
width = 1383;
}
);
leftKerningGroup = I;
rightKerningGroup = L;
unicode = 004C;
},
{
glyphname = Lslash;
layers = (
{
components = (
{
name = L;
transform = "{1, 0, 0, 1, 2, 0}";
}
);
layerId = "FA6D65B5-4623-4FAC-A199-3F662257AC29";
paths = (
{
closed = 1;
nodes = (
"738 875 LINE",
"738 1063 LINE",
"120 735 LINE",
"120 547 LINE"
);
}
);
width = 1385;
},
{
associatedMasterId = "FA6D65B5-4623-4FAC-A199-3F662257AC29";
components = (
{
name = L;
transform = "{1, 0, 0, 1, 2, 0}";
}
);
layerId = "CBD44848-52BD-4DC5-BFA6-577546B7224D";
paths = (
{
closed = 1;
nodes = (
"663 898 LINE",
"663 1027 LINE",
"117 735 LINE",
"117 606 LINE"
);
}
);
width = 1300;
},
{
components = (
{
alignment = -1;
name = L;
transform = "{1, 0, 0, 1, 2, 0}";
}
);
layerId = "7C8D72FA-6E62-4564-8BB2-D9F9BC4EB15A";
paths = (
{
closed = 1;
nodes = (
"674 896 LINE",
"674 1032 LINE",
"117 735 LINE",
"117 598 LINE"
);
}
);
width = 1312;
}
);
leftKerningGroup = I;
rightKerningGroup = L;
unicode = 0141;
},
{
glyphname = M;
layers = (
{
layerId = "FA6D65B5-4623-4FAC-A199-3F662257AC29";
paths = (
{
closed = 1;
nodes = (
"1029 -21 LINE",
"1526 1176 LINE",
"1534 1176 LINE",
"1534 115 LINE",
"1366 73 LINE",
"1366 0 LINE",
"2040 0 LINE",
"2040 73 LINE",
"1875 115 LINE",
"1875 1412 LINE",
"2040 1451 LINE",
"2040 1523 LINE",
"1531 1523 LINE",
"1102 503 LINE",
"1090 503 LINE",
"679 1523 LINE",
"78 1523 LINE",
"78 1451 LINE",
"253 1414 LINE",
"253 112 LINE",
"77 73 LINE",
"77 0 LINE",
"564 0 LINE",
"564 73 LINE",
"390 112 LINE",
"390 1229 LINE",
"398 1229 LINE",
"935 -21 LINE"
);
}
);
width = 2123;
},
{
associatedMasterId = "FA6D65B5-4623-4FAC-A199-3F662257AC29";
layerId = "CBD44848-52BD-4DC5-BFA6-577546B7224D";
paths = (
{
closed = 1;
nodes = (
"960 -21 LINE",
"1521 1299 LINE",
"1529 1299 LINE",
"1529 83 LINE",
"1352 45 LINE",
"1352 0 LINE",
"1914 0 LINE",
"1914 45 LINE",
"1738 83 LINE",
"1738 1441 LINE",
"1914 1479 LINE",
"1914 1523 LINE",
"1500 1523 LINE",
"1008 351 LINE",
"997 351 LINE",
"504 1523 LINE",
"89 1523 LINE",
"89 1479 LINE",
"267 1441 LINE",
"267 83 LINE",
"89 45 LINE",
"89 0 LINE",
"523 0 LINE",
"523 45 LINE",
"347 83 LINE",
"347 1307 LINE",
"355 1307 LINE",
"906 -21 LINE"
);
}
);
width = 2002;
},
{
layerId = "7C8D72FA-6E62-4564-8BB2-D9F9BC4EB15A";
paths = (
{
closed = 1;
nodes = (
"970 -21 LINE",
"1522 1283 LINE",
"1530 1283 LINE",
"1530 88 LINE",
"1353 48 LINE",
"1353 0 LINE",
"1931 0 LINE",
"1931 48 LINE",
"1756 88 LINE",
"1756 1437 LINE",
"1931 1475 LINE",
"1931 1523 LINE",
"1504 1523 LINE",
"1020 371 LINE",
"1010 371 LINE",
"529 1523 LINE",
"88 1523 LINE",
"88 1475 LINE",
"266 1437 LINE",
"266 88 LINE",
"88 48 LINE",
"88 0 LINE",
"529 0 LINE",
"529 48 LINE",
"352 88 LINE",
"352 1297 LINE",
"360 1297 LINE",
"910 -21 LINE"
);
}
);
width = 2019;
}
);
leftKerningGroup = N;
rightKerningGroup = I;
unicode = 004D;
},
{
glyphname = N;
layers = (
{
anchors = (
{
name = bottom;
position = "{869, 0}";
},
{
name = topcap;
position = "{903, 1643}";
}
);
layerId = "FA6D65B5-4623-4FAC-A199-3F662257AC29";
paths = (
{
closed = 1;
nodes = (
"1500 -21 LINE",
"1500 1414 LINE",
"1677 1451 LINE",
"1677 1523 LINE",
"1189 1523 LINE",
"1189 1451 LINE",
"1365 1414 LINE",
"1365 584 LINE",
"615 1523 LINE",
"78 1523 LINE",
"78 1451 LINE",
"253 1414 LINE",
"253 112 LINE",
"77 73 LINE",
"77 0 LINE",
"564 0 LINE",
"564 73 LINE",
"390 112 LINE",
"390 1208 LINE",
"1365 -21 LINE"
);
}
);
width = 1738;
},
{
anchors = (
{
name = bottom;
position = "{801, 0}";
},
{
name = topcap;
position = "{829, 1643}";
}
);
associatedMasterId = "FA6D65B5-4623-4FAC-A199-3F662257AC29";
layerId = "CBD44848-52BD-4DC5-BFA6-577546B7224D";
paths = (
{
closed = 1;
nodes = (
"1383 -39 LINE",
"1383 1441 LINE",
"1561 1479 LINE",
"1561 1523 LINE",
"1127 1523 LINE",
"1127 1479 LINE",
"1305 1441 LINE",
"1305 404 LINE",
"489 1523 LINE",
"89 1523 LINE",
"89 1479 LINE",
"267 1441 LINE",
"267 83 LINE",
"89 45 LINE",
"89 0 LINE",
"523 0 LINE",
"523 45 LINE",
"347 83 LINE",
"347 1320 LINE",
"1322 -39 LINE"
);
}
);
width = 1639;
},
{
anchors = (
{
name = bottom;
position = "{811, 0}";
},
{
name = topcap;
position = "{838, 1643}";
}
);
layerId = "7C8D72FA-6E62-4564-8BB2-D9F9BC4EB15A";
paths = (
{
closed = 1;
nodes = (
"1399 -37 LINE",
"1399 1437 LINE",
"1578 1475 LINE",
"1578 1523 LINE",
"1137 1523 LINE",
"1137 1475 LINE",
"1313 1437 LINE",
"1313 427 LINE",
"506 1523 LINE",
"88 1523 LINE",
"88 1475 LINE",
"266 1437 LINE",
"266 88 LINE",
"88 48 LINE",
"88 0 LINE",
"529 0 LINE",
"529 48 LINE",
"352 88 LINE",
"352 1305 LINE",
"1328 -37 LINE"
);
}
);
width = 1651;
}
);
leftKerningGroup = N;
rightKerningGroup = N;
unicode = 004E;
},
{
glyphname = Eng;
layers = (
{
layerId = "FA6D65B5-4623-4FAC-A199-3F662257AC29";
paths = (
{
closed = 1;
nodes = (
"1419 515 LINE",
"615 1523 LINE",
"289 1523 LINE",
"279 1348 LINE",
"1365 -21 LINE"
);
},
{
closed = 1;
nodes = (
"1140 -515 OFFCURVE",
"1328 -425 OFFCURVE",
"1432 -260 CURVE",
"1490 -154 OFFCURVE",
"1500 -81 OFFCURVE",
"1500 307 CURVE",
"1160 307 LINE",
"1160 -85 LINE SMOOTH",
"1160 -299 OFFCURVE",
"1096 -402 OFFCURVE",
"1018 -402 CURVE SMOOTH",
"970 -402 OFFCURVE",
"936 -364 OFFCURVE",
"906 -275 CURVE SMOOTH",
"881 -204 OFFCURVE",
"843 -153 OFFCURVE",
"762 -153 CURVE SMOOTH",
"683 -153 OFFCURVE",
"620 -204 OFFCURVE",
"620 -303 CURVE SMOOTH",
"620 -432 OFFCURVE",
"740 -515 OFFCURVE",
"953 -515 CURVE SMOOTH"
);
},
{
closed = 1;
nodes = (
"564 0 LINE",
"564 73 LINE",
"390 112 LINE",
"390 1523 LINE",
"78 1523 LINE",
"78 1451 LINE",
"253 1414 LINE",
"253 112 LINE",
"77 73 LINE",
"77 0 LINE"
);
},
{
closed = 1;
nodes = (
"1500 276 LINE",
"1500 1414 LINE",
"1677 1451 LINE",
"1677 1523 LINE",
"1189 1523 LINE",
"1189 1451 LINE",
"1365 1414 LINE",
"1365 276 LINE"
);
}
);
width = 1736;
},
{
associatedMasterId = "FA6D65B5-4623-4FAC-A199-3F662257AC29";
layerId = "CBD44848-52BD-4DC5-BFA6-577546B7224D";
paths = (
{
closed = 1;
nodes = (
"1346 347 LINE",
"489 1523 LINE",
"302 1523 LINE",
"291 1398 LINE",
"1322 -39 LINE"
);
},
{
closed = 1;
nodes = (
"1067 -515 OFFCURVE",
"1224 -425 OFFCURVE",
"1316 -260 CURVE SMOOTH",
"1373 -154 OFFCURVE",
"1383 -81 OFFCURVE",
"1383 307 CURVE",
"1176 307 LINE",
"1176 -94 LINE SMOOTH",
"1176 -310 OFFCURVE",
"1104 -411 OFFCURVE",
"1013 -411 CURVE SMOOTH",
"962 -411 OFFCURVE",
"920 -380 OFFCURVE",
"892 -305 CURVE SMOOTH",
"871 -245 OFFCURVE",
"839 -214 OFFCURVE",
"784 -214 CURVE SMOOTH",
"713 -214 OFFCURVE",
"667 -264 OFFCURVE",
"667 -342 CURVE SMOOTH",
"667 -450 OFFCURVE",
"758 -515 OFFCURVE",
"904 -515 CURVE SMOOTH"
);
},
{
closed = 1;
nodes = (
"523 0 LINE",
"523 45 LINE",
"347 83 LINE",
"347 1523 LINE",
"89 1523 LINE",
"89 1479 LINE",
"267 1441 LINE",
"267 83 LINE",
"89 45 LINE",
"89 0 LINE"
);
},
{
closed = 1;
nodes = (
"1383 237 LINE",
"1383 1441 LINE",
"1561 1479 LINE",
"1561 1523 LINE",
"1127 1523 LINE",
"1127 1479 LINE",
"1305 1441 LINE",
"1305 237 LINE"
);
}
);
width = 1637;
},
{
layerId = "7C8D72FA-6E62-4564-8BB2-D9F9BC4EB15A";
paths = (
{
closed = 1;
nodes = (
"1355 368 LINE",
"506 1523 LINE",
"299 1523 LINE",
"289 1391 LINE",
"1328 -37 LINE"
);
},
{
closed = 1;
nodes = (
"1077 -515 OFFCURVE",
"1238 -425 OFFCURVE",
"1331 -260 CURVE SMOOTH",
"1389 -154 OFFCURVE",
"1399 -81 OFFCURVE",
"1399 307 CURVE",
"1173 307 LINE",
"1173 -93 LINE SMOOTH",
"1173 -307 OFFCURVE",
"1103 -410 OFFCURVE",
"1013 -410 CURVE SMOOTH",
"963 -410 OFFCURVE",
"922 -378 OFFCURVE",
"895 -301 CURVE SMOOTH",
"872 -240 OFFCURVE",
"839 -206 OFFCURVE",
"781 -206 CURVE SMOOTH",
"709 -206 OFFCURVE",
"661 -256 OFFCURVE",
"661 -336 CURVE SMOOTH",
"661 -448 OFFCURVE",
"755 -515 OFFCURVE",
"911 -515 CURVE SMOOTH"
);
},
{
closed = 1;
nodes = (
"529 0 LINE",
"529 48 LINE",
"352 88 LINE",
"352 1523 LINE",
"88 1523 LINE",
"88 1475 LINE",
"266 1437 LINE",
"266 88 LINE",
"88 48 LINE",
"88 0 LINE"
);
},
{
closed = 1;
nodes = (
"1399 243 LINE",
"1399 1437 LINE",
"1578 1475 LINE",
"1578 1523 LINE",
"1137 1523 LINE",
"1137 1475 LINE",
"1313 1437 LINE",
"1313 243 LINE"
);
}
);
width = 1650;
}
);
leftKerningGroup = N;
rightKerningGroup = N;
unicode = 014A;
},
{
glyphname = O;
layers = (
{
anchors = (
{
name = bottom;
position = "{860, 0}";
},
{
name = ogonekcurvecap;
position = "{1291, 94}";
},
{
name = topcap;
position = "{860, 1643}";
}
);
layerId = "FA6D65B5-4623-4FAC-A199-3F662257AC29";
paths = (
{
closed = 1;
nodes = (
"1356 -21 OFFCURVE",
"1631 333 OFFCURVE",
"1631 762 CURVE SMOOTH",
"1631 1192 OFFCURVE",
"1356 1544 OFFCURVE",
"859 1544 CURVE SMOOTH",
"364 1544 OFFCURVE",
"89 1192 OFFCURVE",
"89 762 CURVE SMOOTH",
"89 333 OFFCURVE",
"364 -21 OFFCURVE",
"859 -21 CURVE SMOOTH"
);
},
{
closed = 1;
nodes = (
"540 94 OFFCURVE",
"479 487 OFFCURVE",
"479 762 CURVE SMOOTH",
"479 1034 OFFCURVE",
"540 1424 OFFCURVE",
"859 1424 CURVE SMOOTH",
"1183 1424 OFFCURVE",
"1241 1034 OFFCURVE",
"1241 762 CURVE SMOOTH",
"1241 487 OFFCURVE",
"1179 94 OFFCURVE",
"859 94 CURVE SMOOTH"
);
}
);
width = 1719;
},
{
anchors = (
{
name = bottom;
position = "{829, 0}";
},
{
name = topcap;
position = "{829, 1643}";
}
);
associatedMasterId = "FA6D65B5-4623-4FAC-A199-3F662257AC29";
layerId = "CBD44848-52BD-4DC5-BFA6-577546B7224D";
paths = (
{
closed = 1;
nodes = (
"1237 -21 OFFCURVE",
"1546 317 OFFCURVE",
"1546 762 CURVE SMOOTH",
"1546 1208 OFFCURVE",
"1237 1544 OFFCURVE",
"828 1544 CURVE SMOOTH",
"417 1544 OFFCURVE",
"109 1208 OFFCURVE",
"109 762 CURVE SMOOTH",
"109 317 OFFCURVE",
"417 -21 OFFCURVE",
"828 -21 CURVE SMOOTH"
);
},
{
closed = 1;
nodes = (
"534 70 OFFCURVE",
"359 330 OFFCURVE",
"359 763 CURVE SMOOTH",
"359 1198 OFFCURVE",
"534 1455 OFFCURVE",
"829 1455 CURVE SMOOTH",
"1123 1455 OFFCURVE",
"1297 1200 OFFCURVE",
"1297 768 CURVE SMOOTH",
"1297 330 OFFCURVE",
"1120 70 OFFCURVE",
"828 70 CURVE SMOOTH"
);
}
);
width = 1655;
},
{
anchors = (
{
name = bottom;
position = "{833, 0}";
},
{
name = ogonekcurvecap;
position = "{1195, 77}";
},
{
name = topcap;
position = "{833, 1643}";
}
);
layerId = "7C8D72FA-6E62-4564-8BB2-D9F9BC4EB15A";
paths = (
{
closed = 1;
nodes = (
"1253 -21 OFFCURVE",
"1558 319 OFFCURVE",
"1558 762 CURVE SMOOTH",
"1558 1206 OFFCURVE",
"1253 1544 OFFCURVE",
"831 1544 CURVE SMOOTH",
"410 1544 OFFCURVE",
"106 1206 OFFCURVE",
"106 762 CURVE SMOOTH",
"106 319 OFFCURVE",
"410 -21 OFFCURVE",
"831 -21 CURVE SMOOTH"
);
},
{
closed = 1;
nodes = (
"535 73 OFFCURVE",
"374 351 OFFCURVE",
"374 763 CURVE SMOOTH",
"374 1176 OFFCURVE",
"535 1451 OFFCURVE",
"833 1451 CURVE SMOOTH",
"1131 1451 OFFCURVE",
"1290 1178 OFFCURVE",
"1290 767 CURVE SMOOTH",
"1290 351 OFFCURVE",
"1128 73 OFFCURVE",
"831 73 CURVE SMOOTH"
);
}
);
width = 1663;
}
);
leftKerningGroup = O;
rightKerningGroup = O;
unicode = 004F;
},
{
glyphname = Oslash;
layers = (
{
layerId = "FA6D65B5-4623-4FAC-A199-3F662257AC29";
paths = (
{
closed = 1;
nodes = (
"1354 -21 OFFCURVE",
"1628 333 OFFCURVE",
"1628 762 CURVE SMOOTH",
"1628 982 OFFCURVE",
"1556 1179 OFFCURVE",
"1419 1322 CURVE",
"1594 1523 LINE",
"1439 1523 LINE",
"1331 1399 LINE",
"1209 1489 OFFCURVE",
"1049 1544 OFFCURVE",
"857 1544 CURVE SMOOTH",
"362 1544 OFFCURVE",
"86 1192 OFFCURVE",
"86 762 CURVE SMOOTH",
"86 540 OFFCURVE",
"161 339 OFFCURVE",
"299 196 CURVE",
"130 0 LINE",
"283 0 LINE",
"386 120 LINE",
"508 31 OFFCURVE",
"667 -21 OFFCURVE",
"857 -21 CURVE SMOOTH"
);
},
{
closed = 1;
nodes = (
"702 94 OFFCURVE",
"607 185 OFFCURVE",
"552 312 CURVE",
"1208 1076 LINE",
"1231 972 OFFCURVE",
"1239 859 OFFCURVE",
"1239 762 CURVE SMOOTH",
"1239 487 OFFCURVE",
"1177 94 OFFCURVE",
"857 94 CURVE SMOOTH"
);
},
{
closed = 1;
nodes = (
"485 549 OFFCURVE",
"477 663 OFFCURVE",
"477 762 CURVE SMOOTH",
"477 1034 OFFCURVE",
"539 1424 OFFCURVE",
"857 1424 CURVE SMOOTH",
"1016 1424 OFFCURVE",
"1110 1331 OFFCURVE",
"1166 1206 CURVE",
"510 441 LINE"
);
}
);
width = 1716;
},
{
associatedMasterId = "FA6D65B5-4623-4FAC-A199-3F662257AC29";
layerId = "CBD44848-52BD-4DC5-BFA6-577546B7224D";
paths = (
{
closed = 1;
nodes = (
"1239 -21 OFFCURVE",
"1548 317 OFFCURVE",
"1548 762 CURVE SMOOTH",
"1548 980 OFFCURVE",
"1472 1172 OFFCURVE",
"1348 1310 CURVE",
"1531 1523 LINE",
"1421 1523 LINE",
"1289 1369 LINE",
"1166 1479 OFFCURVE",
"1008 1544 OFFCURVE",
"829 1544 CURVE SMOOTH",
"419 1544 OFFCURVE",
"112 1208 OFFCURVE",
"112 762 CURVE SMOOTH",
"112 549 OFFCURVE",
"182 359 OFFCURVE",
"302 219 CURVE",
"113 0 LINE",
"221 0 LINE",
"360 161 LINE",
"482 47 OFFCURVE",
"646 -21 OFFCURVE",
"829 -21 CURVE SMOOTH"
);
},
{
closed = 1;
nodes = (
"671 70 OFFCURVE",
"547 146 OFFCURVE",
"465 284 CURVE",
"1229 1172 LINE",
"1274 1063 OFFCURVE",
"1299 928 OFFCURVE",
"1299 768 CURVE SMOOTH",
"1299 330 OFFCURVE",
"1123 70 OFFCURVE",
"829 70 CURVE SMOOTH"
);
},
{
closed = 1;
nodes = (
"382 473 OFFCURVE",
"360 607 OFFCURVE",
"360 763 CURVE SMOOTH",
"360 1198 OFFCURVE",
"537 1455 OFFCURVE",
"831 1455 CURVE SMOOTH",
"985 1455 OFFCURVE",
"1107 1383 OFFCURVE",
"1187 1253 CURVE",
"425 366 LINE"
);
}
);
width = 1656;
},
{
layerId = "7C8D72FA-6E62-4564-8BB2-D9F9BC4EB15A";
paths = (
{
closed = 1;
nodes = (
"1254 -21 OFFCURVE",
"1558 319 OFFCURVE",
"1558 762 CURVE SMOOTH",
"1558 980 OFFCURVE",
"1483 1172 OFFCURVE",
"1358 1312 CURVE",
"1540 1523 LINE",
"1423 1523 LINE",
"1294 1374 LINE",
"1172 1480 OFFCURVE",
"1013 1544 OFFCURVE",
"833 1544 CURVE SMOOTH",
"412 1544 OFFCURVE",
"108 1206 OFFCURVE",
"108 762 CURVE SMOOTH",
"108 548 OFFCURVE",
"180 356 OFFCURVE",
"301 216 CURVE",
"115 0 LINE",
"230 0 LINE",
"363 155 LINE",
"486 45 OFFCURVE",
"648 -21 OFFCURVE",
"833 -21 CURVE SMOOTH"
);
},
{
closed = 1;
nodes = (
"676 73 OFFCURVE",
"555 152 OFFCURVE",
"477 288 CURVE",
"1226 1158 LINE",
"1268 1050 OFFCURVE",
"1291 919 OFFCURVE",
"1291 767 CURVE SMOOTH",
"1291 351 OFFCURVE",
"1130 73 OFFCURVE",
"833 73 CURVE SMOOTH"
);
},
{
closed = 1;
nodes = (
"396 484 OFFCURVE",
"375 615 OFFCURVE",
"375 763 CURVE SMOOTH",
"375 1176 OFFCURVE",
"537 1451 OFFCURVE",
"835 1451 CURVE SMOOTH",
"989 1451 OFFCURVE",
"1107 1376 OFFCURVE",
"1185 1246 CURVE",
"436 377 LINE"
);
}
);
width = 1664;
}
);
leftKerningGroup = O;
rightKerningGroup = O;
unicode = 00D8;
},
{
glyphname = Oslashacute;
layers = (
{
components = (
{
name = acute.cap;
transform = "{1, 0, 0, 1, 625, 0}";
}
);
layerId = "FA6D65B5-4623-4FAC-A199-3F662257AC29";
paths = (
{
closed = 1;
nodes = (
"1354 -21 OFFCURVE",
"1628 333 OFFCURVE",
"1628 762 CURVE SMOOTH",
"1628 982 OFFCURVE",
"1556 1179 OFFCURVE",
"1419 1322 CURVE",
"1594 1523 LINE",
"1439 1523 LINE",
"1331 1399 LINE",
"1209 1489 OFFCURVE",
"1049 1544 OFFCURVE",
"857 1544 CURVE SMOOTH",
"362 1544 OFFCURVE",
"86 1192 OFFCURVE",
"86 762 CURVE SMOOTH",
"86 540 OFFCURVE",
"161 339 OFFCURVE",
"299 196 CURVE",
"130 0 LINE",
"283 0 LINE",
"386 120 LINE",
"508 31 OFFCURVE",
"667 -21 OFFCURVE",
"857 -21 CURVE SMOOTH"
);
},
{
closed = 1;
nodes = (
"702 94 OFFCURVE",
"607 185 OFFCURVE",
"552 312 CURVE",
"1208 1076 LINE",
"1231 972 OFFCURVE",
"1239 859 OFFCURVE",
"1239 762 CURVE SMOOTH",
"1239 487 OFFCURVE",
"1177 94 OFFCURVE",
"857 94 CURVE SMOOTH"
);
},
{
closed = 1;
nodes = (
"485 549 OFFCURVE",
"477 663 OFFCURVE",
"477 762 CURVE SMOOTH",
"477 1034 OFFCURVE",
"539 1424 OFFCURVE",
"857 1424 CURVE SMOOTH",
"1016 1424 OFFCURVE",
"1110 1331 OFFCURVE",
"1166 1206 CURVE",
"510 441 LINE"
);
}
);
width = 1716;
},
{
associatedMasterId = "FA6D65B5-4623-4FAC-A199-3F662257AC29";
components = (
{
name = acute.cap;
transform = "{1, 0, 0, 1, 607, 0}";
}
);
layerId = "CBD44848-52BD-4DC5-BFA6-577546B7224D";
paths = (
{
closed = 1;
nodes = (
"1239 -21 OFFCURVE",
"1548 317 OFFCURVE",
"1548 762 CURVE SMOOTH",
"1548 980 OFFCURVE",
"1472 1172 OFFCURVE",
"1348 1310 CURVE",
"1531 1523 LINE",
"1421 1523 LINE",
"1289 1369 LINE",
"1166 1479 OFFCURVE",
"1008 1544 OFFCURVE",
"829 1544 CURVE SMOOTH",
"419 1544 OFFCURVE",
"112 1208 OFFCURVE",
"112 762 CURVE SMOOTH",
"112 549 OFFCURVE",
"182 359 OFFCURVE",
"302 219 CURVE",
"113 0 LINE",
"221 0 LINE",
"360 161 LINE",
"482 47 OFFCURVE",
"646 -21 OFFCURVE",
"829 -21 CURVE SMOOTH"
);
},
{
closed = 1;
nodes = (
"671 70 OFFCURVE",
"547 146 OFFCURVE",
"465 284 CURVE",
"1229 1172 LINE",
"1274 1063 OFFCURVE",
"1299 928 OFFCURVE",
"1299 768 CURVE SMOOTH",
"1299 330 OFFCURVE",
"1123 70 OFFCURVE",
"829 70 CURVE SMOOTH"
);
},
{
closed = 1;
nodes = (
"382 473 OFFCURVE",
"360 607 OFFCURVE",
"360 763 CURVE SMOOTH",
"360 1198 OFFCURVE",
"537 1455 OFFCURVE",
"831 1455 CURVE SMOOTH",
"985 1455 OFFCURVE",
"1107 1383 OFFCURVE",
"1187 1253 CURVE",
"425 366 LINE"
);
}
);
width = 1656;
},
{
components = (
{
alignment = -1;
name = acute.cap;
transform = "{1, 0, 0, 1, 609, 0}";
}
);
layerId = "7C8D72FA-6E62-4564-8BB2-D9F9BC4EB15A";
paths = (
{
closed = 1;
nodes = (
"1254 -21 OFFCURVE",
"1558 319 OFFCURVE",
"1558 762 CURVE SMOOTH",
"1558 980 OFFCURVE",
"1483 1172 OFFCURVE",
"1358 1312 CURVE",
"1540 1523 LINE",
"1423 1523 LINE",
"1294 1374 LINE",
"1172 1480 OFFCURVE",
"1013 1544 OFFCURVE",
"833 1544 CURVE SMOOTH",
"412 1544 OFFCURVE",
"108 1206 OFFCURVE",
"108 762 CURVE SMOOTH",
"108 548 OFFCURVE",
"180 356 OFFCURVE",
"301 216 CURVE",
"115 0 LINE",
"230 0 LINE",
"363 155 LINE",
"486 45 OFFCURVE",
"648 -21 OFFCURVE",
"833 -21 CURVE SMOOTH"
);
},
{
closed = 1;
nodes = (
"676 73 OFFCURVE",
"555 152 OFFCURVE",
"477 288 CURVE",
"1226 1158 LINE",
"1268 1050 OFFCURVE",
"1291 919 OFFCURVE",
"1291 767 CURVE SMOOTH",
"1291 351 OFFCURVE",
"1130 73 OFFCURVE",
"833 73 CURVE SMOOTH"
);
},
{
closed = 1;
nodes = (
"396 484 OFFCURVE",
"375 615 OFFCURVE",
"375 763 CURVE SMOOTH",
"375 1176 OFFCURVE",
"537 1451 OFFCURVE",
"835 1451 CURVE SMOOTH",
"989 1451 OFFCURVE",
"1107 1376 OFFCURVE",
"1185 1246 CURVE",
"436 377 LINE"
);
}
);
width = 1664;
}
);
leftKerningGroup = O;
rightKerningGroup = O;
unicode = 01FE;
},
{
glyphname = OE;
layers = (
{
components = (
{
name = E;
transform = "{1, 0, 0, 1, 873, 0}";
}
);
layerId = "FA6D65B5-4623-4FAC-A199-3F662257AC29";
paths = (
{
closed = 1;
nodes = (
"1041 -21 OFFCURVE",
"1192 28 OFFCURVE",
"1313 109 CURVE",
"1146 234 LINE",
"1088 153 OFFCURVE",
"997 94 OFFCURVE",
"859 94 CURVE SMOOTH",
"540 94 OFFCURVE",
"479 487 OFFCURVE",
"479 762 CURVE SMOOTH",
"479 1034 OFFCURVE",
"540 1424 OFFCURVE",
"859 1424 CURVE SMOOTH",
"1011 1424 OFFCURVE",
"1104 1356 OFFCURVE",
"1160 1261 CURVE",
"1325 1407 LINE",
"1203 1495 OFFCURVE",
"1047 1544 OFFCURVE",
"859 1544 CURVE SMOOTH",
"364 1544 OFFCURVE",
"89 1192 OFFCURVE",
"89 762 CURVE SMOOTH",
"89 333 OFFCURVE",
"364 -21 OFFCURVE",
"859 -21 CURVE SMOOTH"
);
}
);
width = 2320;
},
{
associatedMasterId = "FA6D65B5-4623-4FAC-A199-3F662257AC29";
components = (
{
name = E;
transform = "{1, 0, 0, 1, 898, 0}";
}
);
layerId = "CBD44848-52BD-4DC5-BFA6-577546B7224D";
paths = (
{
closed = 1;
nodes = (
"985 -21 OFFCURVE",
"1143 13 OFFCURVE",
"1253 63 CURVE",
"1176 203 LINE",
"1099 120 OFFCURVE",
"972 70 OFFCURVE",
"837 70 CURVE SMOOTH",
"534 70 OFFCURVE",
"359 322 OFFCURVE",
"359 763 CURVE SMOOTH",
"359 1203 OFFCURVE",
"532 1455 OFFCURVE",
"839 1455 CURVE SMOOTH",
"1000 1455 OFFCURVE",
"1135 1385 OFFCURVE",
"1211 1267 CURVE",
"1267 1449 LINE",
"1152 1506 OFFCURVE",
"989 1544 OFFCURVE",
"845 1544 CURVE SMOOTH",
"417 1544 OFFCURVE",
"109 1217 OFFCURVE",
"109 762 CURVE SMOOTH",
"109 307 OFFCURVE",
"417 -21 OFFCURVE",
"845 -21 CURVE SMOOTH"
);
}
);
width = 2268;
},
{
components = (
{
alignment = -1;
name = E;
transform = "{1, 0, 0, 1, 895, 0}";
}
);
layerId = "7C8D72FA-6E62-4564-8BB2-D9F9BC4EB15A";
paths = (
{
closed = 1;
nodes = (
"993 -21 OFFCURVE",
"1150 15 OFFCURVE",
"1261 69 CURVE",
"1171 206 LINE",
"1097 123 OFFCURVE",
"975 73 OFFCURVE",
"839 73 CURVE SMOOTH",
"535 73 OFFCURVE",
"374 344 OFFCURVE",
"374 763 CURVE SMOOTH",
"374 1180 OFFCURVE",
"533 1451 OFFCURVE",
"842 1451 CURVE SMOOTH",
"1001 1451 OFFCURVE",
"1132 1382 OFFCURVE",
"1204 1265 CURVE",
"1275 1443 LINE",
"1158 1504 OFFCURVE",
"997 1544 OFFCURVE",
"848 1544 CURVE SMOOTH",
"410 1544 OFFCURVE",
"106 1214 OFFCURVE",
"106 762 CURVE SMOOTH",
"106 311 OFFCURVE",
"410 -21 OFFCURVE",
"848 -21 CURVE SMOOTH"
);
}
);
width = 2275;
}
);
leftKerningGroup = O;
rightKerningGroup = E;
unicode = 0152;
},
{
glyphname = P;
layers = (
{
layerId = "FA6D65B5-4623-4FAC-A199-3F662257AC29";
paths = (
{
closed = 1;
nodes = (
"839 0 LINE",
"839 73 LINE",
"592 117 LINE",
"592 633 LINE",
"710 633 LINE SMOOTH",
"1101 633 OFFCURVE",
"1323 793 OFFCURVE",
"1323 1073 CURVE SMOOTH",
"1323 1350 OFFCURVE",
"1099 1523 OFFCURVE",
"743 1523 CURVE SMOOTH",
"83 1523 LINE",
"83 1451 LINE",
"252 1409 LINE",
"252 117 LINE",
"83 73 LINE",
"83 0 LINE"
);
},
{
closed = 1;
nodes = (
"592 1416 LINE",
"641 1416 LINE SMOOTH",
"762 1416 OFFCURVE",
"837 1396 OFFCURVE",
"887 1346 CURVE SMOOTH",
"936 1297 OFFCURVE",
"962 1211 OFFCURVE",
"962 1090 CURVE SMOOTH",
"962 962 OFFCURVE",
"935 879 OFFCURVE",
"873 821 CURVE SMOOTH",
"813 766 OFFCURVE",
"729 740 OFFCURVE",
"606 740 CURVE SMOOTH",
"592 740 LINE"
);
}
);
width = 1373;
},
{
associatedMasterId = "FA6D65B5-4623-4FAC-A199-3F662257AC29";
layerId = "CBD44848-52BD-4DC5-BFA6-577546B7224D";
paths = (
{
closed = 1;
nodes = (
"698 0 LINE",
"698 45 LINE",
"473 83 LINE",
"473 653 LINE",
"683 653 LINE SMOOTH",
"1027 653 OFFCURVE",
"1241 799 OFFCURVE",
"1241 1071 CURVE SMOOTH",
"1241 1365 OFFCURVE",
"1024 1523 OFFCURVE",
"713 1523 CURVE SMOOTH",
"97 1523 LINE",
"97 1479 LINE",
"265 1441 LINE",
"265 83 LINE",
"97 45 LINE",
"97 0 LINE"
);
},
{
closed = 1;
nodes = (
"473 1445 LINE",
"655 1445 LINE SMOOTH",
"737 1445 OFFCURVE",
"788 1439 OFFCURVE",
"831 1421 CURVE SMOOTH",
"945 1375 OFFCURVE",
"1013 1261 OFFCURVE",
"1013 1090 CURVE SMOOTH",
"1013 997 OFFCURVE",
"994 906 OFFCURVE",
"935 837 CURVE SMOOTH",
"877 770 OFFCURVE",
"788 730 OFFCURVE",
"622 730 CURVE SMOOTH",
"473 730 LINE"
);
}
);
width = 1313;
},
{
layerId = "7C8D72FA-6E62-4564-8BB2-D9F9BC4EB15A";
paths = (
{
closed = 1;
nodes = (
"717 0 LINE",
"717 48 LINE",
"489 88 LINE",
"489 651 LINE",
"686 651 LINE SMOOTH",
"1036 651 OFFCURVE",
"1253 799 OFFCURVE",
"1253 1071 CURVE SMOOTH",
"1253 1362 OFFCURVE",
"1033 1523 OFFCURVE",
"717 1523 CURVE SMOOTH",
"94 1523 LINE",
"94 1475 LINE",
"264 1436 LINE",
"264 88 LINE",
"94 48 LINE",
"94 0 LINE"
);
},
{
closed = 1;
nodes = (
"489 1442 LINE",
"654 1442 LINE SMOOTH",
"740 1442 OFFCURVE",
"793 1434 OFFCURVE",
"838 1412 CURVE SMOOTH",
"944 1365 OFFCURVE",
"1006 1254 OFFCURVE",
"1006 1090 CURVE SMOOTH",
"1006 993 OFFCURVE",
"986 903 OFFCURVE",
"926 835 CURVE SMOOTH",
"868 769 OFFCURVE",
"780 731 OFFCURVE",
"620 731 CURVE SMOOTH",
"489 731 LINE"
);
}
);
width = 1321;
}
);
leftKerningGroup = I;
unicode = 0050;
},
{
glyphname = Thorn;
layers = (
{
layerId = "FA6D65B5-4623-4FAC-A199-3F662257AC29";
paths = (
{
closed = 1;
nodes = (
"839 0 LINE",
"839 73 LINE",
"592 117 LINE",
"592 322 LINE",
"710 322 LINE SMOOTH",
"1101 322 OFFCURVE",
"1323 482 OFFCURVE",
"1323 762 CURVE SMOOTH",
"1323 1039 OFFCURVE",
"1099 1214 OFFCURVE",
"743 1214 CURVE SMOOTH",
"592 1214 LINE",
"592 1407 LINE",
"839 1451 LINE",
"839 1523 LINE",
"83 1523 LINE",
"83 1451 LINE",
"252 1407 LINE",
"252 117 LINE",
"83 73 LINE",
"83 0 LINE"
);
},
{
closed = 1;
nodes = (
"592 1107 LINE",
"641 1107 LINE SMOOTH",
"762 1107 OFFCURVE",
"837 1084 OFFCURVE",
"887 1034 CURVE SMOOTH",
"936 985 OFFCURVE",
"962 900 OFFCURVE",
"962 780 CURVE SMOOTH",
"962 651 OFFCURVE",
"935 568 OFFCURVE",
"873 510 CURVE SMOOTH",
"813 456 OFFCURVE",
"729 430 OFFCURVE",
"606 430 CURVE SMOOTH",
"592 430 LINE"
);
}
);
width = 1377;
},
{
associatedMasterId = "FA6D65B5-4623-4FAC-A199-3F662257AC29";
layerId = "CBD44848-52BD-4DC5-BFA6-577546B7224D";
paths = (
{
closed = 1;
nodes = (
"698 0 LINE",
"698 45 LINE",
"473 83 LINE",
"473 330 LINE",
"683 330 LINE SMOOTH",
"1027 330 OFFCURVE",
"1241 477 OFFCURVE",
"1241 747 CURVE SMOOTH",
"1241 1041 OFFCURVE",
"1024 1201 OFFCURVE",
"713 1201 CURVE SMOOTH",
"473 1201 LINE",
"473 1441 LINE",
"698 1479 LINE",
"698 1523 LINE",
"97 1523 LINE",
"97 1479 LINE",
"265 1441 LINE",
"265 83 LINE",
"97 45 LINE",
"97 0 LINE"
);
},
{
closed = 1;
nodes = (
"473 1123 LINE",
"655 1123 LINE SMOOTH",
"737 1123 OFFCURVE",
"788 1117 OFFCURVE",
"831 1099 CURVE SMOOTH",
"945 1052 OFFCURVE",
"1013 937 OFFCURVE",
"1013 768 CURVE SMOOTH",
"1013 675 OFFCURVE",
"994 584 OFFCURVE",
"935 515 CURVE SMOOTH",
"877 448 OFFCURVE",
"788 408 OFFCURVE",
"622 408 CURVE SMOOTH",
"473 408 LINE"
);
}
);
width = 1316;
},
{
layerId = "7C8D72FA-6E62-4564-8BB2-D9F9BC4EB15A";
paths = (
{
closed = 1;
nodes = (
"717 0 LINE",
"717 48 LINE",
"489 88 LINE",
"489 329 LINE",
"686 329 LINE SMOOTH",
"1036 329 OFFCURVE",
"1253 478 OFFCURVE",
"1253 750 CURVE SMOOTH",
"1253 1041 OFFCURVE",
"1033 1202 OFFCURVE",
"717 1202 CURVE SMOOTH",
"489 1202 LINE",
"489 1436 LINE",
"717 1475 LINE",
"717 1523 LINE",
"94 1523 LINE",
"94 1475 LINE",
"264 1436 LINE",
"264 88 LINE",
"94 48 LINE",
"94 0 LINE"
);
},
{
closed = 1;
nodes = (
"489 1120 LINE",
"654 1120 LINE SMOOTH",
"740 1120 OFFCURVE",
"793 1112 OFFCURVE",
"838 1090 CURVE SMOOTH",
"944 1043 OFFCURVE",
"1006 933 OFFCURVE",
"1006 769 CURVE SMOOTH",
"1006 671 OFFCURVE",
"986 582 OFFCURVE",
"926 515 CURVE SMOOTH",
"868 449 OFFCURVE",
"780 411 OFFCURVE",
"620 411 CURVE SMOOTH",
"489 411 LINE"
);
}
);
width = 1324;
}
);
leftKerningGroup = I;
unicode = 00DE;
},
{
glyphname = Q;
layers = (
{
layerId = "FA6D65B5-4623-4FAC-A199-3F662257AC29";
paths = (
{
closed = 1;
nodes = (
"590 -386 OFFCURVE",
"651 -326 OFFCURVE",
"651 -250 CURVE SMOOTH",
"651 -195 OFFCURVE",
"614 -169 OFFCURVE",
"614 -127 CURVE SMOOTH",
"614 -73 OFFCURVE",
"663 -44 OFFCURVE",
"730 -44 CURVE SMOOTH",
"824 -44 OFFCURVE",
"891 -85 OFFCURVE",
"1006 -212 CURVE SMOOTH",
"1123 -341 OFFCURVE",
"1194 -383 OFFCURVE",
"1291 -383 CURVE SMOOTH",
"1435 -383 OFFCURVE",
"1586 -276 OFFCURVE",
"1672 -68 CURVE",
"1612 -28 LINE",
"1550 -91 OFFCURVE",
"1487 -113 OFFCURVE",
"1406 -113 CURVE SMOOTH",
"1261 -113 OFFCURVE",
"1123 -41 OFFCURVE",
"1024 -10 CURVE",
"1024 -2 LINE",
"1412 70 OFFCURVE",
"1631 383 OFFCURVE",
"1631 762 CURVE SMOOTH",
"1631 1192 OFFCURVE",
"1356 1544 OFFCURVE",
"859 1544 CURVE SMOOTH",
"364 1544 OFFCURVE",
"89 1192 OFFCURVE",
"89 762 CURVE SMOOTH",
"89 419 OFFCURVE",
"273 127 OFFCURVE",
"594 22 CURVE",
"594 14 LINE",
"456 -41 OFFCURVE",
"370 -127 OFFCURVE",
"370 -234 CURVE SMOOTH",
"370 -320 OFFCURVE",
"425 -386 OFFCURVE",
"508 -386 CURVE SMOOTH"
);
},
{
closed = 1;
nodes = (
"540 75 OFFCURVE",
"479 479 OFFCURVE",
"479 758 CURVE SMOOTH",
"479 1033 OFFCURVE",
"539 1424 OFFCURVE",
"861 1424 CURVE SMOOTH",
"1183 1424 OFFCURVE",
"1241 1033 OFFCURVE",
"1241 762 CURVE SMOOTH",
"1241 479 OFFCURVE",
"1179 75 OFFCURVE",
"859 75 CURVE SMOOTH"
);
}
);
width = 1719;
},
{
associatedMasterId = "FA6D65B5-4623-4FAC-A199-3F662257AC29";
layerId = "CBD44848-52BD-4DC5-BFA6-577546B7224D";
paths = (
{
closed = 1;
nodes = (
"564 -317 OFFCURVE",
"607 -275 OFFCURVE",
"607 -218 CURVE SMOOTH",
"607 -168 OFFCURVE",
"573 -159 OFFCURVE",
"573 -113 CURVE SMOOTH",
"573 -63 OFFCURVE",
"611 -24 OFFCURVE",
"697 -24 CURVE SMOOTH",
"930 -24 OFFCURVE",
"1000 -325 OFFCURVE",
"1247 -325 CURVE SMOOTH",
"1383 -325 OFFCURVE",
"1518 -234 OFFCURVE",
"1599 -47 CURVE",
"1546 -28 LINE",
"1492 -99 OFFCURVE",
"1441 -132 OFFCURVE",
"1352 -132 CURVE SMOOTH",
"1187 -132 OFFCURVE",
"1063 -25 OFFCURVE",
"928 6 CURVE",
"928 14 LINE",
"1297 44 OFFCURVE",
"1546 367 OFFCURVE",
"1546 762 CURVE SMOOTH",
"1546 1208 OFFCURVE",
"1237 1544 OFFCURVE",
"828 1544 CURVE SMOOTH",
"417 1544 OFFCURVE",
"109 1208 OFFCURVE",
"109 762 CURVE SMOOTH",
"109 402 OFFCURVE",
"317 101 OFFCURVE",
"625 33 CURVE",
"625 25 LINE",
"491 -25 OFFCURVE",
"408 -113 OFFCURVE",
"408 -208 CURVE SMOOTH",
"408 -273 OFFCURVE",
"448 -317 OFFCURVE",
"507 -317 CURVE SMOOTH"
);
},
{
closed = 1;
nodes = (
"534 70 OFFCURVE",
"359 330 OFFCURVE",
"359 763 CURVE SMOOTH",
"359 1198 OFFCURVE",
"534 1455 OFFCURVE",
"829 1455 CURVE SMOOTH",
"1123 1455 OFFCURVE",
"1297 1200 OFFCURVE",
"1297 766 CURVE SMOOTH",
"1297 330 OFFCURVE",
"1120 70 OFFCURVE",
"828 70 CURVE SMOOTH"
);
}
);
width = 1655;
},
{
layerId = "7C8D72FA-6E62-4564-8BB2-D9F9BC4EB15A";
paths = (
{
closed = 1;
nodes = (
"568 -326 OFFCURVE",
"613 -282 OFFCURVE",
"613 -222 CURVE SMOOTH",
"613 -175 OFFCURVE",
"579 -158 OFFCURVE",
"579 -114 CURVE SMOOTH",
"579 -64 OFFCURVE",
"618 -26 OFFCURVE",
"701 -26 CURVE SMOOTH",
"789 -26 OFFCURVE",
"856 -64 OFFCURVE",
"970 -176 CURVE SMOOTH",
"1048 -254 OFFCURVE",
"1127 -333 OFFCURVE",
"1253 -333 CURVE SMOOTH",
"1390 -333 OFFCURVE",
"1527 -240 OFFCURVE",
"1609 -50 CURVE",
"1555 -28 LINE",
"1500 -98 OFFCURVE",
"1446 -130 OFFCURVE",
"1359 -130 CURVE SMOOTH",
"1202 -130 OFFCURVE",
"1070 -29 OFFCURVE",
"941 3 CURVE",
"941 12 LINE",
"1312 47 OFFCURVE",
"1558 370 OFFCURVE",
"1558 762 CURVE SMOOTH",
"1558 1206 OFFCURVE",
"1253 1544 OFFCURVE",
"831 1544 CURVE SMOOTH",
"410 1544 OFFCURVE",
"106 1206 OFFCURVE",
"106 762 CURVE SMOOTH",
"106 404 OFFCURVE",
"311 105 OFFCURVE",
"621 32 CURVE",
"621 24 LINE",
"486 -28 OFFCURVE",
"403 -114 OFFCURVE",
"403 -212 CURVE SMOOTH",
"403 -280 OFFCURVE",
"444 -326 OFFCURVE",
"508 -326 CURVE SMOOTH"
);
},
{
closed = 1;
nodes = (
"535 70 OFFCURVE",
"374 350 OFFCURVE",
"374 762 CURVE SMOOTH",
"374 1176 OFFCURVE",
"534 1451 OFFCURVE",
"834 1451 CURVE SMOOTH",
"1131 1451 OFFCURVE",
"1290 1178 OFFCURVE",
"1290 766 CURVE SMOOTH",
"1290 350 OFFCURVE",
"1128 70 OFFCURVE",
"831 70 CURVE SMOOTH"
);
}
);
width = 1663;
}
);
leftKerningGroup = O;
rightKerningGroup = O;
unicode = 0051;
},
{
glyphname = R;
layers = (
{
anchors = (
{
name = bottom;
position = "{862, 0}";
},
{
name = topcap;
position = "{717, 1643}";
}
);
layerId = "FA6D65B5-4623-4FAC-A199-3F662257AC29";
paths = (
{
closed = 1;
nodes = (
"818 0 LINE",
"818 73 LINE",
"592 117 LINE",
"592 663 LINE",
"672 663 LINE",
"1071 0 LINE",
"1611 0 LINE",
"1611 73 LINE",
"1430 112 LINE",
"1049 705 LINE",
"1224 768 OFFCURVE",
"1325 898 OFFCURVE",
"1325 1090 CURVE SMOOTH",
"1325 1371 OFFCURVE",
"1109 1523 OFFCURVE",
"797 1523 CURVE SMOOTH",
"83 1523 LINE",
"83 1451 LINE",
"252 1409 LINE",
"252 117 LINE",
"83 73 LINE",
"83 0 LINE"
);
},
{
closed = 1;
nodes = (
"592 1416 LINE",
"633 1416 LINE SMOOTH",
"714 1416 OFFCURVE",
"762 1409 OFFCURVE",
"807 1391 CURVE SMOOTH",
"909 1350 OFFCURVE",
"980 1253 OFFCURVE",
"980 1110 CURVE SMOOTH",
"980 1026 OFFCURVE",
"958 942 OFFCURVE",
"900 877 CURVE SMOOTH",
"845 812 OFFCURVE",
"763 770 OFFCURVE",
"620 770 CURVE SMOOTH",
"592 770 LINE"
);
}
);
width = 1540;
},
{
anchors = (
{
name = bottom;
position = "{784, 0}";
},
{
name = topcap;
position = "{729, 1643}";
}
);
associatedMasterId = "FA6D65B5-4623-4FAC-A199-3F662257AC29";
layerId = "CBD44848-52BD-4DC5-BFA6-577546B7224D";
paths = (
{
closed = 1;
nodes = (
"698 0 LINE",
"698 45 LINE",
"473 83 LINE",
"473 693 LINE",
"663 693 LINE",
"1107 0 LINE",
"1536 0 LINE",
"1536 45 LINE",
"1310 83 LINE",
"888 716 LINE",
"1099 766 OFFCURVE",
"1222 892 OFFCURVE",
"1222 1090 CURVE SMOOTH",
"1222 1371 OFFCURVE",
"1003 1523 OFFCURVE",
"693 1523 CURVE SMOOTH",
"97 1523 LINE",
"97 1479 LINE",
"265 1441 LINE",
"265 83 LINE",
"97 45 LINE",
"97 0 LINE"
);
},
{
closed = 1;
nodes = (
"473 1445 LINE",
"636 1445 LINE SMOOTH",
"716 1445 OFFCURVE",
"766 1439 OFFCURVE",
"812 1421 CURVE SMOOTH",
"927 1375 OFFCURVE",
"994 1271 OFFCURVE",
"994 1110 CURVE SMOOTH",
"994 1026 OFFCURVE",
"972 942 OFFCURVE",
"914 877 CURVE SMOOTH",
"854 812 OFFCURVE",
"768 770 OFFCURVE",
"601 770 CURVE SMOOTH",
"473 770 LINE"
);
}
);
width = 1451;
},
{
anchors = (
{
name = bottom;
position = "{795, 0}";
},
{
name = topcap;
position = "{728, 1643}";
}
);
layerId = "7C8D72FA-6E62-4564-8BB2-D9F9BC4EB15A";
paths = (
{
closed = 1;
nodes = (
"714 0 LINE",
"714 48 LINE",
"489 88 LINE",
"489 689 LINE",
"664 689 LINE",
"1102 0 LINE",
"1546 0 LINE",
"1546 48 LINE",
"1327 88 LINE",
"910 715 LINE",
"1116 766 OFFCURVE",
"1236 894 OFFCURVE",
"1236 1090 CURVE SMOOTH",
"1236 1371 OFFCURVE",
"1017 1523 OFFCURVE",
"707 1523 CURVE SMOOTH",
"94 1523 LINE",
"94 1475 LINE",
"264 1436 LINE",
"264 88 LINE",
"94 48 LINE",
"94 0 LINE"
);
},
{
closed = 1;
nodes = (
"489 1442 LINE",
"634 1442 LINE SMOOTH",
"716 1442 OFFCURVE",
"766 1435 OFFCURVE",
"812 1417 CURVE SMOOTH",
"925 1371 OFFCURVE",
"993 1268 OFFCURVE",
"993 1110 CURVE SMOOTH",
"993 1026 OFFCURVE",
"970 942 OFFCURVE",
"912 877 CURVE SMOOTH",
"853 812 OFFCURVE",
"767 770 OFFCURVE",
"605 770 CURVE SMOOTH",
"489 770 LINE"
);
}
);
width = 1462;
}
);
leftKerningGroup = I;
rightKerningGroup = R;
unicode = 0052;
},
{
glyphname = S;
layers = (
{
anchors = (
{
name = bottom;
position = "{645, 0}";
},
{
name = topcap;
position = "{644, 1643}";
}
);
layerId = "FA6D65B5-4623-4FAC-A199-3F662257AC29";
paths = (
{
closed = 1;
nodes = (
"945 -18 OFFCURVE",
"1179 176 OFFCURVE",
"1179 432 CURVE SMOOTH",
"1179 646 OFFCURVE",
"1077 791 OFFCURVE",
"826 919 CURVE SMOOTH",
"668 1000 LINE SMOOTH",
"500 1085 OFFCURVE",
"440 1148 OFFCURVE",
"440 1239 CURVE SMOOTH",
"440 1356 OFFCURVE",
"520 1427 OFFCURVE",
"656 1427 CURVE SMOOTH",
"849 1427 OFFCURVE",
"974 1313 OFFCURVE",
"1039 1088 CURVE",
"1126 1088 LINE",
"1107 1526 LINE",
"1041 1526 LINE",
"994 1421 LINE",
"895 1505 OFFCURVE",
"782 1544 OFFCURVE",
"646 1544 CURVE SMOOTH",
"357 1544 OFFCURVE",
"138 1368 OFFCURVE",
"138 1126 CURVE SMOOTH",
"138 917 OFFCURVE",
"256 765 OFFCURVE",
"518 636 CURVE SMOOTH",
"679 556 LINE SMOOTH",
"850 473 OFFCURVE",
"912 406 OFFCURVE",
"912 322 CURVE SMOOTH",
"912 182 OFFCURVE",
"805 97 OFFCURVE",
"638 97 CURVE SMOOTH",
"404 97 OFFCURVE",
"273 223 OFFCURVE",
"188 520 CURVE",
"105 507 LINE",
"144 0 LINE",
"206 0 LINE",
"275 81 LINE",
"408 13 OFFCURVE",
"518 -18 OFFCURVE",
"641 -18 CURVE SMOOTH"
);
}
);
width = 1280;
},
{
anchors = (
{
name = bottom;
position = "{600, 0}";
},
{
name = topcap;
position = "{609, 1643}";
}
);
associatedMasterId = "FA6D65B5-4623-4FAC-A199-3F662257AC29";
layerId = "CBD44848-52BD-4DC5-BFA6-577546B7224D";
paths = (
{
closed = 1;
nodes = (
"861 -18 OFFCURVE",
"1067 176 OFFCURVE",
"1067 430 CURVE SMOOTH",
"1067 900 OFFCURVE",
"364 846 OFFCURVE",
"364 1232 CURVE SMOOTH",
"364 1373 OFFCURVE",
"457 1459 OFFCURVE",
"607 1459 CURVE SMOOTH",
"788 1459 OFFCURVE",
"903 1340 OFFCURVE",
"966 1088 CURVE",
"1018 1088 LINE",
"1000 1523 LINE",
"960 1523 LINE",
"896 1421 LINE",
"810 1505 OFFCURVE",
"716 1544 OFFCURVE",
"599 1544 CURVE SMOOTH",
"347 1544 OFFCURVE",
"157 1366 OFFCURVE",
"157 1126 CURVE SMOOTH",
"157 659 OFFCURVE",
"886 702 OFFCURVE",
"886 312 CURVE SMOOTH",
"886 161 OFFCURVE",
"772 68 OFFCURVE",
"590 68 CURVE SMOOTH",
"374 68 OFFCURVE",
"253 200 OFFCURVE",
"174 518 CURVE",
"124 507 LINE",
"161 0 LINE",
"200 0 LINE",
"279 81 LINE",
"392 13 OFFCURVE",
"489 -18 OFFCURVE",
"596 -18 CURVE SMOOTH"
);
}
);
width = 1185;
},
{
anchors = (
{
name = bottom;
position = "{606, 0}";
},
{
name = topcap;
position = "{614, 1643}";
}
);
layerId = "7C8D72FA-6E62-4564-8BB2-D9F9BC4EB15A";
paths = (
{
closed = 1;
nodes = (
"873 -18 OFFCURVE",
"1082 176 OFFCURVE",
"1082 430 CURVE SMOOTH",
"1082 600 OFFCURVE",
"996 729 OFFCURVE",
"792 837 CURVE SMOOTH",
"643 917 LINE SMOOTH",
"448 1020 OFFCURVE",
"374 1109 OFFCURVE",
"374 1233 CURVE SMOOTH",
"374 1370 OFFCURVE",
"466 1454 OFFCURVE",
"614 1454 CURVE SMOOTH",
"796 1454 OFFCURVE",
"912 1337 OFFCURVE",
"975 1088 CURVE",
"1032 1088 LINE",
"1014 1525 LINE",
"971 1525 LINE",
"910 1421 LINE",
"821 1505 OFFCURVE",
"725 1544 OFFCURVE",
"605 1544 CURVE SMOOTH",
"348 1544 OFFCURVE",
"154 1366 OFFCURVE",
"154 1126 CURVE SMOOTH",
"154 948 OFFCURVE",
"253 826 OFFCURVE",
"503 692 CURVE SMOOTH",
"656 611 LINE SMOOTH",
"821 517 OFFCURVE",
"889 431 OFFCURVE",
"889 314 CURVE SMOOTH",
"889 164 OFFCURVE",
"776 71 OFFCURVE",
"595 71 CURVE SMOOTH",
"379 71 OFFCURVE",
"256 204 OFFCURVE",
"176 518 CURVE",
"122 507 LINE",
"159 0 LINE",
"200 0 LINE",
"279 81 LINE",
"394 13 OFFCURVE",
"493 -18 OFFCURVE",
"602 -18 CURVE SMOOTH"
);
}
);
width = 1198;
},
{
anchors = (
{
name = bottom;
position = "{645, 0}";
},
{
name = topcap;
position = "{644, 1643}";
}
);
associatedMasterId = "FA6D65B5-4623-4FAC-A199-3F662257AC29";
layerId = "7F81D59E-4BE4-4EC1-9AB4-A0A267374C41";
name = "Jan 7 19, 12:32";
paths = (
{
closed = 1;
nodes = (
"945 -18 OFFCURVE",
"1179 176 OFFCURVE",
"1179 432 CURVE SMOOTH",
"1179 978 OFFCURVE",
"440 940 OFFCURVE",
"440 1239 CURVE SMOOTH",
"440 1356 OFFCURVE",
"520 1427 OFFCURVE",
"656 1427 CURVE SMOOTH",
"849 1427 OFFCURVE",
"974 1313 OFFCURVE",
"1039 1088 CURVE",
"1126 1088 LINE",
"1107 1526 LINE",
"1041 1526 LINE",
"994 1421 LINE",
"895 1505 OFFCURVE",
"782 1544 OFFCURVE",
"646 1544 CURVE SMOOTH",
"357 1544 OFFCURVE",
"138 1368 OFFCURVE",
"138 1126 CURVE SMOOTH",
"138 590 OFFCURVE",
"912 615 OFFCURVE",
"912 322 CURVE SMOOTH",
"912 182 OFFCURVE",
"805 97 OFFCURVE",
"638 97 CURVE SMOOTH",
"404 97 OFFCURVE",
"273 223 OFFCURVE",
"188 520 CURVE",
"105 507 LINE",
"144 0 LINE",
"206 0 LINE",
"275 81 LINE",
"408 13 OFFCURVE",
"518 -18 OFFCURVE",
"641 -18 CURVE SMOOTH"
);
}
);
width = 1280;
},
{
anchors = (
{
name = bottom;
position = "{606, 0}";
},
{
name = topcap;
position = "{614, 1643}";
}
);
associatedMasterId = "7C8D72FA-6E62-4564-8BB2-D9F9BC4EB15A";
layerId = "F4CC0A2C-F035-45D2-AECC-B4E90B321E76";
name = "Jan 7 19, 13:03";
paths = (
{
closed = 1;
nodes = (
"873 -18 OFFCURVE",
"1082 176 OFFCURVE",
"1082 430 CURVE SMOOTH",
"1082 911 OFFCURVE",
"374 859 OFFCURVE",
"374 1233 CURVE SMOOTH",
"374 1370 OFFCURVE",
"466 1454 OFFCURVE",
"614 1454 CURVE SMOOTH",
"796 1454 OFFCURVE",
"912 1337 OFFCURVE",
"975 1088 CURVE",
"1032 1088 LINE",
"1014 1525 LINE",
"971 1525 LINE",
"910 1421 LINE",
"821 1505 OFFCURVE",
"725 1544 OFFCURVE",
"605 1544 CURVE SMOOTH",
"348 1544 OFFCURVE",
"154 1366 OFFCURVE",
"154 1126 CURVE SMOOTH",
"154 649 OFFCURVE",
"889 691 OFFCURVE",
"889 314 CURVE SMOOTH",
"889 164 OFFCURVE",
"776 71 OFFCURVE",
"595 71 CURVE SMOOTH",
"379 71 OFFCURVE",
"256 204 OFFCURVE",
"176 518 CURVE",
"122 507 LINE",
"159 0 LINE",
"200 0 LINE",
"279 81 LINE",
"394 13 OFFCURVE",
"493 -18 OFFCURVE",
"602 -18 CURVE SMOOTH"
);
}
);
visible = 1;
width = 1198;
}
);
leftKerningGroup = S;
rightKerningGroup = S;
unicode = 0053;
},
{
glyphname = Schwa;
layers = (
{
layerId = "FA6D65B5-4623-4FAC-A199-3F662257AC29";
paths = (
{
closed = 1;
nodes = (
"1162 -21 OFFCURVE",
"1476 303 OFFCURVE",
"1476 784 CURVE SMOOTH",
"1476 1239 OFFCURVE",
"1195 1546 OFFCURVE",
"782 1546 CURVE SMOOTH",
"471 1546 OFFCURVE",
"200 1377 OFFCURVE",
"120 1133 CURVE",
"177 1094 LINE",
"295 1249 OFFCURVE",
"472 1338 OFFCURVE",
"667 1338 CURVE SMOOTH",
"950 1338 OFFCURVE",
"1090 1130 OFFCURVE",
"1090 713 CURVE SMOOTH",
"1090 311 OFFCURVE",
"960 99 OFFCURVE",
"710 99 CURVE SMOOTH",
"534 99 OFFCURVE",
"438 208 OFFCURVE",
"438 406 CURVE SMOOTH",
"438 440 OFFCURVE",
"441 481 OFFCURVE",
"446 512 CURVE",
"1237 540 LINE",
"1237 641 LINE",
"86 641 LINE",
"66 623 LINE",
"71 211 OFFCURVE",
"292 -21 OFFCURVE",
"691 -21 CURVE SMOOTH"
);
}
);
width = 1567;
},
{
associatedMasterId = "FA6D65B5-4623-4FAC-A199-3F662257AC29";
layerId = "CBD44848-52BD-4DC5-BFA6-577546B7224D";
paths = (
{
closed = 1;
nodes = (
"1118 -21 OFFCURVE",
"1416 307 OFFCURVE",
"1416 786 CURVE SMOOTH",
"1416 1239 OFFCURVE",
"1150 1546 OFFCURVE",
"755 1546 CURVE SMOOTH",
"477 1546 OFFCURVE",
"231 1398 OFFCURVE",
"140 1175 CURVE SMOOTH",
"124 1133 LINE",
"172 1104 LINE",
"206 1148 LINE SMOOTH",
"320 1300 OFFCURVE",
"474 1377 OFFCURVE",
"667 1377 CURVE SMOOTH",
"991 1377 OFFCURVE",
"1168 1142 OFFCURVE",
"1168 714 CURVE SMOOTH",
"1168 299 OFFCURVE",
"1002 70 OFFCURVE",
"698 70 CURVE SMOOTH",
"471 70 OFFCURVE",
"352 188 OFFCURVE",
"352 413 CURVE SMOOTH",
"352 471 OFFCURVE",
"360 510 OFFCURVE",
"360 537 CURVE",
"1189 564 LINE",
"1189 641 LINE",
"113 641 LINE",
"93 623 LINE",
"101 203 OFFCURVE",
"303 -21 OFFCURVE",
"677 -21 CURVE SMOOTH"
);
}
);
width = 1528;
},
{
layerId = "7C8D72FA-6E62-4564-8BB2-D9F9BC4EB15A";
paths = (
{
closed = 1;
nodes = (
"1124 -21 OFFCURVE",
"1424 306 OFFCURVE",
"1424 785 CURVE SMOOTH",
"1424 1239 OFFCURVE",
"1156 1546 OFFCURVE",
"759 1546 CURVE SMOOTH",
"438 1546 OFFCURVE",
"215 1388 OFFCURVE",
"124 1133 CURVE",
"173 1103 LINE",
"306 1290 OFFCURVE",
"458 1373 OFFCURVE",
"667 1373 CURVE SMOOTH",
"987 1373 OFFCURVE",
"1157 1141 OFFCURVE",
"1157 714 CURVE SMOOTH",
"1157 301 OFFCURVE",
"996 74 OFFCURVE",
"700 74 CURVE SMOOTH",
"479 74 OFFCURVE",
"364 190 OFFCURVE",
"364 412 CURVE SMOOTH",
"364 468 OFFCURVE",
"367 507 OFFCURVE",
"371 533 CURVE",
"1196 561 LINE",
"1196 641 LINE",
"109 641 LINE",
"90 623 LINE",
"97 204 OFFCURVE",
"302 -21 OFFCURVE",
"678 -21 CURVE SMOOTH"
);
}
);
width = 1534;
},
{
associatedMasterId = "7C8D72FA-6E62-4564-8BB2-D9F9BC4EB15A";
layerId = "CF48896F-2BD3-42F6-BF7B-6BB773587460";
name = "Jan 7 19, 13:06";
paths = (
{
closed = 1;
nodes = (
"1124 -21 OFFCURVE",
"1424 306 OFFCURVE",
"1424 785 CURVE SMOOTH",
"1424 1239 OFFCURVE",
"1156 1546 OFFCURVE",
"759 1546 CURVE SMOOTH",
"478 1546 OFFCURVE",
"230 1397 OFFCURVE",
"139 1175 CURVE SMOOTH",
"124 1133 LINE",
"173 1103 LINE",
"207 1147 LINE SMOOTH",
"319 1294 OFFCURVE",
"477 1373 OFFCURVE",
"667 1373 CURVE SMOOTH",
"987 1373 OFFCURVE",
"1157 1141 OFFCURVE",
"1157 714 CURVE SMOOTH",
"1157 301 OFFCURVE",
"996 74 OFFCURVE",
"700 74 CURVE SMOOTH",
"479 74 OFFCURVE",
"364 190 OFFCURVE",
"364 412 CURVE SMOOTH",
"364 468 OFFCURVE",
"367 507 OFFCURVE",
"371 533 CURVE",
"1196 561 LINE",
"1196 641 LINE",
"109 641 LINE",
"90 623 LINE",
"97 204 OFFCURVE",
"302 -21 OFFCURVE",
"678 -21 CURVE SMOOTH"
);
}
);
visible = 1;
width = 1534;
},
{
associatedMasterId = "FA6D65B5-4623-4FAC-A199-3F662257AC29";
layerId = "F34E63B7-3038-473A-9096-18807603FB47";
name = "Jan 7 19, 13:07";
paths = (
{
closed = 1;
nodes = (
"1162 -21 OFFCURVE",
"1476 303 OFFCURVE",
"1476 784 CURVE SMOOTH",
"1476 1239 OFFCURVE",
"1195 1546 OFFCURVE",
"782 1546 CURVE SMOOTH",
"489 1546 OFFCURVE",
"221 1393 OFFCURVE",
"135 1175 CURVE SMOOTH",
"120 1133 LINE",
"177 1094 LINE",
"214 1138 LINE SMOOTH",
"312 1259 OFFCURVE",
"491 1338 OFFCURVE",
"667 1338 CURVE SMOOTH",
"950 1338 OFFCURVE",
"1090 1130 OFFCURVE",
"1090 713 CURVE SMOOTH",
"1090 311 OFFCURVE",
"960 99 OFFCURVE",
"710 99 CURVE SMOOTH",
"534 99 OFFCURVE",
"438 208 OFFCURVE",
"438 406 CURVE SMOOTH",
"438 440 OFFCURVE",
"441 481 OFFCURVE",
"446 512 CURVE",
"1237 540 LINE",
"1237 641 LINE",
"86 641 LINE",
"66 623 LINE",
"71 211 OFFCURVE",
"292 -21 OFFCURVE",
"691 -21 CURVE SMOOTH"
);
}
);
width = 1567;
}
);
rightKerningGroup = O;
unicode = 018F;
},
{
glyphname = T;
layers = (
{
anchors = (
{
name = bottom;
position = "{770, -5}";
},
{
name = topcap;
position = "{770, 1643}";
}
);
layerId = "FA6D65B5-4623-4FAC-A199-3F662257AC29";
paths = (
{
closed = 1;
nodes = (
"1177 0 LINE",
"1177 73 LINE",
"942 117 LINE",
"942 1415 LINE",
"1265 1415 LINE",
"1350 1307 OFFCURVE",
"1401 1177 OFFCURVE",
"1441 1069 CURVE",
"1518 1069 LINE",
"1445 1523 LINE",
"94 1523 LINE",
"22 1069 LINE",
"99 1069 LINE",
"138 1177 OFFCURVE",
"196 1307 OFFCURVE",
"281 1415 CURVE",
"603 1415 LINE",
"603 117 LINE",
"366 73 LINE",
"366 0 LINE"
);
}
);
width = 1540;
},
{
anchors = (
{
name = bottom;
position = "{750, -5}";
},
{
name = topcap;
position = "{750, 1643}";
}
);
associatedMasterId = "FA6D65B5-4623-4FAC-A199-3F662257AC29";
layerId = "CBD44848-52BD-4DC5-BFA6-577546B7224D";
paths = (
{
closed = 1;
nodes = (
"1069 0 LINE",
"1069 45 LINE",
"853 83 LINE",
"853 1445 LINE",
"1245 1445 LINE",
"1330 1331 OFFCURVE",
"1388 1201 OFFCURVE",
"1427 1088 CURVE",
"1474 1088 LINE",
"1401 1523 LINE",
"91 1523 LINE",
"18 1088 LINE",
"66 1088 LINE",
"105 1201 OFFCURVE",
"162 1331 OFFCURVE",
"248 1445 CURVE",
"646 1445 LINE",
"646 83 LINE",
"427 45 LINE",
"427 0 LINE"
);
}
);
width = 1492;
},
{
anchors = (
{
name = bottom;
position = "{753, -5}";
},
{
name = topcap;
position = "{753, 1643}";
}
);
layerId = "7C8D72FA-6E62-4564-8BB2-D9F9BC4EB15A";
paths = (
{
closed = 1;
nodes = (
"1082 0 LINE",
"1082 48 LINE",
"865 88 LINE",
"865 1441 LINE",
"1247 1441 LINE",
"1332 1328 OFFCURVE",
"1390 1198 OFFCURVE",
"1429 1086 CURVE",
"1480 1086 LINE",
"1407 1523 LINE",
"91 1523 LINE",
"18 1086 LINE",
"70 1086 LINE",
"109 1198 OFFCURVE",
"167 1328 OFFCURVE",
"252 1441 CURVE",
"640 1441 LINE",
"640 88 LINE",
"419 48 LINE",
"419 0 LINE"
);
}
);
width = 1498;
}
);
leftKerningGroup = T;
rightKerningGroup = T;
unicode = 0054;
},
{
glyphname = Tbar;
layers = (
{
components = (
{
name = T;
transform = "{1, 0, 0, 1, 2, 0}";
}
);
layerId = "FA6D65B5-4623-4FAC-A199-3F662257AC29";
paths = (
{
closed = 1;
nodes = (
"1261 727 LINE",
"1261 895 LINE",
"291 895 LINE",
"291 727 LINE"
);
}
);
width = 1544;
},
{
associatedMasterId = "FA6D65B5-4623-4FAC-A199-3F662257AC29";
components = (
{
name = T;
}
);
layerId = "CBD44848-52BD-4DC5-BFA6-577546B7224D";
paths = (
{
closed = 1;
nodes = (
"1170 746 LINE",
"1170 875 LINE",
"328 875 LINE",
"328 746 LINE"
);
}
);
width = 1492;
},
{
components = (
{
alignment = -1;
name = T;
}
);
layerId = "7C8D72FA-6E62-4564-8BB2-D9F9BC4EB15A";
paths = (
{
closed = 1;
nodes = (
"1181 744 LINE",
"1181 877 LINE",
"324 877 LINE",
"324 744 LINE"
);
}
);
width = 1499;
}
);
leftKerningGroup = T;
rightKerningGroup = T;
unicode = 0166;
},
{
glyphname = U;
layers = (
{
anchors = (
{
name = bottom;
position = "{895, 0}";
},
{
name = ogonekcurvecap;
position = "{1224, 94}";
},
{
name = topcap;
position = "{922, 1643}";
}
);
layerId = "FA6D65B5-4623-4FAC-A199-3F662257AC29";
paths = (
{
closed = 1;
nodes = (
"1067 -21 OFFCURVE",
"1224 50 OFFCURVE",
"1315 190 CURVE SMOOTH",
"1373 283 OFFCURVE",
"1406 409 OFFCURVE",
"1406 560 CURVE SMOOTH",
"1406 1414 LINE",
"1581 1451 LINE",
"1581 1523 LINE",
"1094 1523 LINE",
"1094 1451 LINE",
"1269 1414 LINE",
"1269 672 LINE SMOOTH",
"1269 443 OFFCURVE",
"1242 312 OFFCURVE",
"1181 227 CURVE SMOOTH",
"1123 146 OFFCURVE",
"1029 104 OFFCURVE",
"909 104 CURVE SMOOTH",
"689 104 OFFCURVE",
"564 260 OFFCURVE",
"564 529 CURVE SMOOTH",
"564 1414 LINE",
"738 1451 LINE",
"738 1523 LINE",
"52 1523 LINE",
"52 1451 LINE",
"219 1414 LINE",
"219 529 LINE SMOOTH",
"219 364 OFFCURVE",
"243 268 OFFCURVE",
"305 192 CURVE SMOOTH",
"409 55 OFFCURVE",
"599 -21 OFFCURVE",
"837 -21 CURVE SMOOTH"
);
}
);
width = 1625;
},
{
anchors = (
{
name = bottom;
position = "{793, 0}";
},
{
name = topcap;
position = "{843, 1643}";
}
);
associatedMasterId = "FA6D65B5-4623-4FAC-A199-3F662257AC29";
layerId = "CBD44848-52BD-4DC5-BFA6-577546B7224D";
paths = (
{
closed = 1;
nodes = (
"978 -21 OFFCURVE",
"1133 45 OFFCURVE",
"1211 159 CURVE SMOOTH",
"1263 235 OFFCURVE",
"1286 344 OFFCURVE",
"1286 510 CURVE SMOOTH",
"1286 1441 LINE",
"1464 1479 LINE",
"1464 1523 LINE",
"1032 1523 LINE",
"1032 1479 LINE",
"1208 1441 LINE",
"1208 594 LINE SMOOTH",
"1208 383 OFFCURVE",
"1185 264 OFFCURVE",
"1132 192 CURVE SMOOTH",
"1073 112 OFFCURVE",
"962 70 OFFCURVE",
"820 70 CURVE SMOOTH",
"596 70 OFFCURVE",
"451 198 OFFCURVE",
"451 450 CURVE SMOOTH",
"451 1441 LINE",
"628 1479 LINE",
"628 1523 LINE",
"66 1523 LINE",
"66 1479 LINE",
"243 1441 LINE",
"243 479 LINE SMOOTH",
"243 314 OFFCURVE",
"268 231 OFFCURVE",
"320 162 CURVE SMOOTH",
"408 47 OFFCURVE",
"573 -21 OFFCURVE",
"778 -21 CURVE SMOOTH"
);
}
);
width = 1531;
},
{
anchors = (
{
name = bottom;
position = "{807, 0}";
},
{
name = ogonekcurvecap;
position = "{1162, 94}";
},
{
name = topcap;
position = "{854, 1643}";
}
);
layerId = "7C8D72FA-6E62-4564-8BB2-D9F9BC4EB15A";
paths = (
{
closed = 1;
nodes = (
"989 -21 OFFCURVE",
"1146 46 OFFCURVE",
"1225 162 CURVE SMOOTH",
"1277 242 OFFCURVE",
"1302 352 OFFCURVE",
"1302 517 CURVE SMOOTH",
"1302 1437 LINE",
"1480 1475 LINE",
"1480 1523 LINE",
"1040 1523 LINE",
"1040 1475 LINE",
"1216 1437 LINE",
"1216 605 LINE SMOOTH",
"1216 392 OFFCURVE",
"1193 269 OFFCURVE",
"1139 197 CURVE SMOOTH",
"1079 116 OFFCURVE",
"971 74 OFFCURVE",
"831 74 CURVE SMOOTH",
"608 74 OFFCURVE",
"466 206 OFFCURVE",
"466 461 CURVE SMOOTH",
"466 1437 LINE",
"643 1475 LINE",
"643 1523 LINE",
"63 1523 LINE",
"63 1475 LINE",
"240 1437 LINE",
"240 486 LINE SMOOTH",
"240 321 OFFCURVE",
"265 236 OFFCURVE",
"318 166 CURVE SMOOTH",
"409 48 OFFCURVE",
"577 -21 OFFCURVE",
"786 -21 CURVE SMOOTH"
);
}
);
width = 1544;
}
);
leftKerningGroup = U;
rightKerningGroup = U;
unicode = 0055;
},
{
glyphname = V;
layers = (
{
layerId = "FA6D65B5-4623-4FAC-A199-3F662257AC29";
paths = (
{
closed = 1;
nodes = (
"828 -21 LINE",
"1316 1231 LINE SMOOTH",
"1379 1393 OFFCURVE",
"1415 1422 OFFCURVE",
"1594 1451 CURVE",
"1594 1523 LINE",
"982 1523 LINE",
"982 1451 LINE",
"1189 1423 OFFCURVE",
"1233 1375 OFFCURVE",
"1181 1234 CURVE SMOOTH",
"910 501 LINE",
"888 503 LINE",
"594 1318 LINE SMOOTH",
"560 1413 OFFCURVE",
"592 1437 OFFCURVE",
"776 1451 CURVE",
"776 1523 LINE",
"-39 1523 LINE",
"-39 1451 LINE",
"101 1441 OFFCURVE",
"136 1419 OFFCURVE",
"174 1330 CURVE SMOOTH",
"732 -21 LINE"
);
}
);
width = 1546;
},
{
associatedMasterId = "FA6D65B5-4623-4FAC-A199-3F662257AC29";
layerId = "CBD44848-52BD-4DC5-BFA6-577546B7224D";
paths = (
{
closed = 1;
nodes = (
"737 -21 LINE",
"1189 1259 LINE SMOOTH",
"1239 1399 OFFCURVE",
"1267 1447 OFFCURVE",
"1476 1479 CURVE",
"1476 1523 LINE",
"920 1523 LINE",
"920 1479 LINE",
"1071 1459 OFFCURVE",
"1123 1422 OFFCURVE",
"1123 1356 CURVE SMOOTH",
"1123 1330 OFFCURVE",
"1115 1299 OFFCURVE",
"1102 1263 CURVE SMOOTH",
"790 362 LINE",
"780 362 LINE",
"446 1325 LINE SMOOTH",
"433 1362 OFFCURVE",
"419 1398 OFFCURVE",
"419 1416 CURVE SMOOTH",
"419 1461 OFFCURVE",
"450 1468 OFFCURVE",
"628 1479 CURVE",
"628 1523 LINE",
"-16 1523 LINE",
"-16 1479 LINE",
"122 1468 OFFCURVE",
"153 1449 OFFCURVE",
"185 1358 CURVE SMOOTH",
"702 -21 LINE"
);
}
);
width = 1427;
},
{
layerId = "7C8D72FA-6E62-4564-8BB2-D9F9BC4EB15A";
paths = (
{
closed = 1;
nodes = (
"748 -21 LINE",
"1207 1255 LINE SMOOTH",
"1257 1398 OFFCURVE",
"1286 1444 OFFCURVE",
"1492 1475 CURVE",
"1492 1523 LINE",
"928 1523 LINE",
"928 1475 LINE",
"1126 1446 OFFCURVE",
"1163 1403 OFFCURVE",
"1112 1259 CURVE SMOOTH",
"805 382 LINE",
"793 381 LINE",
"457 1348 LINE SMOOTH",
"420 1453 OFFCURVE",
"434 1462 OFFCURVE",
"647 1475 CURVE",
"647 1523 LINE",
"-18 1523 LINE",
"-18 1475 LINE",
"120 1465 OFFCURVE",
"151 1444 OFFCURVE",
"184 1354 CURVE SMOOTH",
"707 -21 LINE"
);
}
);
width = 1443;
},
{
associatedMasterId = "7C8D72FA-6E62-4564-8BB2-D9F9BC4EB15A";
layerId = "5BADCB50-D09D-42B1-A6FD-C0E5A93851AF";
name = "Jan 7 19, 14:20";
paths = (
{
closed = 1;
nodes = (
"748 -21 LINE",
"1207 1255 LINE SMOOTH",
"1257 1398 OFFCURVE",
"1286 1444 OFFCURVE",
"1492 1475 CURVE",
"1492 1523 LINE",
"928 1523 LINE",
"928 1475 LINE",
"1080 1454 OFFCURVE",
"1133 1419 OFFCURVE",
"1133 1352 CURVE SMOOTH",
"1133 1327 OFFCURVE",
"1125 1295 OFFCURVE",
"1112 1259 CURVE SMOOTH",
"804 381 LINE",
"793 381 LINE",
"465 1324 LINE SMOOTH",
"454 1359 OFFCURVE",
"441 1392 OFFCURVE",
"441 1411 CURVE SMOOTH",
"441 1455 OFFCURVE",
"473 1465 OFFCURVE",
"647 1475 CURVE",
"647 1523 LINE",
"-18 1523 LINE",
"-18 1475 LINE",
"120 1465 OFFCURVE",
"151 1444 OFFCURVE",
"184 1354 CURVE SMOOTH",
"707 -21 LINE"
);
}
);
width = 1443;
},
{
associatedMasterId = "FA6D65B5-4623-4FAC-A199-3F662257AC29";
layerId = "165C2C47-ED19-4EBB-84D3-9FA62CEFF1E6";
name = "Jan 7 19, 14:22";
paths = (
{
closed = 1;
nodes = (
"828 -21 LINE",
"1316 1231 LINE SMOOTH",
"1379 1393 OFFCURVE",
"1415 1422 OFFCURVE",
"1594 1451 CURVE",
"1594 1523 LINE",
"982 1523 LINE",
"982 1451 LINE",
"1143 1429 OFFCURVE",
"1201 1396 OFFCURVE",
"1201 1323 CURVE SMOOTH",
"1201 1300 OFFCURVE",
"1195 1271 OFFCURVE",
"1181 1234 CURVE SMOOTH",
"900 503 LINE",
"888 503 LINE",
"594 1318 LINE SMOOTH",
"560 1413 OFFCURVE",
"592 1437 OFFCURVE",
"776 1451 CURVE",
"776 1523 LINE",
"-39 1523 LINE",
"-39 1451 LINE",
"101 1441 OFFCURVE",
"136 1419 OFFCURVE",
"174 1330 CURVE SMOOTH",
"732 -21 LINE"
);
}
);
visible = 1;
width = 1546;
}
);
unicode = 0056;
},
{
glyphname = W;
layers = (
{
anchors = (
{
name = topcap;
position = "{1256, 1643}";
}
);
layerId = "FA6D65B5-4623-4FAC-A199-3F662257AC29";
paths = (
{
closed = 1;
nodes = (
"805 -21 LINE",
"1198 983 LINE",
"1591 -21 LINE",
"1687 -21 LINE",
"2175 1231 LINE SMOOTH",
"2236 1391 OFFCURVE",
"2280 1424 OFFCURVE",
"2453 1451 CURVE",
"2453 1523 LINE",
"1841 1523 LINE",
"1841 1451 LINE",
"2052 1424 OFFCURVE",
"2093 1379 OFFCURVE",
"2040 1234 CURVE SMOOTH",
"1772 499 LINE",
"1748 503 LINE",
"1482 1318 LINE SMOOTH",
"1446 1415 OFFCURVE",
"1482 1442 OFFCURVE",
"1664 1451 CURVE",
"1664 1523 LINE",
"849 1523 LINE",
"849 1451 LINE",
"989 1441 OFFCURVE",
"1027 1419 OFFCURVE",
"1063 1330 CURVE SMOOTH",
"1130 1158 LINE",
"879 503 LINE",
"867 503 LINE",
"601 1318 LINE SMOOTH",
"569 1421 OFFCURVE",
"591 1437 OFFCURVE",
"784 1451 CURVE",
"784 1523 LINE",
"-31 1523 LINE",
"-31 1451 LINE",
"109 1441 OFFCURVE",
"146 1419 OFFCURVE",
"182 1330 CURVE SMOOTH",
"710 -21 LINE"
);
}
);
width = 2399;
},
{
anchors = (
{
name = topcap;
position = "{1076, 1643}";
}
);
associatedMasterId = "FA6D65B5-4623-4FAC-A199-3F662257AC29";
layerId = "CBD44848-52BD-4DC5-BFA6-577546B7224D";
paths = (
{
closed = 1;
nodes = (
"738 -21 LINE",
"1069 1016 LINE",
"1457 -21 LINE",
"1503 -21 LINE",
"1909 1259 LINE SMOOTH",
"1955 1401 OFFCURVE",
"1987 1447 OFFCURVE",
"2197 1479 CURVE",
"2197 1523 LINE",
"1641 1523 LINE",
"1641 1479 LINE",
"1794 1457 OFFCURVE",
"1841 1424 OFFCURVE",
"1841 1358 CURVE SMOOTH",
"1841 1328 OFFCURVE",
"1835 1300 OFFCURVE",
"1823 1263 CURVE SMOOTH",
"1544 362 LINE",
"1534 362 LINE",
"1200 1325 LINE SMOOTH",
"1185 1365 OFFCURVE",
"1177 1391 OFFCURVE",
"1177 1414 CURVE SMOOTH",
"1177 1453 OFFCURVE",
"1192 1466 OFFCURVE",
"1381 1479 CURVE",
"1381 1523 LINE",
"738 1523 LINE",
"738 1479 LINE",
"877 1468 OFFCURVE",
"906 1449 OFFCURVE",
"940 1358 CURVE SMOOTH",
"1021 1140 LINE",
"780 362 LINE",
"770 362 LINE",
"435 1325 LINE SMOOTH",
"416 1381 OFFCURVE",
"409 1399 OFFCURVE",
"409 1419 CURVE SMOOTH",
"409 1455 OFFCURVE",
"432 1464 OFFCURVE",
"617 1479 CURVE",
"617 1523 LINE",
"-25 1523 LINE",
"-25 1479 LINE",
"113 1468 OFFCURVE",
"143 1449 OFFCURVE",
"176 1358 CURVE SMOOTH",
"693 -21 LINE"
);
}
);
width = 2157;
},
{
anchors = (
{
name = topcap;
position = "{1100, 1643}";
}
);
layerId = "7C8D72FA-6E62-4564-8BB2-D9F9BC4EB15A";
paths = (
{
closed = 1;
nodes = (
"746 -21 LINE",
"1086 1011 LINE",
"1474 -21 LINE",
"1527 -21 LINE",
"1945 1255 LINE SMOOTH",
"1993 1400 OFFCURVE",
"2027 1444 OFFCURVE",
"2232 1475 CURVE",
"2232 1523 LINE",
"1667 1523 LINE",
"1667 1475 LINE",
"1862 1447 OFFCURVE",
"1901 1401 OFFCURVE",
"1852 1259 CURVE SMOOTH",
"1549 388 LINE",
"1563 381 LINE",
"1238 1324 LINE SMOOTH",
"1191 1451 OFFCURVE",
"1204 1461 OFFCURVE",
"1419 1475 CURVE",
"1419 1523 LINE",
"753 1523 LINE",
"753 1475 LINE",
"892 1465 OFFCURVE",
"922 1444 OFFCURVE",
"957 1354 CURVE SMOOTH",
"1035 1142 LINE",
"792 381 LINE",
"783 381 LINE",
"454 1333 LINE SMOOTH",
"412 1455 OFFCURVE",
"416 1458 OFFCURVE",
"639 1475 CURVE",
"639 1523 LINE",
"-26 1523 LINE",
"-26 1475 LINE",
"112 1465 OFFCURVE",
"143 1444 OFFCURVE",
"177 1354 CURVE SMOOTH",
"696 -21 LINE"
);
}
);
width = 2189;
},
{
anchors = (
{
name = topcap;
position = "{1256, 1643}";
}
);
associatedMasterId = "FA6D65B5-4623-4FAC-A199-3F662257AC29";
layerId = "ABFE13B6-93B8-4B3B-9D71-6302F024CC27";
name = "Jan 7 19, 14:23";
paths = (
{
closed = 1;
nodes = (
"805 -21 LINE",
"1198 983 LINE",
"1591 -21 LINE",
"1687 -21 LINE",
"2175 1231 LINE SMOOTH",
"2236 1391 OFFCURVE",
"2280 1424 OFFCURVE",
"2453 1451 CURVE",
"2453 1523 LINE",
"1841 1523 LINE",
"1841 1451 LINE",
"2005 1430 OFFCURVE",
"2062 1396 OFFCURVE",
"2062 1328 CURVE SMOOTH",
"2062 1302 OFFCURVE",
"2052 1267 OFFCURVE",
"2040 1234 CURVE SMOOTH",
"1759 503 LINE",
"1748 503 LINE",
"1482 1318 LINE SMOOTH",
"1474 1340 OFFCURVE",
"1470 1360 OFFCURVE",
"1470 1375 CURVE SMOOTH",
"1470 1427 OFFCURVE",
"1520 1443 OFFCURVE",
"1664 1451 CURVE",
"1664 1523 LINE",
"849 1523 LINE",
"849 1451 LINE",
"989 1441 OFFCURVE",
"1027 1419 OFFCURVE",
"1063 1330 CURVE SMOOTH",
"1130 1158 LINE",
"879 503 LINE",
"867 503 LINE",
"601 1318 LINE SMOOTH",
"594 1340 OFFCURVE",
"590 1360 OFFCURVE",
"590 1375 CURVE SMOOTH",
"590 1422 OFFCURVE",
"615 1441 OFFCURVE",
"784 1451 CURVE",
"784 1523 LINE",
"-31 1523 LINE",
"-31 1451 LINE",
"109 1441 OFFCURVE",
"146 1419 OFFCURVE",
"182 1330 CURVE SMOOTH",
"710 -21 LINE"
);
}
);
visible = 1;
width = 2399;
},
{
anchors = (
{
name = topcap;
position = "{1100, 1643}";
}
);
associatedMasterId = "7C8D72FA-6E62-4564-8BB2-D9F9BC4EB15A";
layerId = "A974E619-2AB6-44AE-A071-2906AAB377E2";
name = "Jan 7 19, 14:23";
paths = (
{
closed = 1;
nodes = (
"746 -21 LINE",
"1086 1011 LINE",
"1474 -21 LINE",
"1527 -21 LINE",
"1945 1255 LINE SMOOTH",
"1993 1400 OFFCURVE",
"2027 1444 OFFCURVE",
"2232 1475 CURVE",
"2232 1523 LINE",
"1667 1523 LINE",
"1667 1475 LINE",
"1822 1453 OFFCURVE",
"1870 1421 OFFCURVE",
"1870 1353 CURVE SMOOTH",
"1870 1324 OFFCURVE",
"1864 1295 OFFCURVE",
"1852 1259 CURVE SMOOTH",
"1573 381 LINE",
"1563 381 LINE",
"1238 1324 LINE SMOOTH",
"1224 1361 OFFCURVE",
"1216 1386 OFFCURVE",
"1216 1408 CURVE SMOOTH",
"1216 1450 OFFCURVE",
"1236 1464 OFFCURVE",
"1419 1475 CURVE",
"1419 1523 LINE",
"753 1523 LINE",
"753 1475 LINE",
"892 1465 OFFCURVE",
"922 1444 OFFCURVE",
"957 1354 CURVE SMOOTH",
"1035 1142 LINE",
"792 381 LINE",
"783 381 LINE",
"457 1324 LINE SMOOTH",
"440 1376 OFFCURVE",
"433 1393 OFFCURVE",
"433 1413 CURVE SMOOTH",
"433 1451 OFFCURVE",
"456 1461 OFFCURVE",
"639 1475 CURVE",
"639 1523 LINE",
"-26 1523 LINE",
"-26 1475 LINE",
"112 1465 OFFCURVE",
"143 1444 OFFCURVE",
"177 1354 CURVE SMOOTH",
"696 -21 LINE"
);
}
);
width = 2189;
}
);
leftKerningGroup = W;
rightKerningGroup = W;
unicode = 0057;
},
{
glyphname = X;
layers = (
{
layerId = "FA6D65B5-4623-4FAC-A199-3F662257AC29";
paths = (
{
closed = 1;
nodes = (
"568 0 LINE",
"568 73 LINE",
"396 91 OFFCURVE",
"366 123 OFFCURVE",
"435 216 CURVE SMOOTH",
"740 628 LINE",
"1041 180 LINE SMOOTH",
"1086 113 OFFCURVE",
"1086 86 OFFCURVE",
"879 73 CURVE",
"879 0 LINE",
"1701 0 LINE",
"1701 73 LINE",
"1578 83 OFFCURVE",
"1526 99 OFFCURVE",
"1487 159 CURVE SMOOTH",
"1005 877 LINE",
"1333 1315 LINE SMOOTH",
"1396 1396 OFFCURVE",
"1435 1421 OFFCURVE",
"1605 1451 CURVE",
"1605 1523 LINE",
"1049 1523 LINE",
"1049 1451 LINE",
"1216 1434 OFFCURVE",
"1249 1398 OFFCURVE",
"1183 1308 CURVE SMOOTH",
"937 978 LINE",
"696 1344 LINE SMOOTH",
"643 1424 OFFCURVE",
"668 1443 OFFCURVE",
"845 1451 CURVE",
"845 1523 LINE",
"21 1523 LINE",
"21 1451 LINE",
"182 1430 OFFCURVE",
"212 1416 OFFCURVE",
"248 1366 CURVE SMOOTH",
"671 732 LINE",
"284 214 LINE SMOOTH",
"223 130 OFFCURVE",
"157 94 OFFCURVE",
"-14 73 CURVE",
"-14 0 LINE"
);
}
);
width = 1662;
},
{
associatedMasterId = "FA6D65B5-4623-4FAC-A199-3F662257AC29";
layerId = "CBD44848-52BD-4DC5-BFA6-577546B7224D";
paths = (
{
closed = 1;
nodes = (
"516 0 LINE",
"516 39 LINE",
"402 52 OFFCURVE",
"351 71 OFFCURVE",
"351 105 CURVE SMOOTH",
"351 122 OFFCURVE",
"360 151 OFFCURVE",
"383 182 CURVE SMOOTH",
"747 671 LINE",
"1090 151 LINE SMOOTH",
"1115 115 OFFCURVE",
"1123 97 OFFCURVE",
"1123 83 CURVE SMOOTH",
"1123 62 OFFCURVE",
"1093 54 OFFCURVE",
"968 44 CURVE",
"968 0 LINE",
"1561 0 LINE",
"1561 44 LINE",
"1439 54 OFFCURVE",
"1388 70 OFFCURVE",
"1348 128 CURVE SMOOTH",
"887 834 LINE",
"1265 1341 LINE",
"1340 1430 OFFCURVE",
"1393 1453 OFFCURVE",
"1536 1479 CURVE",
"1536 1523 LINE",
"1044 1523 LINE",
"1044 1479 LINE",
"1148 1466 OFFCURVE",
"1192 1443 OFFCURVE",
"1192 1407 CURVE SMOOTH",
"1192 1385 OFFCURVE",
"1179 1365 OFFCURVE",
"1160 1336 CURVE SMOOTH",
"841 903 LINE",
"534 1371 LINE SMOOTH",
"515 1404 OFFCURVE",
"508 1421 OFFCURVE",
"508 1439 CURVE SMOOTH",
"508 1461 OFFCURVE",
"529 1472 OFFCURVE",
"646 1479 CURVE",
"646 1523 LINE",
"47 1523 LINE",
"47 1479 LINE",
"204 1461 OFFCURVE",
"242 1445 OFFCURVE",
"275 1393 CURVE SMOOTH",
"698 746 LINE",
"279 180 LINE SMOOTH",
"212 89 OFFCURVE",
"132 60 OFFCURVE",
"-21 39 CURVE",
"-21 0 LINE"
);
}
);
width = 1558;
},
{
layerId = "7C8D72FA-6E62-4564-8BB2-D9F9BC4EB15A";
paths = (
{
closed = 1;
nodes = (
"523 0 LINE",
"523 44 LINE",
"357 62 OFFCURVE",
"321 99 OFFCURVE",
"390 187 CURVE SMOOTH",
"761 654 LINE",
"1085 154 LINE SMOOTH",
"1131 82 OFFCURVE",
"1120 56 OFFCURVE",
"956 47 CURVE",
"956 0 LINE",
"1580 0 LINE",
"1580 47 LINE",
"1458 58 OFFCURVE",
"1406 74 OFFCURVE",
"1367 132 CURVE SMOOTH",
"902 839 LINE",
"1275 1338 LINE",
"1347 1426 OFFCURVE",
"1399 1449 OFFCURVE",
"1545 1475 CURVE",
"1545 1523 LINE",
"1046 1523 LINE",
"1046 1475 LINE",
"1196 1458 OFFCURVE",
"1226 1422 OFFCURVE",
"1163 1332 CURVE SMOOTH",
"854 913 LINE",
"555 1368 LINE SMOOTH",
"504 1453 OFFCURVE",
"518 1466 OFFCURVE",
"672 1475 CURVE",
"672 1523 LINE",
"44 1523 LINE",
"44 1475 LINE",
"200 1457 OFFCURVE",
"237 1442 OFFCURVE",
"272 1390 CURVE SMOOTH",
"694 745 LINE",
"280 184 LINE SMOOTH",
"213 94 OFFCURVE",
"136 64 OFFCURVE",
"-20 44 CURVE",
"-20 0 LINE"
);
}
);
width = 1572;
},
{
associatedMasterId = "FA6D65B5-4623-4FAC-A199-3F662257AC29";
layerId = "6BC71C91-3B48-4DD9-A837-BF50476A7F4F";
name = "Jan 7 19, 14:26";
paths = (
{
closed = 1;
nodes = (
"568 0 LINE",
"568 73 LINE",
"454 85 OFFCURVE",
"402 105 OFFCURVE",
"402 138 CURVE SMOOTH",
"402 157 OFFCURVE",
"411 184 OFFCURVE",
"435 216 CURVE SMOOTH",
"740 628 LINE",
"1041 180 LINE SMOOTH",
"1065 144 OFFCURVE",
"1073 124 OFFCURVE",
"1073 113 CURVE SMOOTH",
"1073 91 OFFCURVE",
"1034 83 OFFCURVE",
"879 73 CURVE",
"879 0 LINE",
"1701 0 LINE",
"1701 73 LINE",
"1578 83 OFFCURVE",
"1526 99 OFFCURVE",
"1487 159 CURVE SMOOTH",
"1005 877 LINE",
"1333 1315 LINE SMOOTH",
"1396 1396 OFFCURVE",
"1435 1421 OFFCURVE",
"1605 1451 CURVE",
"1605 1523 LINE",
"1049 1523 LINE",
"1049 1451 LINE",
"1166 1439 OFFCURVE",
"1216 1415 OFFCURVE",
"1216 1379 CURVE SMOOTH",
"1216 1358 OFFCURVE",
"1203 1336 OFFCURVE",
"1183 1308 CURVE SMOOTH",
"937 978 LINE",
"696 1344 LINE SMOOTH",
"675 1375 OFFCURVE",
"669 1391 OFFCURVE",
"669 1409 CURVE SMOOTH",
"669 1435 OFFCURVE",
"702 1445 OFFCURVE",
"845 1451 CURVE",
"845 1523 LINE",
"21 1523 LINE",
"21 1451 LINE",
"182 1430 OFFCURVE",
"212 1416 OFFCURVE",
"248 1366 CURVE SMOOTH",
"671 732 LINE",
"284 214 LINE SMOOTH",
"223 130 OFFCURVE",
"157 94 OFFCURVE",
"-14 73 CURVE",
"-14 0 LINE"
);
}
);
width = 1662;
},
{
associatedMasterId = "7C8D72FA-6E62-4564-8BB2-D9F9BC4EB15A";
layerId = "FF948E43-3A43-4DD0-BA8E-8F998A9A986B";
name = "Jan 7 19, 14:27";
paths = (
{
closed = 1;
nodes = (
"523 0 LINE",
"523 44 LINE",
"409 56 OFFCURVE",
"358 75 OFFCURVE",
"358 109 CURVE SMOOTH",
"358 127 OFFCURVE",
"366 155 OFFCURVE",
"390 187 CURVE SMOOTH",
"747 666 LINE",
"1085 154 LINE SMOOTH",
"1108 119 OFFCURVE",
"1116 100 OFFCURVE",
"1116 88 CURVE SMOOTH",
"1116 66 OFFCURVE",
"1085 58 OFFCURVE",
"956 47 CURVE",
"956 0 LINE",
"1580 0 LINE",
"1580 47 LINE",
"1458 58 OFFCURVE",
"1406 74 OFFCURVE",
"1367 132 CURVE SMOOTH",
"902 839 LINE",
"1275 1338 LINE",
"1347 1426 OFFCURVE",
"1399 1449 OFFCURVE",
"1545 1475 CURVE",
"1545 1523 LINE",
"1046 1523 LINE",
"1046 1475 LINE",
"1150 1462 OFFCURVE",
"1195 1439 OFFCURVE",
"1195 1404 CURVE SMOOTH",
"1195 1382 OFFCURVE",
"1183 1360 OFFCURVE",
"1163 1332 CURVE SMOOTH",
"854 913 LINE",
"555 1368 LINE SMOOTH",
"537 1399 OFFCURVE",
"530 1417 OFFCURVE",
"530 1435 CURVE SMOOTH",
"530 1458 OFFCURVE",
"552 1468 OFFCURVE",
"672 1475 CURVE",
"672 1523 LINE",
"44 1523 LINE",
"44 1475 LINE",
"200 1457 OFFCURVE",
"237 1442 OFFCURVE",
"272 1390 CURVE SMOOTH",
"694 745 LINE",
"280 184 LINE SMOOTH",
"213 94 OFFCURVE",
"136 64 OFFCURVE",
"-20 44 CURVE",
"-20 0 LINE"
);
}
);
visible = 1;
width = 1572;
}
);
unicode = 0058;
},
{
glyphname = Y;
layers = (
{
anchors = (
{
name = topcap;
position = "{845, 1643}";
}
);
layerId = "FA6D65B5-4623-4FAC-A199-3F662257AC29";
paths = (
{
closed = 1;
nodes = (
"1077 0 LINE",
"1077 73 LINE",
"911 115 LINE",
"911 661 LINE",
"1217 1231 LINE SMOOTH",
"1320 1421 OFFCURVE",
"1340 1437 OFFCURVE",
"1505 1451 CURVE",
"1505 1523 LINE",
"906 1523 LINE",
"906 1451 LINE",
"1125 1446 OFFCURVE",
"1171 1390 OFFCURVE",
"1088 1234 CURVE SMOOTH",
"861 801 LINE",
"853 801 LINE",
"600 1299 LINE SMOOTH",
"548 1392 OFFCURVE",
"603 1437 OFFCURVE",
"782 1451 CURVE",
"782 1523 LINE",
"-36 1523 LINE",
"-36 1451 LINE",
"104 1441 OFFCURVE",
"136 1429 OFFCURVE",
"192 1330 CURVE SMOOTH",
"570 663 LINE",
"570 115 LINE",
"402 73 LINE",
"402 0 LINE"
);
}
);
width = 1474;
},
{
anchors = (
{
name = topcap;
position = "{790, 1643}";
}
);
associatedMasterId = "FA6D65B5-4623-4FAC-A199-3F662257AC29";
layerId = "CBD44848-52BD-4DC5-BFA6-577546B7224D";
paths = (
{
closed = 1;
nodes = (
"978 0 LINE",
"978 45 LINE",
"801 83 LINE",
"801 611 LINE",
"1150 1259 LINE SMOOTH",
"1222 1390 OFFCURVE",
"1226 1447 OFFCURVE",
"1437 1479 CURVE",
"1437 1523 LINE",
"879 1523 LINE",
"879 1479 LINE",
"1016 1468 OFFCURVE",
"1084 1421 OFFCURVE",
"1084 1348 CURVE SMOOTH",
"1084 1322 OFFCURVE",
"1077 1294 OFFCURVE",
"1061 1263 CURVE SMOOTH",
"786 743 LINE",
"778 743 LINE",
"451 1325 LINE SMOOTH",
"435 1356 OFFCURVE",
"425 1383 OFFCURVE",
"425 1406 CURVE SMOOTH",
"425 1445 OFFCURVE",
"461 1468 OFFCURVE",
"633 1479 CURVE",
"633 1523 LINE",
"-16 1523 LINE",
"-16 1479 LINE",
"122 1468 OFFCURVE",
"144 1441 OFFCURVE",
"192 1358 CURVE SMOOTH",
"594 648 LINE",
"594 83 LINE",
"416 45 LINE",
"416 0 LINE"
);
}
);
width = 1404;
},
{
anchors = (
{
name = topcap;
position = "{797, 1643}";
}
);
layerId = "7C8D72FA-6E62-4564-8BB2-D9F9BC4EB15A";
paths = (
{
closed = 1;
nodes = (
"990 0 LINE",
"990 48 LINE",
"816 88 LINE",
"816 618 LINE",
"1160 1255 LINE SMOOTH",
"1234 1394 OFFCURVE",
"1242 1446 OFFCURVE",
"1446 1475 CURVE",
"1446 1523 LINE",
"882 1523 LINE",
"882 1475 LINE",
"1066 1464 OFFCURVE",
"1128 1390 OFFCURVE",
"1064 1259 CURVE SMOOTH",
"796 750 LINE",
"789 750 LINE",
"471 1322 LINE SMOOTH",
"413 1435 OFFCURVE",
"447 1462 OFFCURVE",
"653 1475 CURVE",
"653 1523 LINE",
"-18 1523 LINE",
"-18 1475 LINE",
"120 1465 OFFCURVE",
"143 1439 OFFCURVE",
"192 1354 CURVE SMOOTH",
"591 649 LINE",
"591 88 LINE",
"415 48 LINE",
"415 0 LINE"
);
}
);
width = 1413;
},
{
anchors = (
{
name = topcap;
position = "{845, 1643}";
}
);
associatedMasterId = "FA6D65B5-4623-4FAC-A199-3F662257AC29";
layerId = "FF123EB3-717F-41DE-91F1-9AD46AFBB2AD";
name = "Jan 7 19, 14:33";
paths = (
{
closed = 1;
nodes = (
"1077 0 LINE",
"1077 73 LINE",
"911 115 LINE",
"911 661 LINE",
"1217 1231 LINE SMOOTH",
"1320 1421 OFFCURVE",
"1340 1437 OFFCURVE",
"1505 1451 CURVE",
"1505 1523 LINE",
"906 1523 LINE",
"906 1451 LINE",
"1069 1447 OFFCURVE",
"1126 1416 OFFCURVE",
"1126 1354 CURVE SMOOTH",
"1126 1325 OFFCURVE",
"1115 1284 OFFCURVE",
"1088 1234 CURVE SMOOTH",
"861 801 LINE",
"853 801 LINE",
"600 1299 LINE SMOOTH",
"588 1320 OFFCURVE",
"582 1338 OFFCURVE",
"582 1356 CURVE SMOOTH",
"582 1404 OFFCURVE",
"622 1439 OFFCURVE",
"782 1451 CURVE",
"782 1523 LINE",
"-36 1523 LINE",
"-36 1451 LINE",
"104 1441 OFFCURVE",
"136 1429 OFFCURVE",
"192 1330 CURVE SMOOTH",
"570 663 LINE",
"570 115 LINE",
"402 73 LINE",
"402 0 LINE"
);
}
);
visible = 1;
width = 1474;
},
{
anchors = (
{
name = topcap;
position = "{797, 1643}";
}
);
associatedMasterId = "7C8D72FA-6E62-4564-8BB2-D9F9BC4EB15A";
layerId = "70888B9A-CEDB-4DC8-8676-D70E2E1723CE";
name = "Jan 7 19, 14:33";
paths = (
{
closed = 1;
nodes = (
"990 0 LINE",
"990 48 LINE",
"816 88 LINE",
"816 618 LINE",
"1160 1255 LINE SMOOTH",
"1234 1394 OFFCURVE",
"1242 1446 OFFCURVE",
"1446 1475 CURVE",
"1446 1523 LINE",
"882 1523 LINE",
"882 1475 LINE",
"1023 1466 OFFCURVE",
"1089 1421 OFFCURVE",
"1089 1350 CURVE SMOOTH",
"1089 1323 OFFCURVE",
"1081 1293 OFFCURVE",
"1064 1259 CURVE SMOOTH",
"796 750 LINE",
"789 750 LINE",
"471 1322 LINE SMOOTH",
"456 1352 OFFCURVE",
"446 1377 OFFCURVE",
"446 1399 CURVE SMOOTH",
"446 1439 OFFCURVE",
"482 1465 OFFCURVE",
"653 1475 CURVE",
"653 1523 LINE",
"-18 1523 LINE",
"-18 1475 LINE",
"120 1465 OFFCURVE",
"143 1439 OFFCURVE",
"192 1354 CURVE SMOOTH",
"591 649 LINE",
"591 88 LINE",
"415 48 LINE",
"415 0 LINE"
);
}
);
width = 1413;
}
);
leftKerningGroup = Y;
rightKerningGroup = Y;
unicode = 0059;
},
{
glyphname = Z;
layers = (
{
anchors = (
{
name = bottom;
position = "{630, 0}";
},
{
name = topcap;
position = "{768, 1643}";
}
);
layerId = "FA6D65B5-4623-4FAC-A199-3F662257AC29";
paths = (
{
closed = 1;
nodes = (
"1259 0 LINE",
"1383 514 LINE",
"1300 518 LINE",
"1239 359 OFFCURVE",
"1185 256 OFFCURVE",
"1084 109 CURVE",
"512 109 LINE",
"1344 1451 LINE",
"1344 1523 LINE",
"196 1523 LINE",
"94 1076 LINE",
"176 1071 LINE",
"203 1153 OFFCURVE",
"261 1275 OFFCURVE",
"341 1415 CURVE",
"881 1415 LINE",
"54 75 LINE",
"54 0 LINE"
);
}
);
width = 1445;
},
{
anchors = (
{
name = bottom;
position = "{630, 0}";
},
{
name = topcap;
position = "{706, 1643}";
}
);
associatedMasterId = "FA6D65B5-4623-4FAC-A199-3F662257AC29";
layerId = "CBD44848-52BD-4DC5-BFA6-577546B7224D";
paths = (
{
closed = 1;
nodes = (
"1148 0 LINE",
"1251 482 LINE",
"1200 489 LINE",
"1164 401 OFFCURVE",
"1101 256 OFFCURVE",
"1008 115 CURVE SMOOTH",
"983 78 LINE",
"322 78 LINE",
"1232 1470 LINE",
"1232 1523 LINE",
"204 1523 LINE",
"120 1093 LINE",
"172 1090 LINE",
"192 1150 OFFCURVE",
"237 1261 OFFCURVE",
"314 1401 CURVE SMOOTH",
"339 1445 LINE",
"968 1445 LINE",
"62 55 LINE",
"62 0 LINE"
);
}
);
width = 1338;
},
{
anchors = (
{
name = bottom;
position = "{630, 0}";
},
{
name = topcap;
position = "{714, 1643}";
}
);
layerId = "7C8D72FA-6E62-4564-8BB2-D9F9BC4EB15A";
paths = (
{
closed = 1;
nodes = (
"1163 0 LINE",
"1268 487 LINE",
"1214 493 LINE",
"1142 322 OFFCURVE",
"1089 220 OFFCURVE",
"997 83 CURVE",
"348 83 LINE",
"1247 1468 LINE",
"1247 1523 LINE",
"203 1523 LINE",
"116 1090 LINE",
"173 1088 LINE",
"200 1172 OFFCURVE",
"252 1284 OFFCURVE",
"339 1441 CURVE",
"957 1441 LINE",
"61 58 LINE",
"61 0 LINE"
);
}
);
width = 1352;
}
);
leftKerningGroup = Z;
rightKerningGroup = Z;
unicode = 005A;
},
{
glyphname = a;
layers = (
{
anchors = (
{
name = bottom;
position = "{577, 0}";
},
{
name = ogonekcurve;
position = "{1131, 77}";
},
{
name = top;
position = "{510, 1289}";
}
);
layerId = "FA6D65B5-4623-4FAC-A199-3F662257AC29";
paths = (
{
closed = 1;
nodes = (
"457 -21 OFFCURVE",
"562 29 OFFCURVE",
"661 136 CURVE",
"669 136 LINE",
"689 31 OFFCURVE",
"752 -21 OFFCURVE",
"881 -21 CURVE SMOOTH",
"994 -21 OFFCURVE",
"1084 22 OFFCURVE",
"1170 113 CURVE",
"1125 177 LINE",
"1096 146 OFFCURVE",
"1067 130 OFFCURVE",
"1036 130 CURVE SMOOTH",
"983 130 OFFCURVE",
"962 180 OFFCURVE",
"962 297 CURVE SMOOTH",
"962 705 LINE SMOOTH",
"962 851 OFFCURVE",
"948 920 OFFCURVE",
"917 970 CURVE SMOOTH",
"873 1034 OFFCURVE",
"788 1069 OFFCURVE",
"646 1069 CURVE SMOOTH",
"503 1069 OFFCURVE",
"372 1034 OFFCURVE",
"271 970 CURVE SMOOTH",
"172 904 OFFCURVE",
"115 818 OFFCURVE",
"115 735 CURVE SMOOTH",
"115 655 OFFCURVE",
"168 600 OFFCURVE",
"245 600 CURVE SMOOTH",
"322 600 OFFCURVE",
"382 656 OFFCURVE",
"382 732 CURVE SMOOTH",
"382 760 OFFCURVE",
"374 790 OFFCURVE",
"374 820 CURVE SMOOTH",
"374 903 OFFCURVE",
"435 953 OFFCURVE",
"534 953 CURVE SMOOTH",
"630 953 OFFCURVE",
"655 906 OFFCURVE",
"655 727 CURVE SMOOTH",
"655 582 LINE",
"256 526 OFFCURVE",
"75 411 OFFCURVE",
"75 214 CURVE SMOOTH",
"75 68 OFFCURVE",
"174 -21 OFFCURVE",
"336 -21 CURVE SMOOTH"
);
},
{
closed = 1;
nodes = (
"441 167 OFFCURVE",
"406 208 OFFCURVE",
"406 295 CURVE SMOOTH",
"406 406 OFFCURVE",
"463 451 OFFCURVE",
"655 489 CURVE",
"655 223 LINE",
"620 185 OFFCURVE",
"572 167 OFFCURVE",
"518 167 CURVE SMOOTH"
);
}
);
width = 1158;
},
{
anchors = (
{
name = bottom;
position = "{812, 0}";
},
{
name = top;
position = "{523, 1289}";
}
);
associatedMasterId = "FA6D65B5-4623-4FAC-A199-3F662257AC29";
layerId = "CBD44848-52BD-4DC5-BFA6-577546B7224D";
paths = (
{
closed = 1;
nodes = (
"450 -21 OFFCURVE",
"565 50 OFFCURVE",
"644 162 CURVE",
"648 159 LINE",
"663 37 OFFCURVE",
"721 -21 OFFCURVE",
"826 -21 CURVE SMOOTH",
"911 -21 OFFCURVE",
"970 18 OFFCURVE",
"1032 113 CURVE",
"997 143 LINE",
"964 101 OFFCURVE",
"937 85 OFFCURVE",
"900 85 CURVE SMOOTH",
"843 85 OFFCURVE",
"828 120 OFFCURVE",
"828 252 CURVE SMOOTH",
"828 705 LINE SMOOTH",
"828 871 OFFCURVE",
"823 919 OFFCURVE",
"801 964 CURVE SMOOTH",
"768 1032 OFFCURVE",
"685 1069 OFFCURVE",
"572 1069 CURVE SMOOTH",
"487 1069 OFFCURVE",
"398 1047 OFFCURVE",
"320 1008 CURVE SMOOTH",
"192 942 OFFCURVE",
"107 841 OFFCURVE",
"107 754 CURVE SMOOTH",
"107 697 OFFCURVE",
"144 659 OFFCURVE",
"198 659 CURVE SMOOTH",
"258 659 OFFCURVE",
"302 706 OFFCURVE",
"302 774 CURVE SMOOTH",
"302 796 OFFCURVE",
"297 821 OFFCURVE",
"297 843 CURVE SMOOTH",
"297 936 OFFCURVE",
"367 994 OFFCURVE",
"481 994 CURVE SMOOTH",
"596 994 OFFCURVE",
"639 933 OFFCURVE",
"639 766 CURVE SMOOTH",
"639 572 LINE",
"242 487 OFFCURVE",
"97 394 OFFCURVE",
"97 221 CURVE SMOOTH",
"97 78 OFFCURVE",
"193 -21 OFFCURVE",
"334 -21 CURVE SMOOTH"
);
},
{
closed = 1;
nodes = (
"326 97 OFFCURVE",
"273 157 OFFCURVE",
"273 264 CURVE SMOOTH",
"273 401 OFFCURVE",
"360 458 OFFCURVE",
"639 515 CURVE",
"639 229 LINE",
"588 146 OFFCURVE",
"507 97 OFFCURVE",
"421 97 CURVE SMOOTH"
);
}
);
width = 1039;
},
{
anchors = (
{
name = bottom;
position = "{517, 0}";
},
{
name = ogonekcurve;
position = "{1020, 77}";
},
{
name = top;
position = "{522, 1289}";
}
);
layerId = "7C8D72FA-6E62-4564-8BB2-D9F9BC4EB15A";
paths = (
{
closed = 1;
nodes = (
"451 -21 OFFCURVE",
"565 47 OFFCURVE",
"641 157 CURVE",
"647 157 LINE",
"667 37 OFFCURVE",
"725 -21 OFFCURVE",
"833 -21 CURVE SMOOTH",
"922 -21 OFFCURVE",
"985 18 OFFCURVE",
"1050 113 CURVE",
"1014 147 LINE",
"981 107 OFFCURVE",
"955 91 OFFCURVE",
"919 91 CURVE SMOOTH",
"862 91 OFFCURVE",
"845 128 OFFCURVE",
"845 258 CURVE SMOOTH",
"845 705 LINE SMOOTH",
"845 868 OFFCURVE",
"839 919 OFFCURVE",
"818 965 CURVE SMOOTH",
"782 1032 OFFCURVE",
"699 1069 OFFCURVE",
"583 1069 CURVE SMOOTH",
"489 1069 OFFCURVE",
"395 1046 OFFCURVE",
"314 1003 CURVE SMOOTH",
"190 937 OFFCURVE",
"108 838 OFFCURVE",
"108 752 CURVE SMOOTH",
"108 692 OFFCURVE",
"147 651 OFFCURVE",
"204 651 CURVE SMOOTH",
"266 651 OFFCURVE",
"312 700 OFFCURVE",
"312 768 CURVE SMOOTH",
"312 791 OFFCURVE",
"307 816 OFFCURVE",
"307 841 CURVE SMOOTH",
"307 932 OFFCURVE",
"377 989 OFFCURVE",
"488 989 CURVE SMOOTH",
"600 989 OFFCURVE",
"641 929 OFFCURVE",
"641 760 CURVE SMOOTH",
"641 573 LINE",
"244 492 OFFCURVE",
"94 396 OFFCURVE",
"94 220 CURVE SMOOTH",
"94 77 OFFCURVE",
"191 -21 OFFCURVE",
"334 -21 CURVE SMOOTH"
);
},
{
closed = 1;
nodes = (
"341 106 OFFCURVE",
"291 164 OFFCURVE",
"291 267 CURVE SMOOTH",
"291 401 OFFCURVE",
"373 458 OFFCURVE",
"641 511 CURVE",
"641 229 LINE",
"592 152 OFFCURVE",
"516 106 OFFCURVE",
"434 106 CURVE SMOOTH"
);
}
);
width = 1055;
}
);
leftKerningGroup = a;
rightKerningGroup = a;
unicode = 0061;
userData = {
com.typemytype.robofont.guides = (
{
angle = 359.5;
isGlobal = 0;
magnetic = 5;
x = 0;
y = 84;
}
);
};
},
{
glyphname = ae;
layers = (
{
layerId = "FA6D65B5-4623-4FAC-A199-3F662257AC29";
paths = (
{
closed = 1;
nodes = (
"983 834 OFFCURVE",
"1071 968 OFFCURVE",
"1222 968 CURVE SMOOTH",
"1337 968 OFFCURVE",
"1398 895 OFFCURVE",
"1398 758 CURVE SMOOTH",
"1398 732 OFFCURVE",
"1393 697 OFFCURVE",
"1390 683 CURVE",
"968 668 LINE",
"965 573 LINE",
"1703 573 LINE",
"1718 586 LINE",
"1709 903 OFFCURVE",
"1549 1069 OFFCURVE",
"1247 1069 CURVE SMOOTH",
"1116 1069 OFFCURVE",
"1000 1036 OFFCURVE",
"906 980 CURVE",
"849 1043 OFFCURVE",
"774 1069 OFFCURVE",
"648 1069 CURVE SMOOTH",
"500 1069 OFFCURVE",
"367 1033 OFFCURVE",
"271 970 CURVE SMOOTH",
"174 904 OFFCURVE",
"115 813 OFFCURVE",
"115 732 CURVE SMOOTH",
"115 655 OFFCURVE",
"168 600 OFFCURVE",
"245 600 CURVE SMOOTH",
"322 600 OFFCURVE",
"382 656 OFFCURVE",
"382 732 CURVE SMOOTH",
"382 760 OFFCURVE",
"374 790 OFFCURVE",
"374 820 CURVE SMOOTH",
"374 903 OFFCURVE",
"435 953 OFFCURVE",
"534 953 CURVE SMOOTH",
"630 953 OFFCURVE",
"655 906 OFFCURVE",
"655 727 CURVE SMOOTH",
"655 582 LINE",
"253 526 OFFCURVE",
"75 411 OFFCURVE",
"75 212 CURVE SMOOTH",
"75 66 OFFCURVE",
"172 -21 OFFCURVE",
"344 -21 CURVE SMOOTH",
"487 -21 OFFCURVE",
"603 39 OFFCURVE",
"746 182 CURVE",
"754 182 LINE",
"848 55 OFFCURVE",
"1003 -21 OFFCURVE",
"1198 -21 CURVE SMOOTH",
"1434 -21 OFFCURVE",
"1613 91 OFFCURVE",
"1685 283 CURVE",
"1629 330 LINE",
"1551 236 OFFCURVE",
"1432 184 OFFCURVE",
"1293 184 CURVE SMOOTH",
"1082 184 OFFCURVE",
"983 318 OFFCURVE",
"983 600 CURVE SMOOTH"
);
},
{
closed = 1;
nodes = (
"451 167 OFFCURVE",
"406 212 OFFCURVE",
"406 289 CURVE SMOOTH",
"406 392 OFFCURVE",
"482 456 OFFCURVE",
"653 489 CURVE",
"655 408 OFFCURVE",
"672 326 OFFCURVE",
"706 258 CURVE",
"644 196 OFFCURVE",
"584 167 OFFCURVE",
"524 167 CURVE SMOOTH"
);
}
);
width = 1777;
},
{
associatedMasterId = "FA6D65B5-4623-4FAC-A199-3F662257AC29";
layerId = "CBD44848-52BD-4DC5-BFA6-577546B7224D";
paths = (
{
closed = 1;
nodes = (
"458 -21 OFFCURVE",
"606 68 OFFCURVE",
"700 214 CURVE",
"708 214 LINE",
"788 68 OFFCURVE",
"933 -21 OFFCURVE",
"1115 -21 CURVE SMOOTH",
"1308 -21 OFFCURVE",
"1470 78 OFFCURVE",
"1540 240 CURVE SMOOTH",
"1552 267 LINE",
"1518 287 LINE",
"1495 258 LINE SMOOTH",
"1427 174 OFFCURVE",
"1307 124 OFFCURVE",
"1177 124 CURVE SMOOTH",
"942 124 OFFCURVE",
"837 275 OFFCURVE",
"837 609 CURVE",
"1559 609 LINE",
"1573 622 LINE",
"1567 914 OFFCURVE",
"1427 1069 OFFCURVE",
"1168 1069 CURVE SMOOTH",
"1024 1069 OFFCURVE",
"903 1021 OFFCURVE",
"812 937 CURVE",
"778 1032 OFFCURVE",
"685 1069 OFFCURVE",
"572 1069 CURVE SMOOTH",
"487 1069 OFFCURVE",
"398 1047 OFFCURVE",
"320 1008 CURVE SMOOTH",
"192 942 OFFCURVE",
"107 841 OFFCURVE",
"107 754 CURVE SMOOTH",
"107 697 OFFCURVE",
"144 659 OFFCURVE",
"198 659 CURVE SMOOTH",
"258 659 OFFCURVE",
"302 706 OFFCURVE",
"302 774 CURVE SMOOTH",
"302 796 OFFCURVE",
"297 821 OFFCURVE",
"297 843 CURVE SMOOTH",
"297 936 OFFCURVE",
"367 994 OFFCURVE",
"481 994 CURVE SMOOTH",
"596 994 OFFCURVE",
"639 933 OFFCURVE",
"639 766 CURVE SMOOTH",
"639 572 LINE",
"240 487 OFFCURVE",
"97 394 OFFCURVE",
"97 219 CURVE SMOOTH",
"97 78 OFFCURVE",
"196 -21 OFFCURVE",
"336 -21 CURVE SMOOTH"
);
},
{
closed = 1;
nodes = (
"326 97 OFFCURVE",
"273 159 OFFCURVE",
"273 264 CURVE SMOOTH",
"273 401 OFFCURVE",
"360 458 OFFCURVE",
"639 515 CURVE",
"639 421 OFFCURVE",
"653 342 OFFCURVE",
"681 273 CURVE",
"615 168 OFFCURVE",
"510 97 OFFCURVE",
"419 97 CURVE SMOOTH"
);
},
{
closed = 1;
nodes = (
"867 886 OFFCURVE",
"976 1008 OFFCURVE",
"1150 1008 CURVE SMOOTH",
"1292 1008 OFFCURVE",
"1366 925 OFFCURVE",
"1366 762 CURVE SMOOTH",
"1366 730 OFFCURVE",
"1365 697 OFFCURVE",
"1360 683 CURVE",
"841 664 LINE"
);
}
);
width = 1655;
},
{
layerId = "7C8D72FA-6E62-4564-8BB2-D9F9BC4EB15A";
paths = (
{
closed = 1;
nodes = (
"858 813 OFFCURVE",
"943 1002 OFFCURVE",
"1160 1002 CURVE SMOOTH",
"1299 1002 OFFCURVE",
"1370 922 OFFCURVE",
"1370 762 CURVE SMOOTH",
"1370 731 OFFCURVE",
"1368 705 OFFCURVE",
"1363 683 CURVE",
"848 666 LINE",
"844 605 LINE",
"1579 605 LINE",
"1593 617 LINE",
"1587 913 OFFCURVE",
"1444 1069 OFFCURVE",
"1179 1069 CURVE SMOOTH",
"1038 1069 OFFCURVE",
"915 1024 OFFCURVE",
"823 945 CURVE",
"786 1033 OFFCURVE",
"696 1069 OFFCURVE",
"583 1069 CURVE SMOOTH",
"488 1069 OFFCURVE",
"394 1046 OFFCURVE",
"314 1003 CURVE SMOOTH",
"190 937 OFFCURVE",
"108 837 OFFCURVE",
"108 752 CURVE SMOOTH",
"108 692 OFFCURVE",
"147 651 OFFCURVE",
"204 651 CURVE SMOOTH",
"266 651 OFFCURVE",
"312 700 OFFCURVE",
"312 768 CURVE SMOOTH",
"312 791 OFFCURVE",
"307 816 OFFCURVE",
"307 841 CURVE SMOOTH",
"307 932 OFFCURVE",
"377 989 OFFCURVE",
"488 989 CURVE SMOOTH",
"600 989 OFFCURVE",
"641 929 OFFCURVE",
"641 760 CURVE SMOOTH",
"641 573 LINE",
"242 492 OFFCURVE",
"94 396 OFFCURVE",
"94 219 CURVE SMOOTH",
"94 77 OFFCURVE",
"192 -21 OFFCURVE",
"337 -21 CURVE SMOOTH",
"463 -21 OFFCURVE",
"606 63 OFFCURVE",
"707 210 CURVE",
"714 210 LINE",
"796 66 OFFCURVE",
"942 -21 OFFCURVE",
"1126 -21 CURVE SMOOTH",
"1337 -21 OFFCURVE",
"1499 85 OFFCURVE",
"1569 269 CURVE",
"1533 292 LINE",
"1457 188 OFFCURVE",
"1338 132 OFFCURVE",
"1195 132 CURVE SMOOTH",
"972 132 OFFCURVE",
"858 281 OFFCURVE",
"858 567 CURVE SMOOTH"
);
},
{
closed = 1;
nodes = (
"343 106 OFFCURVE",
"291 166 OFFCURVE",
"291 267 CURVE SMOOTH",
"291 400 OFFCURVE",
"377 458 OFFCURVE",
"640 511 CURVE",
"641 420 OFFCURVE",
"656 340 OFFCURVE",
"684 271 CURVE",
"618 173 OFFCURVE",
"520 106 OFFCURVE",
"433 106 CURVE SMOOTH"
);
}
);
width = 1671;
},
{
associatedMasterId = "7C8D72FA-6E62-4564-8BB2-D9F9BC4EB15A";
layerId = "31185475-9B13-491A-BD70-90092102E026";
name = "Jan 7 19, 14:43";
paths = (
{
closed = 1;
nodes = (
"463 -21 OFFCURVE",
"606 63 OFFCURVE",
"707 210 CURVE",
"715 210 LINE",
"796 66 OFFCURVE",
"942 -21 OFFCURVE",
"1125 -21 CURVE SMOOTH",
"1323 -21 OFFCURVE",
"1488 79 OFFCURVE",
"1558 242 CURVE SMOOTH",
"1569 269 LINE",
"1533 292 LINE",
"1511 265 LINE SMOOTH",
"1443 182 OFFCURVE",
"1322 132 OFFCURVE",
"1193 132 CURVE SMOOTH",
"962 132 OFFCURVE",
"857 281 OFFCURVE",
"856 605 CURVE",
"1579 605 LINE",
"1593 617 LINE",
"1587 913 OFFCURVE",
"1443 1069 OFFCURVE",
"1178 1069 CURVE SMOOTH",
"1035 1069 OFFCURVE",
"917 1024 OFFCURVE",
"824 943 CURVE",
"788 1033 OFFCURVE",
"697 1069 OFFCURVE",
"583 1069 CURVE SMOOTH",
"488 1069 OFFCURVE",
"394 1046 OFFCURVE",
"314 1003 CURVE SMOOTH",
"190 937 OFFCURVE",
"108 837 OFFCURVE",
"108 752 CURVE SMOOTH",
"108 692 OFFCURVE",
"147 651 OFFCURVE",
"204 651 CURVE SMOOTH",
"266 651 OFFCURVE",
"312 700 OFFCURVE",
"312 768 CURVE SMOOTH",
"312 791 OFFCURVE",
"307 816 OFFCURVE",
"307 841 CURVE SMOOTH",
"307 932 OFFCURVE",
"377 989 OFFCURVE",
"488 989 CURVE SMOOTH",
"600 989 OFFCURVE",
"641 929 OFFCURVE",
"641 760 CURVE SMOOTH",
"641 573 LINE",
"242 492 OFFCURVE",
"94 396 OFFCURVE",
"94 219 CURVE SMOOTH",
"94 77 OFFCURVE",
"192 -21 OFFCURVE",
"337 -21 CURVE SMOOTH"
);
},
{
closed = 1;
nodes = (
"343 106 OFFCURVE",
"291 166 OFFCURVE",
"291 267 CURVE SMOOTH",
"291 400 OFFCURVE",
"377 458 OFFCURVE",
"640 511 CURVE",
"641 420 OFFCURVE",
"656 340 OFFCURVE",
"684 271 CURVE",
"618 173 OFFCURVE",
"520 106 OFFCURVE",
"433 106 CURVE SMOOTH"
);
},
{
closed = 1;
nodes = (
"886 882 OFFCURVE",
"990 1002 OFFCURVE",
"1160 1002 CURVE SMOOTH",
"1298 1002 OFFCURVE",
"1369 920 OFFCURVE",
"1369 762 CURVE SMOOTH",
"1369 730 OFFCURVE",
"1368 698 OFFCURVE",
"1363 683 CURVE",
"860 664 LINE"
);
}
);
width = 1671;
},
{
associatedMasterId = "FA6D65B5-4623-4FAC-A199-3F662257AC29";
layerId = "F182206B-4591-4B02-AF8B-214E477D2075";
name = "Jan 7 19, 14:43";
paths = (
{
closed = 1;
nodes = (
"487 -21 OFFCURVE",
"603 39 OFFCURVE",
"746 182 CURVE",
"754 182 LINE",
"849 52 OFFCURVE",
"1005 -21 OFFCURVE",
"1193 -21 CURVE SMOOTH",
"1419 -21 OFFCURVE",
"1602 85 OFFCURVE",
"1674 260 CURVE SMOOTH",
"1685 283 LINE",
"1628 330 LINE",
"1614 314 LINE SMOOTH",
"1544 234 OFFCURVE",
"1421 184 OFFCURVE",
"1292 184 CURVE SMOOTH",
"1086 184 OFFCURVE",
"983 312 OFFCURVE",
"982 573 CURVE",
"1703 573 LINE",
"1718 586 LINE",
"1708 904 OFFCURVE",
"1546 1069 OFFCURVE",
"1247 1069 CURVE SMOOTH",
"1117 1069 OFFCURVE",
"1002 1039 OFFCURVE",
"906 980 CURVE",
"849 1043 OFFCURVE",
"774 1069 OFFCURVE",
"648 1069 CURVE SMOOTH",
"500 1069 OFFCURVE",
"367 1033 OFFCURVE",
"271 970 CURVE SMOOTH",
"174 904 OFFCURVE",
"115 813 OFFCURVE",
"115 732 CURVE SMOOTH",
"115 655 OFFCURVE",
"168 600 OFFCURVE",
"245 600 CURVE SMOOTH",
"322 600 OFFCURVE",
"382 656 OFFCURVE",
"382 732 CURVE SMOOTH",
"382 760 OFFCURVE",
"374 790 OFFCURVE",
"374 820 CURVE SMOOTH",
"374 903 OFFCURVE",
"435 953 OFFCURVE",
"534 953 CURVE SMOOTH",
"630 953 OFFCURVE",
"655 906 OFFCURVE",
"655 727 CURVE SMOOTH",
"655 582 LINE",
"253 526 OFFCURVE",
"75 411 OFFCURVE",
"75 212 CURVE SMOOTH",
"75 66 OFFCURVE",
"172 -21 OFFCURVE",
"344 -21 CURVE SMOOTH"
);
},
{
closed = 1;
nodes = (
"451 167 OFFCURVE",
"406 212 OFFCURVE",
"406 289 CURVE SMOOTH",
"406 392 OFFCURVE",
"482 456 OFFCURVE",
"653 489 CURVE",
"655 408 OFFCURVE",
"672 326 OFFCURVE",
"706 258 CURVE",
"644 196 OFFCURVE",
"584 167 OFFCURVE",
"524 167 CURVE SMOOTH"
);
},
{
closed = 1;
nodes = (
"1002 861 OFFCURVE",
"1086 968 OFFCURVE",
"1224 968 CURVE SMOOTH",
"1336 968 OFFCURVE",
"1398 895 OFFCURVE",
"1398 762 CURVE SMOOTH",
"1398 732 OFFCURVE",
"1393 702 OFFCURVE",
"1390 683 CURVE",
"985 667 LINE"
);
}
);
visible = 1;
width = 1777;
}
);
leftKerningGroup = a;
rightKerningGroup = e;
unicode = 00E6;
userData = {
com.typemytype.robofont.guides = (
{
angle = 90;
isGlobal = 0;
magnetic = 5;
x = -118;
y = 0;
}
);
};
},
{
glyphname = b;
layers = (
{
layerId = "FA6D65B5-4623-4FAC-A199-3F662257AC29";
paths = (
{
closed = 1;
nodes = (
"995 -21 OFFCURVE",
"1229 234 OFFCURVE",
"1229 568 CURVE SMOOTH",
"1229 865 OFFCURVE",
"1051 1069 OFFCURVE",
"792 1069 CURVE SMOOTH",
"664 1069 OFFCURVE",
"552 1016 OFFCURVE",
"463 928 CURVE",
"463 1643 LINE",
"419 1643 LINE",
"-10 1546 LINE",
"-10 1500 LINE",
"157 1447 LINE",
"157 0 LINE",
"214 0 LINE",
"383 71 LINE",
"396 71 LINE",
"481 13 OFFCURVE",
"586 -21 OFFCURVE",
"693 -21 CURVE SMOOTH"
);
},
{
closed = 1;
nodes = (
"539 86 OFFCURVE",
"463 185 OFFCURVE",
"463 336 CURVE SMOOTH",
"463 799 LINE",
"510 871 OFFCURVE",
"576 914 OFFCURVE",
"655 914 CURVE SMOOTH",
"807 914 OFFCURVE",
"895 763 OFFCURVE",
"895 512 CURVE SMOOTH",
"895 258 OFFCURVE",
"799 86 OFFCURVE",
"653 86 CURVE SMOOTH"
);
}
);
width = 1302;
},
{
associatedMasterId = "FA6D65B5-4623-4FAC-A199-3F662257AC29";
layerId = "CBD44848-52BD-4DC5-BFA6-577546B7224D";
paths = (
{
closed = 1;
nodes = (
"875 -21 OFFCURVE",
"1101 234 OFFCURVE",
"1101 568 CURVE SMOOTH",
"1101 865 OFFCURVE",
"922 1069 OFFCURVE",
"663 1069 CURVE SMOOTH",
"547 1069 OFFCURVE",
"446 1024 OFFCURVE",
"362 935 CURVE",
"362 1643 LINE",
"342 1643 LINE",
"28 1546 LINE",
"28 1520 LINE",
"172 1466 LINE",
"172 0 LINE",
"204 0 LINE",
"295 71 LINE",
"305 71 LINE",
"383 13 OFFCURVE",
"479 -21 OFFCURVE",
"578 -21 CURVE SMOOTH"
);
},
{
closed = 1;
nodes = (
"448 47 OFFCURVE",
"362 146 OFFCURVE",
"362 297 CURVE SMOOTH",
"362 859 LINE",
"413 922 OFFCURVE",
"491 962 OFFCURVE",
"580 962 CURVE SMOOTH",
"772 962 OFFCURVE",
"888 792 OFFCURVE",
"888 512 CURVE SMOOTH",
"888 234 OFFCURVE",
"766 47 OFFCURVE",
"578 47 CURVE SMOOTH"
);
}
);
width = 1192;
},
{
layerId = "7C8D72FA-6E62-4564-8BB2-D9F9BC4EB15A";
paths = (
{
closed = 1;
nodes = (
"891 -21 OFFCURVE",
"1118 234 OFFCURVE",
"1118 568 CURVE SMOOTH",
"1118 865 OFFCURVE",
"940 1069 OFFCURVE",
"681 1069 CURVE SMOOTH",
"562 1069 OFFCURVE",
"459 1023 OFFCURVE",
"375 934 CURVE",
"375 1643 LINE",
"352 1643 LINE",
"23 1546 LINE",
"23 1518 LINE",
"170 1464 LINE",
"170 0 LINE",
"205 0 LINE",
"306 71 LINE",
"317 71 LINE",
"396 13 OFFCURVE",
"493 -21 OFFCURVE",
"593 -21 CURVE SMOOTH"
);
},
{
closed = 1;
nodes = (
"459 53 OFFCURVE",
"375 152 OFFCURVE",
"375 302 CURVE SMOOTH",
"375 851 LINE",
"427 915 OFFCURVE",
"502 955 OFFCURVE",
"591 955 CURVE SMOOTH",
"776 955 OFFCURVE",
"889 788 OFFCURVE",
"889 512 CURVE SMOOTH",
"889 237 OFFCURVE",
"770 53 OFFCURVE",
"588 53 CURVE SMOOTH"
);
}
);
width = 1207;
}
);
leftKerningGroup = b;
rightKerningGroup = b;
unicode = 0062;
},
{
glyphname = c;
layers = (
{
anchors = (
{
name = bottom;
position = "{621, 0}";
},
{
name = top;
position = "{644, 1289}";
}
);
layerId = "FA6D65B5-4623-4FAC-A199-3F662257AC29";
paths = (
{
closed = 1;
nodes = (
"818 -21 OFFCURVE",
"964 78 OFFCURVE",
"1047 286 CURVE",
"991 329 LINE",
"907 230 OFFCURVE",
"813 184 OFFCURVE",
"686 184 CURVE SMOOTH",
"500 184 OFFCURVE",
"404 318 OFFCURVE",
"404 572 CURVE SMOOTH",
"404 823 OFFCURVE",
"496 966 OFFCURVE",
"655 966 CURVE SMOOTH",
"754 966 OFFCURVE",
"776 889 OFFCURVE",
"789 788 CURVE SMOOTH",
"797 729 OFFCURVE",
"820 659 OFFCURVE",
"919 659 CURVE SMOOTH",
"1001 659 OFFCURVE",
"1052 710 OFFCURVE",
"1052 791 CURVE SMOOTH",
"1052 950 OFFCURVE",
"877 1069 OFFCURVE",
"645 1069 CURVE SMOOTH",
"310 1069 OFFCURVE",
"71 836 OFFCURVE",
"71 510 CURVE SMOOTH",
"71 203 OFFCURVE",
"288 -21 OFFCURVE",
"592 -21 CURVE SMOOTH"
);
}
);
width = 1102;
},
{
anchors = (
{
name = bottom;
position = "{576, 0}";
},
{
name = top;
position = "{609, 1289}";
}
);
associatedMasterId = "FA6D65B5-4623-4FAC-A199-3F662257AC29";
layerId = "CBD44848-52BD-4DC5-BFA6-577546B7224D";
paths = (
{
closed = 1;
nodes = (
"766 -21 OFFCURVE",
"914 78 OFFCURVE",
"982 253 CURVE SMOOTH",
"991 279 LINE",
"953 299 LINE",
"933 268 LINE SMOOTH",
"861 172 OFFCURVE",
"752 124 OFFCURVE",
"633 124 CURVE SMOOTH",
"417 124 OFFCURVE",
"292 281 OFFCURVE",
"292 550 CURVE SMOOTH",
"292 828 OFFCURVE",
"413 1005 OFFCURVE",
"623 1005 CURVE SMOOTH",
"713 1005 OFFCURVE",
"750 978 OFFCURVE",
"766 846 CURVE SMOOTH",
"776 762 OFFCURVE",
"813 722 OFFCURVE",
"883 722 CURVE SMOOTH",
"940 722 OFFCURVE",
"974 768 OFFCURVE",
"974 836 CURVE SMOOTH",
"974 962 OFFCURVE",
"820 1069 OFFCURVE",
"617 1069 CURVE SMOOTH",
"310 1069 OFFCURVE",
"91 837 OFFCURVE",
"91 510 CURVE SMOOTH",
"91 198 OFFCURVE",
"291 -21 OFFCURVE",
"573 -21 CURVE SMOOTH"
);
}
);
width = 1059;
},
{
anchors = (
{
name = bottom;
position = "{582, 0}";
},
{
name = top;
position = "{606, 1289}";
}
);
layerId = "7C8D72FA-6E62-4564-8BB2-D9F9BC4EB15A";
paths = (
{
closed = 1;
nodes = (
"758 -21 OFFCURVE",
"909 86 OFFCURVE",
"982 275 CURVE",
"942 298 LINE",
"859 183 OFFCURVE",
"755 138 OFFCURVE",
"622 138 CURVE SMOOTH",
"420 138 OFFCURVE",
"307 287 OFFCURVE",
"307 556 CURVE SMOOTH",
"307 824 OFFCURVE",
"417 1000 OFFCURVE",
"606 1000 CURVE SMOOTH",
"700 1000 OFFCURVE",
"737 965 OFFCURVE",
"752 833 CURVE SMOOTH",
"762 745 OFFCURVE",
"795 705 OFFCURVE",
"864 705 CURVE SMOOTH",
"928 705 OFFCURVE",
"968 747 OFFCURVE",
"968 820 CURVE SMOOTH",
"968 953 OFFCURVE",
"810 1069 OFFCURVE",
"600 1069 CURVE SMOOTH",
"301 1069 OFFCURVE",
"89 831 OFFCURVE",
"89 504 CURVE SMOOTH",
"89 193 OFFCURVE",
"282 -21 OFFCURVE",
"555 -21 CURVE SMOOTH"
);
}
);
width = 1050;
},
{
anchors = (
{
name = bottom;
position = "{621, 0}";
},
{
name = top;
position = "{644, 1289}";
}
);
associatedMasterId = "FA6D65B5-4623-4FAC-A199-3F662257AC29";
layerId = "82E8C230-52A6-4E98-B82A-B16808911FDA";
name = "Jan 7 19, 14:38";
paths = (
{
closed = 1;
nodes = (
"818 -21 OFFCURVE",
"972 73 OFFCURVE",
"1051 264 CURVE SMOOTH",
"1061 287 LINE",
"1005 330 LINE",
"991 314 LINE SMOOTH",
"919 229 OFFCURVE",
"818 184 OFFCURVE",
"698 184 CURVE SMOOTH",
"503 184 OFFCURVE",
"404 318 OFFCURVE",
"404 572 CURVE SMOOTH",
"404 823 OFFCURVE",
"501 966 OFFCURVE",
"667 966 CURVE SMOOTH",
"774 966 OFFCURVE",
"799 895 OFFCURVE",
"812 801 CURVE SMOOTH",
"820 743 OFFCURVE",
"843 672 OFFCURVE",
"942 672 CURVE SMOOTH",
"1024 672 OFFCURVE",
"1076 724 OFFCURVE",
"1076 805 CURVE SMOOTH",
"1076 956 OFFCURVE",
"896 1069 OFFCURVE",
"656 1069 CURVE SMOOTH",
"314 1069 OFFCURVE",
"71 836 OFFCURVE",
"71 510 CURVE SMOOTH",
"71 203 OFFCURVE",
"292 -21 OFFCURVE",
"603 -21 CURVE SMOOTH"
);
}
);
width = 1130;
},
{
anchors = (
{
name = bottom;
position = "{582, 0}";
},
{
name = top;
position = "{614, 1289}";
}
);
associatedMasterId = "7C8D72FA-6E62-4564-8BB2-D9F9BC4EB15A";
layerId = "297B9158-4541-48B2-A41E-57E553896057";
name = "Jan 7 19, 14:40";
paths = (
{
closed = 1;
nodes = (
"773 -21 OFFCURVE",
"922 78 OFFCURVE",
"991 254 CURVE SMOOTH",
"1001 280 LINE",
"960 303 LINE",
"940 275 LINE SMOOTH",
"869 180 OFFCURVE",
"761 132 OFFCURVE",
"641 132 CURVE SMOOTH",
"428 132 OFFCURVE",
"307 286 OFFCURVE",
"307 553 CURVE SMOOTH",
"307 827 OFFCURVE",
"425 1000 OFFCURVE",
"629 1000 CURVE SMOOTH",
"721 1000 OFFCURVE",
"757 966 OFFCURVE",
"772 841 CURVE SMOOTH",
"782 760 OFFCURVE",
"818 715 OFFCURVE",
"891 715 CURVE SMOOTH",
"951 715 OFFCURVE",
"987 762 OFFCURVE",
"987 831 CURVE SMOOTH",
"987 960 OFFCURVE",
"830 1069 OFFCURVE",
"623 1069 CURVE SMOOTH",
"310 1069 OFFCURVE",
"89 836 OFFCURVE",
"89 510 CURVE SMOOTH",
"89 198 OFFCURVE",
"291 -21 OFFCURVE",
"578 -21 CURVE SMOOTH"
);
}
);
width = 1069;
},
{
anchors = (
{
name = bottom;
position = "{582, 0}";
},
{
name = top;
position = "{614, 1289}";
}
);
associatedMasterId = "7C8D72FA-6E62-4564-8BB2-D9F9BC4EB15A";
layerId = "C8A78D21-83DD-4FB8-94F0-B9B1DAA82189";
name = "Jan 23 19, 15:28";
paths = (
{
closed = 1;
nodes = (
"784 -21 OFFCURVE",
"929 82 OFFCURVE",
"1001 280 CURVE",
"960 303 LINE",
"882 188 OFFCURVE",
"778 132 OFFCURVE",
"641 132 CURVE SMOOTH",
"428 132 OFFCURVE",
"307 286 OFFCURVE",
"307 553 CURVE SMOOTH",
"307 827 OFFCURVE",
"425 1000 OFFCURVE",
"629 1000 CURVE SMOOTH",
"721 1000 OFFCURVE",
"757 966 OFFCURVE",
"772 841 CURVE SMOOTH",
"782 760 OFFCURVE",
"818 715 OFFCURVE",
"891 715 CURVE SMOOTH",
"951 715 OFFCURVE",
"987 762 OFFCURVE",
"987 831 CURVE SMOOTH",
"987 960 OFFCURVE",
"830 1069 OFFCURVE",
"623 1069 CURVE SMOOTH",
"310 1069 OFFCURVE",
"89 836 OFFCURVE",
"89 510 CURVE SMOOTH",
"89 198 OFFCURVE",
"291 -21 OFFCURVE",
"578 -21 CURVE SMOOTH"
);
}
);
visible = 1;
width = 1069;
},
{
anchors = (
{
name = bottom;
position = "{621, 0}";
},
{
name = top;
position = "{644, 1289}";
}
);
associatedMasterId = "FA6D65B5-4623-4FAC-A199-3F662257AC29";
layerId = "56C6FCA9-1083-40D9-A145-AA43492AA204";
name = "Jan 23 19, 15:28";
paths = (
{
closed = 1;
nodes = (
"831 -21 OFFCURVE",
"979 78 OFFCURVE",
"1061 287 CURVE",
"1005 330 LINE",
"922 230 OFFCURVE",
"827 184 OFFCURVE",
"698 184 CURVE SMOOTH",
"503 184 OFFCURVE",
"404 318 OFFCURVE",
"404 572 CURVE SMOOTH",
"404 823 OFFCURVE",
"501 966 OFFCURVE",
"667 966 CURVE SMOOTH",
"774 966 OFFCURVE",
"799 895 OFFCURVE",
"812 801 CURVE SMOOTH",
"820 743 OFFCURVE",
"843 672 OFFCURVE",
"942 672 CURVE SMOOTH",
"1024 672 OFFCURVE",
"1076 724 OFFCURVE",
"1076 805 CURVE SMOOTH",
"1076 956 OFFCURVE",
"896 1069 OFFCURVE",
"656 1069 CURVE SMOOTH",
"314 1069 OFFCURVE",
"71 836 OFFCURVE",
"71 510 CURVE SMOOTH",
"71 203 OFFCURVE",
"292 -21 OFFCURVE",
"603 -21 CURVE SMOOTH"
);
}
);
width = 1130;
}
);
leftKerningGroup = e;
rightKerningGroup = c;
unicode = 0063;
},
{
glyphname = d;
layers = (
{
anchors = (
{
name = bottom;
position = "{503, 0}";
}
);
layerId = "FA6D65B5-4623-4FAC-A199-3F662257AC29";
paths = (
{
closed = 1;
nodes = (
"653 -21 OFFCURVE",
"768 25 OFFCURVE",
"849 105 CURVE",
"859 101 LINE",
"859 -21 LINE",
"895 -21 LINE",
"1307 104 LINE",
"1307 144 LINE",
"1150 193 LINE",
"1150 1643 LINE",
"1107 1643 LINE",
"675 1546 LINE",
"675 1500 LINE",
"843 1445 LINE",
"843 1019 LINE",
"768 1052 OFFCURVE",
"689 1069 OFFCURVE",
"614 1069 CURVE SMOOTH",
"295 1069 OFFCURVE",
"73 839 OFFCURVE",
"73 507 CURVE SMOOTH",
"73 204 OFFCURVE",
"271 -21 OFFCURVE",
"524 -21 CURVE SMOOTH"
);
},
{
closed = 1;
nodes = (
"500 122 OFFCURVE",
"411 284 OFFCURVE",
"411 540 CURVE SMOOTH",
"411 792 OFFCURVE",
"507 962 OFFCURVE",
"653 962 CURVE SMOOTH",
"768 962 OFFCURVE",
"843 862 OFFCURVE",
"843 716 CURVE SMOOTH",
"843 226 LINE",
"796 162 OFFCURVE",
"730 122 OFFCURVE",
"651 122 CURVE SMOOTH"
);
}
);
width = 1333;
},
{
anchors = (
{
name = bottom;
position = "{503, 0}";
}
);
associatedMasterId = "FA6D65B5-4623-4FAC-A199-3F662257AC29";
layerId = "CBD44848-52BD-4DC5-BFA6-577546B7224D";
paths = (
{
closed = 1;
nodes = (
"633 -21 OFFCURVE",
"750 37 OFFCURVE",
"834 154 CURVE",
"841 151 LINE",
"841 -21 LINE",
"854 -21 LINE",
"1148 104 LINE",
"1148 124 LINE",
"1013 154 LINE",
"1013 1643 LINE",
"994 1643 LINE",
"683 1546 LINE",
"683 1520 LINE",
"828 1464 LINE",
"828 1039 LINE",
"758 1059 OFFCURVE",
"683 1069 OFFCURVE",
"614 1069 CURVE SMOOTH",
"305 1069 OFFCURVE",
"93 839 OFFCURVE",
"93 507 CURVE SMOOTH",
"93 204 OFFCURVE",
"268 -21 OFFCURVE",
"503 -21 CURVE SMOOTH"
);
},
{
closed = 1;
nodes = (
"408 109 OFFCURVE",
"302 273 OFFCURVE",
"302 539 CURVE SMOOTH",
"302 823 OFFCURVE",
"425 1010 OFFCURVE",
"609 1010 CURVE SMOOTH",
"752 1010 OFFCURVE",
"828 935 OFFCURVE",
"828 792 CURVE SMOOTH",
"828 226 LINE",
"782 154 OFFCURVE",
"689 109 OFFCURVE",
"586 109 CURVE SMOOTH"
);
}
);
width = 1201;
},
{
anchors = (
{
name = bottom;
position = "{503, 0}";
}
);
layerId = "7C8D72FA-6E62-4564-8BB2-D9F9BC4EB15A";
paths = (
{
closed = 1;
nodes = (
"636 -21 OFFCURVE",
"752 36 OFFCURVE",
"835 147 CURVE",
"844 144 LINE",
"844 -21 LINE",
"860 -21 LINE",
"1169 104 LINE",
"1169 128 LINE",
"1032 159 LINE",
"1032 1643 LINE",
"1009 1643 LINE",
"682 1546 LINE",
"682 1518 LINE",
"830 1461 LINE",
"830 1036 LINE",
"759 1058 OFFCURVE",
"683 1069 OFFCURVE",
"614 1069 CURVE SMOOTH",
"303 1069 OFFCURVE",
"91 839 OFFCURVE",
"91 507 CURVE SMOOTH",
"91 204 OFFCURVE",
"269 -21 OFFCURVE",
"506 -21 CURVE SMOOTH"
);
},
{
closed = 1;
nodes = (
"420 111 OFFCURVE",
"316 275 OFFCURVE",
"316 539 CURVE SMOOTH",
"316 819 OFFCURVE",
"436 1003 OFFCURVE",
"615 1003 CURVE SMOOTH",
"754 1003 OFFCURVE",
"830 925 OFFCURVE",
"830 782 CURVE SMOOTH",
"830 226 LINE",
"783 155 OFFCURVE",
"693 111 OFFCURVE",
"594 111 CURVE SMOOTH"
);
}
);
width = 1218;
}
);
leftKerningGroup = d;
rightKerningGroup = d;
unicode = 0064;
},
{
glyphname = eth;
layers = (
{
layerId = "FA6D65B5-4623-4FAC-A199-3F662257AC29";
paths = (
{
closed = 1;
nodes = (
"861 -21 OFFCURVE",
"1107 196 OFFCURVE",
"1107 580 CURVE SMOOTH",
"1107 1026 OFFCURVE",
"829 1373 OFFCURVE",
"320 1544 CURVE",
"256 1445 LINE",
"550 1292 OFFCURVE",
"714 1080 OFFCURVE",
"754 831 CURVE",
"706 896 OFFCURVE",
"617 935 OFFCURVE",
"508 935 CURVE SMOOTH",
"256 935 OFFCURVE",
"71 737 OFFCURVE",
"71 466 CURVE SMOOTH",
"71 177 OFFCURVE",
"283 -21 OFFCURVE",
"568 -21 CURVE SMOOTH {name = hr00;}"
);
},
{
closed = 1;
nodes = (
"466 99 OFFCURVE",
"396 227 OFFCURVE",
"396 433 CURVE SMOOTH",
"396 648 OFFCURVE",
"473 786 OFFCURVE",
"596 786 CURVE SMOOTH",
"663 786 OFFCURVE",
"724 746 OFFCURVE",
"758 679 CURVE",
"774 620 OFFCURVE",
"782 545 OFFCURVE",
"782 471 CURVE SMOOTH",
"782 242 OFFCURVE",
"705 99 OFFCURVE",
"582 99 CURVE SMOOTH"
);
},
{
closed = 1;
nodes = (
"956 1412 LINE",
"869 1531 LINE",
"310 1138 LINE",
"394 1016 LINE"
);
}
);
width = 1201;
},
{
associatedMasterId = "FA6D65B5-4623-4FAC-A199-3F662257AC29";
layerId = "CBD44848-52BD-4DC5-BFA6-577546B7224D";
paths = (
{
closed = 1;
nodes = (
"862 -21 OFFCURVE",
"1071 214 OFFCURVE",
"1071 552 CURVE SMOOTH",
"1071 976 OFFCURVE",
"760 1383 OFFCURVE",
"314 1544 CURVE",
"279 1474 LINE",
"531 1354 OFFCURVE",
"786 1044 OFFCURVE",
"821 815 CURVE",
"770 873 OFFCURVE",
"644 919 OFFCURVE",
"534 919 CURVE SMOOTH",
"291 919 OFFCURVE",
"94 708 OFFCURVE",
"94 450 CURVE SMOOTH",
"94 177 OFFCURVE",
"291 -21 OFFCURVE",
"562 -21 CURVE SMOOTH {name = hr00;}"
);
},
{
closed = 1;
nodes = (
"421 70 OFFCURVE",
"330 204 OFFCURVE",
"330 417 CURVE SMOOTH",
"330 648 OFFCURVE",
"443 805 OFFCURVE",
"607 805 CURVE SMOOTH",
"691 805 OFFCURVE",
"778 763 OFFCURVE",
"826 698 CURVE",
"839 639 OFFCURVE",
"849 549 OFFCURVE",
"849 481 CURVE SMOOTH",
"849 243 OFFCURVE",
"729 70 OFFCURVE",
"564 70 CURVE SMOOTH"
);
},
{
closed = 1;
nodes = (
"875 1430 LINE",
"815 1521 LINE",
"307 1192 LINE",
"364 1101 LINE"
);
}
);
width = 1168;
},
{
layerId = "7C8D72FA-6E62-4564-8BB2-D9F9BC4EB15A";
paths = (
{
closed = 1;
nodes = (
"862 -21 OFFCURVE",
"1076 211 OFFCURVE",
"1076 556 CURVE SMOOTH",
"1076 982 OFFCURVE",
"769 1382 OFFCURVE",
"316 1544 CURVE",
"275 1470 LINE",
"533 1346 OFFCURVE",
"776 1049 OFFCURVE",
"812 818 CURVE",
"762 876 OFFCURVE",
"640 921 OFFCURVE",
"531 921 CURVE SMOOTH",
"287 921 OFFCURVE",
"91 712 OFFCURVE",
"91 453 CURVE SMOOTH",
"91 177 OFFCURVE",
"290 -21 OFFCURVE",
"563 -21 CURVE SMOOTH {name = hr00;}"
);
},
{
closed = 1;
nodes = (
"427 74 OFFCURVE",
"340 206 OFFCURVE",
"340 419 CURVE SMOOTH",
"340 648 OFFCURVE",
"447 803 OFFCURVE",
"606 803 CURVE SMOOTH",
"686 803 OFFCURVE",
"772 761 OFFCURVE",
"816 696 CURVE",
"830 636 OFFCURVE",
"839 548 OFFCURVE",
"839 480 CURVE SMOOTH",
"839 243 OFFCURVE",
"725 74 OFFCURVE",
"567 74 CURVE SMOOTH"
);
},
{
closed = 1;
nodes = (
"886 1428 LINE",
"822 1522 LINE",
"307 1185 LINE",
"368 1089 LINE"
);
}
);
width = 1172;
}
);
leftKerningGroup = o;
unicode = 00F0;
},
{
glyphname = dcroat;
layers = (
{
components = (
{
name = d;
}
);
layerId = "FA6D65B5-4623-4FAC-A199-3F662257AC29";
paths = (
{
closed = 1;
nodes = (
"1307 1185 LINE",
"1307 1354 LINE",
"620 1354 LINE",
"620 1185 LINE"
);
}
);
width = 1333;
},
{
associatedMasterId = "FA6D65B5-4623-4FAC-A199-3F662257AC29";
components = (
{
name = d;
}
);
layerId = "CBD44848-52BD-4DC5-BFA6-577546B7224D";
paths = (
{
closed = 1;
nodes = (
"1150 1206 LINE",
"1150 1333 LINE",
"542 1333 LINE",
"542 1206 LINE"
);
}
);
width = 1201;
},
{
components = (
{
alignment = -1;
name = d;
}
);
layerId = "7C8D72FA-6E62-4564-8BB2-D9F9BC4EB15A";
paths = (
{
closed = 1;
nodes = (
"1171 1203 LINE",
"1171 1337 LINE",
"553 1337 LINE",
"553 1203 LINE"
);
}
);
width = 1218;
}
);
leftKerningGroup = d;
rightKerningGroup = d;
unicode = 0111;
},
{
glyphname = e;
layers = (
{
anchors = (
{
name = bottom;
position = "{590, 0}";
},
{
name = ogonekcurve;
position = "{943, 77}";
},
{
name = top;
position = "{636, 1289}";
}
);
layerId = "FA6D65B5-4623-4FAC-A199-3F662257AC29";
paths = (
{
closed = 1;
nodes = (
"851 -21 OFFCURVE",
"1031 91 OFFCURVE",
"1102 283 CURVE",
"1047 330 LINE",
"968 236 OFFCURVE",
"850 184 OFFCURVE",
"710 184 CURVE SMOOTH",
"503 184 OFFCURVE",
"401 314 OFFCURVE",
"401 584 CURVE SMOOTH",
"401 829 OFFCURVE",
"485 968 OFFCURVE",
"639 968 CURVE SMOOTH",
"754 968 OFFCURVE",
"815 895 OFFCURVE",
"815 758 CURVE SMOOTH",
"815 724 OFFCURVE",
"812 696 OFFCURVE",
"807 683 CURVE",
"256 663 LINE",
"256 573 LINE",
"1120 573 LINE",
"1135 586 LINE",
"1126 903 OFFCURVE",
"966 1069 OFFCURVE",
"664 1069 CURVE SMOOTH",
"312 1069 OFFCURVE",
"71 841 OFFCURVE",
"71 508 CURVE SMOOTH",
"71 193 OFFCURVE",
"287 -21 OFFCURVE",
"615 -21 CURVE SMOOTH"
);
}
);
width = 1195;
},
{
anchors = (
{
name = bottom;
position = "{570, 0}";
},
{
name = top;
position = "{615, 1289}";
}
);
associatedMasterId = "FA6D65B5-4623-4FAC-A199-3F662257AC29";
layerId = "CBD44848-52BD-4DC5-BFA6-577546B7224D";
paths = (
{
closed = 1;
nodes = (
"762 -21 OFFCURVE",
"925 78 OFFCURVE",
"994 240 CURVE SMOOTH",
"1005 267 LINE",
"972 287 LINE",
"948 258 LINE SMOOTH",
"879 174 OFFCURVE",
"762 124 OFFCURVE",
"633 124 CURVE SMOOTH",
"408 124 OFFCURVE",
"291 275 OFFCURVE",
"291 564 CURVE SMOOTH",
"291 846 OFFCURVE",
"404 1008 OFFCURVE",
"603 1008 CURVE SMOOTH",
"746 1008 OFFCURVE",
"820 927 OFFCURVE",
"820 763 CURVE SMOOTH",
"820 732 OFFCURVE",
"818 698 OFFCURVE",
"813 683 CURVE",
"252 663 LINE",
"252 609 LINE",
"1013 609 LINE",
"1027 622 LINE",
"1021 914 OFFCURVE",
"881 1069 OFFCURVE",
"622 1069 CURVE SMOOTH",
"307 1069 OFFCURVE",
"93 841 OFFCURVE",
"93 508 CURVE SMOOTH",
"93 193 OFFCURVE",
"284 -21 OFFCURVE",
"568 -21 CURVE SMOOTH"
);
}
);
width = 1109;
},
{
anchors = (
{
name = bottom;
position = "{572, 0}";
},
{
name = ogonekcurve;
position = "{876, 77}";
},
{
name = top;
position = "{618, 1289}";
}
);
layerId = "7C8D72FA-6E62-4564-8BB2-D9F9BC4EB15A";
paths = (
{
closed = 1;
nodes = (
"785 -21 OFFCURVE",
"948 85 OFFCURVE",
"1018 269 CURVE",
"981 292 LINE",
"905 188 OFFCURVE",
"786 132 OFFCURVE",
"644 132 CURVE SMOOTH",
"420 132 OFFCURVE",
"306 281 OFFCURVE",
"306 567 CURVE SMOOTH",
"306 844 OFFCURVE",
"415 1002 OFFCURVE",
"608 1002 CURVE SMOOTH",
"747 1002 OFFCURVE",
"819 922 OFFCURVE",
"819 762 CURVE SMOOTH",
"819 731 OFFCURVE",
"816 698 OFFCURVE",
"812 683 CURVE",
"252 663 LINE",
"252 605 LINE",
"1027 605 LINE",
"1041 617 LINE",
"1035 913 OFFCURVE",
"892 1069 OFFCURVE",
"628 1069 CURVE SMOOTH",
"307 1069 OFFCURVE",
"90 841 OFFCURVE",
"90 508 CURVE SMOOTH",
"90 193 OFFCURVE",
"284 -21 OFFCURVE",
"575 -21 CURVE SMOOTH"
);
}
);
width = 1120;
},
{
anchors = (
{
name = bottom;
position = "{590, 0}";
},
{
name = top;
position = "{636, 1289}";
}
);
associatedMasterId = "FA6D65B5-4623-4FAC-A199-3F662257AC29";
layerId = "8C02BBE7-42F6-4BE5-BB27-BFB8EC1741EF";
name = "Jan 7 19, 14:40";
paths = (
{
closed = 1;
nodes = (
"831 -21 OFFCURVE",
"1019 81 OFFCURVE",
"1093 260 CURVE SMOOTH",
"1102 283 LINE",
"1047 330 LINE",
"1033 314 LINE SMOOTH",
"956 227 OFFCURVE",
"826 184 OFFCURVE",
"710 184 CURVE SMOOTH",
"503 184 OFFCURVE",
"401 314 OFFCURVE",
"401 584 CURVE SMOOTH",
"401 829 OFFCURVE",
"485 968 OFFCURVE",
"639 968 CURVE SMOOTH",
"754 968 OFFCURVE",
"815 895 OFFCURVE",
"815 758 CURVE SMOOTH",
"815 724 OFFCURVE",
"812 696 OFFCURVE",
"807 683 CURVE",
"256 663 LINE",
"256 573 LINE",
"1120 573 LINE",
"1135 586 LINE",
"1126 903 OFFCURVE",
"966 1069 OFFCURVE",
"664 1069 CURVE SMOOTH",
"312 1069 OFFCURVE",
"71 841 OFFCURVE",
"71 508 CURVE SMOOTH",
"71 193 OFFCURVE",
"287 -21 OFFCURVE",
"615 -21 CURVE SMOOTH"
);
}
);
visible = 1;
width = 1195;
},
{
anchors = (
{
name = bottom;
position = "{572, 0}";
},
{
name = top;
position = "{618, 1289}";
}
);
associatedMasterId = "7C8D72FA-6E62-4564-8BB2-D9F9BC4EB15A";
layerId = "CA178C85-2D92-48A3-9F7E-0674D9E4867A";
name = "Jan 7 19, 14:40";
paths = (
{
closed = 1;
nodes = (
"772 -21 OFFCURVE",
"937 79 OFFCURVE",
"1008 242 CURVE SMOOTH",
"1018 269 LINE",
"981 292 LINE",
"959 265 LINE SMOOTH",
"889 181 OFFCURVE",
"770 132 OFFCURVE",
"644 132 CURVE SMOOTH",
"420 132 OFFCURVE",
"306 281 OFFCURVE",
"306 567 CURVE SMOOTH",
"306 844 OFFCURVE",
"415 1002 OFFCURVE",
"608 1002 CURVE SMOOTH",
"747 1002 OFFCURVE",
"819 922 OFFCURVE",
"819 762 CURVE SMOOTH",
"819 731 OFFCURVE",
"816 698 OFFCURVE",
"812 683 CURVE",
"252 663 LINE",
"252 605 LINE",
"1027 605 LINE",
"1041 617 LINE",
"1035 913 OFFCURVE",
"892 1069 OFFCURVE",
"628 1069 CURVE SMOOTH",
"307 1069 OFFCURVE",
"90 841 OFFCURVE",
"90 508 CURVE SMOOTH",
"90 193 OFFCURVE",
"284 -21 OFFCURVE",
"575 -21 CURVE SMOOTH"
);
}
);
width = 1120;
}
);
leftKerningGroup = e;
rightKerningGroup = e;
unicode = 0065;
},
{
glyphname = schwa;
layers = (
{
layerId = "FA6D65B5-4623-4FAC-A199-3F662257AC29";
paths = (
{
closed = 1;
nodes = (
"342 1069 OFFCURVE",
"162 957 OFFCURVE",
"91 765 CURVE",
"146 717 LINE",
"225 812 OFFCURVE",
"343 864 OFFCURVE",
"482 864 CURVE SMOOTH",
"690 864 OFFCURVE",
"792 734 OFFCURVE",
"792 464 CURVE SMOOTH",
"792 219 OFFCURVE",
"708 79 OFFCURVE",
"554 79 CURVE SMOOTH",
"439 79 OFFCURVE",
"378 153 OFFCURVE",
"378 290 CURVE SMOOTH",
"378 324 OFFCURVE",
"381 352 OFFCURVE",
"386 365 CURVE",
"937 385 LINE",
"937 474 LINE",
"73 474 LINE",
"58 462 LINE",
"67 145 OFFCURVE",
"227 -21 OFFCURVE",
"529 -21 CURVE SMOOTH",
"881 -21 OFFCURVE",
"1122 207 OFFCURVE",
"1122 540 CURVE SMOOTH",
"1122 854 OFFCURVE",
"906 1069 OFFCURVE",
"578 1069 CURVE SMOOTH"
);
}
);
width = 1193;
},
{
associatedMasterId = "FA6D65B5-4623-4FAC-A199-3F662257AC29";
layerId = "CBD44848-52BD-4DC5-BFA6-577546B7224D";
paths = (
{
closed = 1;
nodes = (
"801 -21 OFFCURVE",
"1016 208 OFFCURVE",
"1016 540 CURVE SMOOTH",
"1016 854 OFFCURVE",
"823 1069 OFFCURVE",
"540 1069 CURVE SMOOTH",
"347 1069 OFFCURVE",
"184 970 OFFCURVE",
"115 810 CURVE SMOOTH",
"104 782 LINE",
"136 762 LINE",
"161 792 LINE SMOOTH",
"229 875 OFFCURVE",
"347 925 OFFCURVE",
"474 925 CURVE SMOOTH",
"700 925 OFFCURVE",
"818 774 OFFCURVE",
"818 485 CURVE SMOOTH",
"818 203 OFFCURVE",
"705 41 OFFCURVE",
"504 41 CURVE SMOOTH",
"362 41 OFFCURVE",
"289 122 OFFCURVE",
"289 284 CURVE SMOOTH",
"289 317 OFFCURVE",
"291 351 OFFCURVE",
"295 366 CURVE",
"857 386 LINE",
"857 440 LINE",
"94 440 LINE",
"81 427 LINE",
"86 135 OFFCURVE",
"227 -21 OFFCURVE",
"487 -21 CURVE SMOOTH"
);
}
);
width = 1109;
},
{
layerId = "7C8D72FA-6E62-4564-8BB2-D9F9BC4EB15A";
paths = (
{
closed = 1;
nodes = (
"334 1069 OFFCURVE",
"172 963 OFFCURVE",
"101 778 CURVE",
"138 755 LINE",
"214 860 OFFCURVE",
"333 915 OFFCURVE",
"476 915 CURVE SMOOTH",
"699 915 OFFCURVE",
"813 767 OFFCURVE",
"813 481 CURVE SMOOTH",
"813 204 OFFCURVE",
"705 46 OFFCURVE",
"511 46 CURVE SMOOTH",
"372 46 OFFCURVE",
"301 126 OFFCURVE",
"301 286 CURVE SMOOTH",
"301 317 OFFCURVE",
"303 350 OFFCURVE",
"307 365 CURVE",
"867 385 LINE",
"867 443 LINE",
"92 443 LINE",
"78 431 LINE",
"84 135 OFFCURVE",
"227 -21 OFFCURVE",
"492 -21 CURVE SMOOTH",
"812 -21 OFFCURVE",
"1029 207 OFFCURVE",
"1029 540 CURVE SMOOTH",
"1029 854 OFFCURVE",
"835 1069 OFFCURVE",
"545 1069 CURVE SMOOTH"
);
}
);
width = 1120;
}
);
rightKerningGroup = o;
unicode = 0259;
},
{
glyphname = f;
layers = (
{
layerId = "FA6D65B5-4623-4FAC-A199-3F662257AC29";
paths = (
{
closed = 1;
nodes = (
"791 0 LINE",
"791 70 LINE",
"548 109 LINE",
"548 1158 LINE SMOOTH",
"548 1292 OFFCURVE",
"550 1390 OFFCURVE",
"571 1451 CURVE SMOOTH",
"593 1513 OFFCURVE",
"645 1542 OFFCURVE",
"702 1542 CURVE SMOOTH",
"763 1542 OFFCURVE",
"791 1513 OFFCURVE",
"811 1439 CURVE SMOOTH",
"831 1362 OFFCURVE",
"881 1318 OFFCURVE",
"949 1318 CURVE SMOOTH",
"1031 1318 OFFCURVE",
"1087 1371 OFFCURVE",
"1087 1449 CURVE SMOOTH",
"1087 1565 OFFCURVE",
"948 1643 OFFCURVE",
"740 1643 CURVE SMOOTH",
"522 1643 OFFCURVE",
"337 1544 OFFCURVE",
"275 1391 CURVE SMOOTH",
"246 1328 OFFCURVE",
"241 1259 OFFCURVE",
"241 1021 CURVE SMOOTH",
"241 109 LINE",
"74 70 LINE",
"74 0 LINE"
);
},
{
closed = 1;
nodes = (
"788 956 LINE",
"815 1049 LINE",
"67 1049 LINE",
"39 956 LINE"
);
}
);
width = 836;
},
{
associatedMasterId = "FA6D65B5-4623-4FAC-A199-3F662257AC29";
layerId = "CBD44848-52BD-4DC5-BFA6-577546B7224D";
paths = (
{
closed = 1;
nodes = (
"617 0 LINE",
"617 37 LINE",
"408 68 LINE",
"408 1158 LINE SMOOTH",
"408 1328 OFFCURVE",
"421 1424 OFFCURVE",
"450 1484 CURVE SMOOTH",
"481 1555 OFFCURVE",
"537 1581 OFFCURVE",
"596 1581 CURVE SMOOTH",
"659 1581 OFFCURVE",
"681 1550 OFFCURVE",
"696 1479 CURVE SMOOTH",
"705 1429 OFFCURVE",
"727 1377 OFFCURVE",
"792 1377 CURVE SMOOTH",
"849 1377 OFFCURVE",
"888 1416 OFFCURVE",
"888 1474 CURVE SMOOTH",
"888 1571 OFFCURVE",
"776 1643 OFFCURVE",
"633 1643 CURVE SMOOTH",
"466 1643 OFFCURVE",
"303 1546 OFFCURVE",
"250 1399 CURVE SMOOTH",
"223 1328 OFFCURVE",
"219 1232 OFFCURVE",
"219 1021 CURVE SMOOTH",
"219 68 LINE",
"71 37 LINE",
"71 0 LINE"
);
},
{
closed = 1;
nodes = (
"639 985 LINE",
"663 1049 LINE",
"70 1049 LINE",
"45 985 LINE"
);
}
);
width = 696;
},
{
layerId = "7C8D72FA-6E62-4564-8BB2-D9F9BC4EB15A";
paths = (
{
closed = 1;
nodes = (
"639 0 LINE",
"639 41 LINE",
"425 73 LINE",
"425 1158 LINE SMOOTH",
"425 1323 OFFCURVE",
"438 1420 OFFCURVE",
"464 1480 CURVE SMOOTH",
"495 1549 OFFCURVE",
"549 1575 OFFCURVE",
"609 1575 CURVE SMOOTH",
"671 1575 OFFCURVE",
"693 1545 OFFCURVE",
"709 1474 CURVE SMOOTH",
"721 1420 OFFCURVE",
"745 1369 OFFCURVE",
"811 1369 CURVE SMOOTH",
"872 1369 OFFCURVE",
"913 1411 OFFCURVE",
"913 1470 CURVE SMOOTH",
"913 1571 OFFCURVE",
"797 1643 OFFCURVE",
"646 1643 CURVE SMOOTH",
"472 1643 OFFCURVE",
"305 1546 OFFCURVE",
"251 1398 CURVE SMOOTH",
"226 1328 OFFCURVE",
"221 1236 OFFCURVE",
"221 1021 CURVE SMOOTH",
"221 73 LINE",
"69 41 LINE",
"69 0 LINE"
);
},
{
closed = 1;
nodes = (
"658 981 LINE",
"682 1049 LINE",
"68 1049 LINE",
"43 981 LINE"
);
}
);
width = 714;
}
);
leftKerningGroup = f;
rightKerningGroup = f;
unicode = 0066;
},
{
glyphname = g;
layers = (
{
anchors = (
{
name = top;
position = "{572, 1289}";
}
);
layerId = "FA6D65B5-4623-4FAC-A199-3F662257AC29";
paths = (
{
closed = 1;
nodes = (
"872 951 LINE",
"882 1005 OFFCURVE",
"898 1054 OFFCURVE",
"947 1054 CURVE SMOOTH",
"998 1054 OFFCURVE",
"1009 1002 OFFCURVE",
"1076 1002 CURVE SMOOTH",
"1147 1002 OFFCURVE",
"1186 1059 OFFCURVE",
"1186 1117 CURVE SMOOTH",
"1186 1189 OFFCURVE",
"1125 1234 OFFCURVE",
"1044 1234 CURVE SMOOTH",
"913 1234 OFFCURVE",
"843 1105 OFFCURVE",
"803 995 CURVE"
);
},
{
closed = 1;
nodes = (
"446 416 OFFCURVE",
"421 577 OFFCURVE",
"421 684 CURVE SMOOTH",
"421 797 OFFCURVE",
"450 983 OFFCURVE",
"565 983 CURVE SMOOTH",
"677 983 OFFCURVE",
"698 814 OFFCURVE",
"698 708 CURVE SMOOTH",
"698 580 OFFCURVE",
"667 416 OFFCURVE",
"556 416 CURVE SMOOTH"
);
},
{
closed = 1;
nodes = (
"421 373 LINE",
"215 350 OFFCURVE",
"113 259 OFFCURVE",
"113 147 CURVE SMOOTH",
"113 38 OFFCURVE",
"198 -38 OFFCURVE",
"435 -83 CURVE SMOOTH",
"599 -114 LINE SMOOTH",
"819 -154 OFFCURVE",
"879 -199 OFFCURVE",
"879 -268 CURVE SMOOTH",
"879 -378 OFFCURVE",
"682 -423 OFFCURVE",
"529 -423 CURVE SMOOTH",
"381 -423 OFFCURVE",
"241 -367 OFFCURVE",
"241 -238 CURVE SMOOTH",
"241 -162 OFFCURVE",
"281 -85 OFFCURVE",
"350 -40 CURVE",
"266 -6 LINE",
"70 -82 OFFCURVE",
"-6 -164 OFFCURVE",
"-6 -267 CURVE SMOOTH",
"-6 -455 OFFCURVE",
"241 -524 OFFCURVE",
"473 -524 CURVE SMOOTH",
"778 -524 OFFCURVE",
"1104 -434 OFFCURVE",
"1104 -162 CURVE SMOOTH",
"1104 -9 OFFCURVE",
"993 82 OFFCURVE",
"755 122 CURVE SMOOTH",
"611 147 LINE SMOOTH",
"415 181 OFFCURVE",
"360 203 OFFCURVE",
"360 252 CURVE SMOOTH",
"360 294 OFFCURVE",
"402 327 OFFCURVE",
"555 327 CURVE"
);
},
{
closed = 1;
nodes = (
"320 327 OFFCURVE",
"555 327 CURVE SMOOTH",
"829 327 OFFCURVE",
"1011 519 OFFCURVE",
"1011 704 CURVE SMOOTH",
"1011 922 OFFCURVE",
"797 1069 OFFCURVE",
"554 1069 CURVE SMOOTH",
"299 1069 OFFCURVE",
"107 912 OFFCURVE",
"107 700 CURVE SMOOTH",
"107 466 OFFCURVE"
);
}
);
width = 1157;
},
{
anchors = (
{
name = top;
position = "{512, 1289}";
}
);
associatedMasterId = "FA6D65B5-4623-4FAC-A199-3F662257AC29";
layerId = "CBD44848-52BD-4DC5-BFA6-577546B7224D";
paths = (
{
closed = 1;
nodes = (
"576 -515 OFFCURVE",
"747 -477 OFFCURVE",
"859 -388 CURVE SMOOTH",
"925 -334 OFFCURVE",
"968 -264 OFFCURVE",
"968 -162 CURVE SMOOTH",
"968 -73 OFFCURVE",
"935 41 OFFCURVE",
"716 91 CURVE SMOOTH",
"580 122 OFFCURVE",
"291 146 OFFCURVE",
"291 256 CURVE SMOOTH",
"291 322 OFFCURVE",
"404 372 OFFCURVE",
"504 380 CURVE SMOOTH",
"738 398 OFFCURVE",
"898 556 OFFCURVE",
"898 730 CURVE SMOOTH",
"898 823 OFFCURVE",
"853 914 OFFCURVE",
"776 978 CURVE",
"790 1032 OFFCURVE",
"820 1079 OFFCURVE",
"851 1079 CURVE SMOOTH",
"900 1079 OFFCURVE",
"895 1027 OFFCURVE",
"952 1027 CURVE SMOOTH",
"1003 1027 OFFCURVE",
"1044 1067 OFFCURVE",
"1044 1120 CURVE SMOOTH",
"1044 1181 OFFCURVE",
"989 1219 OFFCURVE",
"930 1219 CURVE SMOOTH",
"828 1219 OFFCURVE",
"766 1101 OFFCURVE",
"735 1005 CURVE",
"671 1044 OFFCURVE",
"592 1069 OFFCURVE",
"503 1069 CURVE SMOOTH",
"284 1069 OFFCURVE",
"120 927 OFFCURVE",
"120 730 CURVE SMOOTH",
"120 565 OFFCURVE",
"234 448 OFFCURVE",
"386 406 CURVE",
"168 336 OFFCURVE",
"124 234 OFFCURVE",
"124 169 CURVE SMOOTH",
"124 105 OFFCURVE",
"169 47 OFFCURVE",
"260 8 CURVE",
"78 -70 OFFCURVE",
"14 -151 OFFCURVE",
"14 -256 CURVE SMOOTH",
"14 -342 OFFCURVE",
"60 -404 OFFCURVE",
"128 -446 CURVE SMOOTH",
"216 -497 OFFCURVE",
"341 -515 OFFCURVE",
"435 -515 CURVE SMOOTH"
);
},
{
closed = 1;
nodes = (
"390 -451 OFFCURVE",
"318 -433 OFFCURVE",
"265 -398 CURVE SMOOTH",
"208 -360 OFFCURVE",
"174 -303 OFFCURVE",
"174 -231 CURVE SMOOTH",
"174 -140 OFFCURVE",
"231 -54 OFFCURVE",
"325 -13 CURVE",
"378 -28 OFFCURVE",
"448 -44 OFFCURVE",
"516 -58 CURVE SMOOTH",
"747 -104 OFFCURVE",
"815 -144 OFFCURVE",
"815 -237 CURVE SMOOTH",
"815 -314 OFFCURVE",
"770 -370 OFFCURVE",
"700 -404 CURVE SMOOTH",
"638 -435 OFFCURVE",
"552 -451 OFFCURVE",
"473 -451 CURVE SMOOTH"
);
},
{
closed = 1;
nodes = (
"355 443 OFFCURVE",
"322 607 OFFCURVE",
"322 714 CURVE SMOOTH",
"322 826 OFFCURVE",
"357 1013 OFFCURVE",
"515 1013 CURVE SMOOTH",
"667 1013 OFFCURVE",
"697 841 OFFCURVE",
"697 735 CURVE SMOOTH",
"697 606 OFFCURVE",
"655 443 OFFCURVE",
"504 443 CURVE SMOOTH"
);
}
);
width = 1018;
},
{
anchors = (
{
name = top;
position = "{535, 1289}";
}
);
layerId = "7C8D72FA-6E62-4564-8BB2-D9F9BC4EB15A";
paths = (
{
closed = 1;
nodes = (
"786 960 LINE",
"798 1018 OFFCURVE",
"830 1073 OFFCURVE",
"866 1073 CURVE SMOOTH",
"915 1073 OFFCURVE",
"912 1021 OFFCURVE",
"971 1021 CURVE SMOOTH",
"1024 1021 OFFCURVE",
"1065 1064 OFFCURVE",
"1065 1118 CURVE SMOOTH",
"1065 1180 OFFCURVE",
"1010 1219 OFFCURVE",
"948 1219 CURVE SMOOTH",
"834 1219 OFFCURVE",
"767 1092 OFFCURVE",
"734 995 CURVE"
);
},
{
closed = 1;
nodes = (
"367 401 OFFCURVE",
"336 577 OFFCURVE",
"336 691 CURVE SMOOTH",
"336 811 OFFCURVE",
"370 1006 OFFCURVE",
"530 1006 CURVE SMOOTH",
"683 1006 OFFCURVE",
"714 826 OFFCURVE",
"714 712 CURVE SMOOTH",
"714 575 OFFCURVE",
"671 401 OFFCURVE",
"519 401 CURVE SMOOTH"
);
},
{
closed = 1;
nodes = (
"411 371 LINE",
"169 336 OFFCURVE",
"123 240 OFFCURVE",
"123 173 CURVE SMOOTH",
"123 74 OFFCURVE",
"210 1 OFFCURVE",
"385 -32 CURVE SMOOTH",
"550 -63 LINE SMOOTH",
"816 -113 OFFCURVE",
"868 -165 OFFCURVE",
"868 -238 CURVE SMOOTH",
"868 -383 OFFCURVE",
"674 -446 OFFCURVE",
"481 -446 CURVE SMOOTH",
"320 -446 OFFCURVE",
"182 -377 OFFCURVE",
"182 -231 CURVE SMOOTH",
"182 -137 OFFCURVE",
"243 -47 OFFCURVE",
"344 -8 CURVE",
"283 17 LINE",
"84 -63 OFFCURVE",
"12 -147 OFFCURVE",
"12 -256 CURVE SMOOTH",
"12 -442 OFFCURVE",
"230 -515 OFFCURVE",
"440 -515 CURVE SMOOTH",
"727 -515 OFFCURVE",
"1031 -405 OFFCURVE",
"1031 -161 CURVE SMOOTH",
"1031 -15 OFFCURVE",
"924 69 OFFCURVE",
"692 105 CURVE SMOOTH",
"549 130 LINE SMOOTH",
"354 159 OFFCURVE",
"302 187 OFFCURVE",
"302 235 CURVE SMOOTH",
"302 303 OFFCURVE",
"379 335 OFFCURVE",
"520 335 CURVE"
);
},
{
closed = 1;
nodes = (
"286 335 OFFCURVE",
"520 335 CURVE SMOOTH",
"766 335 OFFCURVE",
"929 509 OFFCURVE",
"929 707 CURVE SMOOTH",
"929 917 OFFCURVE",
"750 1069 OFFCURVE",
"523 1069 CURVE SMOOTH",
"292 1069 OFFCURVE",
"121 913 OFFCURVE",
"121 701 CURVE SMOOTH",
"121 481 OFFCURVE"
);
}
);
width = 1055;
},
{
anchors = (
{
name = top;
position = "{572, 1289}";
}
);
associatedMasterId = "FA6D65B5-4623-4FAC-A199-3F662257AC29";
layerId = "48B225CD-3B3F-445F-9150-FF09420DC2A9";
name = "Jan 7 19, 14:51";
paths = (
{
closed = 1;
nodes = (
"638 -512 OFFCURVE",
"839 -479 OFFCURVE",
"966 -390 CURVE SMOOTH",
"1047 -333 OFFCURVE",
"1090 -260 OFFCURVE",
"1090 -153 CURVE SMOOTH",
"1090 -54 OFFCURVE",
"1052 73 OFFCURVE",
"792 132 CURVE SMOOTH",
"631 168 OFFCURVE",
"344 190 OFFCURVE",
"344 281 CURVE SMOOTH",
"344 325 OFFCURVE",
"409 370 OFFCURVE",
"564 386 CURVE SMOOTH",
"834 413 OFFCURVE",
"1011 562 OFFCURVE",
"1011 732 CURVE SMOOTH",
"1011 821 OFFCURVE",
"962 909 OFFCURVE",
"877 970 CURVE",
"892 1008 OFFCURVE",
"920 1039 OFFCURVE",
"962 1039 CURVE SMOOTH",
"1013 1039 OFFCURVE",
"1024 987 OFFCURVE",
"1090 987 CURVE SMOOTH",
"1162 987 OFFCURVE",
"1201 1044 OFFCURVE",
"1201 1102 CURVE SMOOTH",
"1201 1175 OFFCURVE",
"1140 1219 OFFCURVE",
"1059 1219 CURVE SMOOTH",
"935 1219 OFFCURVE",
"854 1110 OFFCURVE",
"810 1011 CURVE",
"738 1047 OFFCURVE",
"651 1069 OFFCURVE",
"554 1069 CURVE SMOOTH",
"299 1069 OFFCURVE",
"107 925 OFFCURVE",
"107 729 CURVE SMOOTH",
"107 564 OFFCURVE",
"243 446 OFFCURVE",
"417 406 CURVE",
"190 328 OFFCURVE",
"113 276 OFFCURVE",
"113 167 CURVE SMOOTH",
"113 77 OFFCURVE",
"165 29 OFFCURVE",
"240 -5 CURVE",
"63 -78 OFFCURVE",
"-6 -157 OFFCURVE",
"-6 -256 CURVE SMOOTH",
"-6 -349 OFFCURVE",
"54 -406 OFFCURVE",
"124 -443 CURVE SMOOTH",
"234 -501 OFFCURVE",
"374 -512 OFFCURVE",
"473 -512 CURVE SMOOTH"
);
},
{
closed = 1;
nodes = (
"448 -411 OFFCURVE",
"375 -396 OFFCURVE",
"322 -367 CURVE SMOOTH",
"261 -336 OFFCURVE",
"229 -292 OFFCURVE",
"229 -227 CURVE SMOOTH",
"229 -157 OFFCURVE",
"267 -85 OFFCURVE",
"333 -39 CURVE",
"421 -62 OFFCURVE",
"501 -78 OFFCURVE",
"599 -101 CURVE SMOOTH",
"808 -150 OFFCURVE",
"865 -181 OFFCURVE",
"865 -250 CURVE SMOOTH",
"865 -307 OFFCURVE",
"820 -344 OFFCURVE",
"760 -370 CURVE SMOOTH",
"689 -401 OFFCURVE",
"599 -411 OFFCURVE",
"529 -411 CURVE SMOOTH"
);
},
{
closed = 1;
nodes = (
"446 473 OFFCURVE",
"421 617 OFFCURVE",
"421 713 CURVE SMOOTH",
"421 815 OFFCURVE",
"450 983 OFFCURVE",
"565 983 CURVE SMOOTH",
"677 983 OFFCURVE",
"698 831 OFFCURVE",
"698 737 CURVE SMOOTH",
"698 622 OFFCURVE",
"667 473 OFFCURVE",
"556 473 CURVE SMOOTH"
);
}
);
width = 1156;
},
{
anchors = (
{
name = top;
position = "{520, 1289}";
}
);
associatedMasterId = "7C8D72FA-6E62-4564-8BB2-D9F9BC4EB15A";
layerId = "4FB85BBB-52BD-4086-BC03-117EC6318AF1";
name = "Jan 7 19, 14:53";
paths = (
{
closed = 1;
nodes = (
"584 -515 OFFCURVE",
"760 -477 OFFCURVE",
"873 -388 CURVE SMOOTH",
"941 -334 OFFCURVE",
"985 -263 OFFCURVE",
"985 -161 CURVE SMOOTH",
"985 -70 OFFCURVE",
"950 46 OFFCURVE",
"727 97 CURVE SMOOTH",
"587 129 OFFCURVE",
"298 152 OFFCURVE",
"298 259 CURVE SMOOTH",
"298 324 OFFCURVE",
"404 372 OFFCURVE",
"512 381 CURVE SMOOTH",
"751 401 OFFCURVE",
"913 557 OFFCURVE",
"913 730 CURVE SMOOTH",
"913 823 OFFCURVE",
"868 913 OFFCURVE",
"790 976 CURVE",
"804 1028 OFFCURVE",
"834 1073 OFFCURVE",
"866 1073 CURVE SMOOTH",
"915 1073 OFFCURVE",
"912 1021 OFFCURVE",
"971 1021 CURVE SMOOTH",
"1024 1021 OFFCURVE",
"1065 1064 OFFCURVE",
"1065 1118 CURVE SMOOTH",
"1065 1180 OFFCURVE",
"1010 1219 OFFCURVE",
"948 1219 CURVE SMOOTH",
"842 1219 OFFCURVE",
"777 1102 OFFCURVE",
"744 1006 CURVE",
"681 1044 OFFCURVE",
"600 1069 OFFCURVE",
"510 1069 CURVE SMOOTH",
"287 1069 OFFCURVE",
"117 926 OFFCURVE",
"117 730 CURVE SMOOTH",
"117 565 OFFCURVE",
"235 447 OFFCURVE",
"390 406 CURVE",
"172 335 OFFCURVE",
"123 240 OFFCURVE",
"123 169 CURVE SMOOTH",
"123 101 OFFCURVE",
"169 45 OFFCURVE",
"257 6 CURVE",
"77 -71 OFFCURVE",
"12 -152 OFFCURVE",
"12 -256 CURVE SMOOTH",
"12 -343 OFFCURVE",
"59 -404 OFFCURVE",
"128 -444 CURVE SMOOTH",
"219 -497 OFFCURVE",
"345 -515 OFFCURVE",
"440 -515 CURVE SMOOTH"
);
},
{
closed = 1;
nodes = (
"398 -446 OFFCURVE",
"326 -428 OFFCURVE",
"273 -394 CURVE SMOOTH",
"215 -357 OFFCURVE",
"182 -302 OFFCURVE",
"182 -231 CURVE SMOOTH",
"182 -143 OFFCURVE",
"236 -59 OFFCURVE",
"326 -16 CURVE",
"383 -32 OFFCURVE",
"455 -48 OFFCURVE",
"527 -63 CURVE SMOOTH",
"752 -108 OFFCURVE",
"822 -147 OFFCURVE",
"822 -238 CURVE SMOOTH",
"822 -314 OFFCURVE",
"777 -366 OFFCURVE",
"708 -400 CURVE SMOOTH",
"645 -431 OFFCURVE",
"558 -446 OFFCURVE",
"481 -446 CURVE SMOOTH"
);
},
{
closed = 1;
nodes = (
"366 447 OFFCURVE",
"336 609 OFFCURVE",
"336 714 CURVE SMOOTH",
"336 824 OFFCURVE",
"368 1009 OFFCURVE",
"522 1009 CURVE SMOOTH",
"668 1009 OFFCURVE",
"698 839 OFFCURVE",
"698 735 CURVE SMOOTH",
"698 608 OFFCURVE",
"658 447 OFFCURVE",
"511 447 CURVE SMOOTH"
);
}
);
width = 1036;
},
{
anchors = (
{
name = top;
position = "{520, 1289}";
}
);
associatedMasterId = "7C8D72FA-6E62-4564-8BB2-D9F9BC4EB15A";
layerId = "4A4054F2-95DB-4C05-9F11-6682A03215D6";
name = "Jan 23 19, 15:09";
paths = (
{
closed = 1;
nodes = (
"751 401 OFFCURVE",
"913 557 OFFCURVE",
"913 730 CURVE SMOOTH",
"913 823 OFFCURVE",
"868 913 OFFCURVE",
"790 976 CURVE",
"804 1028 OFFCURVE",
"834 1073 OFFCURVE",
"866 1073 CURVE SMOOTH",
"915 1073 OFFCURVE",
"912 1021 OFFCURVE",
"971 1021 CURVE SMOOTH",
"1024 1021 OFFCURVE",
"1065 1064 OFFCURVE",
"1065 1118 CURVE SMOOTH",
"1065 1180 OFFCURVE",
"1010 1219 OFFCURVE",
"948 1219 CURVE SMOOTH",
"842 1219 OFFCURVE",
"777 1102 OFFCURVE",
"744 1006 CURVE",
"681 1044 OFFCURVE",
"600 1069 OFFCURVE",
"510 1069 CURVE SMOOTH",
"287 1069 OFFCURVE",
"117 926 OFFCURVE",
"117 730 CURVE SMOOTH",
"117 565 OFFCURVE",
"235 447 OFFCURVE",
"390 406 CURVE",
"172 335 OFFCURVE",
"123 240 OFFCURVE",
"123 169 CURVE SMOOTH",
"123 71 OFFCURVE",
"210 6 OFFCURVE",
"385 -32 CURVE SMOOTH",
"550 -68 LINE SMOOTH",
"762 -114 OFFCURVE",
"822 -152 OFFCURVE",
"822 -238 CURVE SMOOTH",
"822 -314 OFFCURVE",
"777 -366 OFFCURVE",
"708 -400 CURVE SMOOTH",
"645 -431 OFFCURVE",
"558 -446 OFFCURVE",
"481 -446 CURVE SMOOTH",
"398 -446 OFFCURVE",
"326 -428 OFFCURVE",
"273 -394 CURVE SMOOTH",
"215 -357 OFFCURVE",
"182 -302 OFFCURVE",
"182 -231 CURVE SMOOTH",
"182 -137 OFFCURVE",
"243 -47 OFFCURVE",
"344 -8 CURVE",
"283 17 LINE",
"84 -63 OFFCURVE",
"12 -147 OFFCURVE",
"12 -256 CURVE SMOOTH",
"12 -343 OFFCURVE",
"59 -404 OFFCURVE",
"128 -444 CURVE SMOOTH",
"219 -497 OFFCURVE",
"345 -515 OFFCURVE",
"440 -515 CURVE SMOOTH",
"584 -515 OFFCURVE",
"760 -477 OFFCURVE",
"873 -388 CURVE SMOOTH",
"941 -334 OFFCURVE",
"985 -263 OFFCURVE",
"985 -161 CURVE SMOOTH",
"985 -18 OFFCURVE",
"887 70 OFFCURVE",
"692 105 CURVE SMOOTH",
"549 130 LINE SMOOTH",
"381 159 OFFCURVE",
"298 203 OFFCURVE",
"298 259 CURVE SMOOTH",
"298 324 OFFCURVE",
"404 372 OFFCURVE",
"512 381 CURVE SMOOTH"
);
},
{
closed = 1;
nodes = (
"366 447 OFFCURVE",
"336 609 OFFCURVE",
"336 714 CURVE SMOOTH",
"336 824 OFFCURVE",
"368 1009 OFFCURVE",
"522 1009 CURVE SMOOTH",
"668 1009 OFFCURVE",
"698 839 OFFCURVE",
"698 735 CURVE SMOOTH",
"698 608 OFFCURVE",
"658 447 OFFCURVE",
"511 447 CURVE SMOOTH"
);
}
);
width = 1036;
},
{
anchors = (
{
name = top;
position = "{572, 1289}";
}
);
associatedMasterId = "FA6D65B5-4623-4FAC-A199-3F662257AC29";
layerId = "41DEBBC2-FC61-463C-AA39-FF4B783FD7A6";
name = "Jan 23 19, 15:11";
paths = (
{
closed = 1;
nodes = (
"834 413 OFFCURVE",
"1011 562 OFFCURVE",
"1011 732 CURVE SMOOTH",
"1011 821 OFFCURVE",
"962 909 OFFCURVE",
"877 970 CURVE",
"892 1008 OFFCURVE",
"920 1039 OFFCURVE",
"962 1039 CURVE SMOOTH",
"1013 1039 OFFCURVE",
"1024 987 OFFCURVE",
"1090 987 CURVE SMOOTH",
"1162 987 OFFCURVE",
"1201 1044 OFFCURVE",
"1201 1102 CURVE SMOOTH",
"1201 1175 OFFCURVE",
"1140 1219 OFFCURVE",
"1059 1219 CURVE SMOOTH",
"935 1219 OFFCURVE",
"854 1110 OFFCURVE",
"810 1011 CURVE",
"738 1047 OFFCURVE",
"651 1069 OFFCURVE",
"554 1069 CURVE SMOOTH",
"299 1069 OFFCURVE",
"107 925 OFFCURVE",
"107 729 CURVE SMOOTH",
"107 564 OFFCURVE",
"243 446 OFFCURVE",
"417 406 CURVE",
"190 328 OFFCURVE",
"113 276 OFFCURVE",
"113 167 CURVE SMOOTH",
"113 47 OFFCURVE",
"196 -10 OFFCURVE",
"435 -64 CURVE SMOOTH",
"599 -101 LINE SMOOTH",
"808 -149 OFFCURVE",
"865 -181 OFFCURVE",
"865 -250 CURVE SMOOTH",
"865 -307 OFFCURVE",
"820 -344 OFFCURVE",
"760 -370 CURVE SMOOTH",
"689 -401 OFFCURVE",
"599 -411 OFFCURVE",
"529 -411 CURVE SMOOTH",
"448 -411 OFFCURVE",
"375 -396 OFFCURVE",
"322 -367 CURVE SMOOTH",
"261 -336 OFFCURVE",
"229 -292 OFFCURVE",
"229 -227 CURVE SMOOTH",
"229 -151 OFFCURVE",
"274 -74 OFFCURVE",
"350 -29 CURVE",
"266 6 LINE",
"70 -70 OFFCURVE",
"-6 -152 OFFCURVE",
"-6 -256 CURVE SMOOTH",
"-6 -349 OFFCURVE",
"54 -406 OFFCURVE",
"124 -443 CURVE SMOOTH",
"234 -501 OFFCURVE",
"374 -512 OFFCURVE",
"473 -512 CURVE SMOOTH",
"638 -512 OFFCURVE",
"839 -479 OFFCURVE",
"966 -390 CURVE SMOOTH",
"1047 -333 OFFCURVE",
"1090 -260 OFFCURVE",
"1090 -153 CURVE SMOOTH",
"1090 8 OFFCURVE",
"982 102 OFFCURVE",
"755 142 CURVE SMOOTH",
"611 166 LINE SMOOTH",
"425 198 OFFCURVE",
"344 233 OFFCURVE",
"344 281 CURVE SMOOTH",
"344 325 OFFCURVE",
"409 370 OFFCURVE",
"564 386 CURVE SMOOTH"
);
},
{
closed = 1;
nodes = (
"446 473 OFFCURVE",
"421 617 OFFCURVE",
"421 713 CURVE SMOOTH",
"421 815 OFFCURVE",
"450 983 OFFCURVE",
"565 983 CURVE SMOOTH",
"677 983 OFFCURVE",
"698 831 OFFCURVE",
"698 737 CURVE SMOOTH",
"698 622 OFFCURVE",
"667 473 OFFCURVE",
"556 473 CURVE SMOOTH"
);
}
);
width = 1156;
}
);
leftKerningGroup = g;
rightKerningGroup = g;
unicode = 0067;
},
{
glyphname = gcommaaccent;
layers = (
{
components = (
{
name = g;
}
);
layerId = "FA6D65B5-4623-4FAC-A199-3F662257AC29";
paths = (
{
closed = 1;
nodes = (
"661 1289 OFFCURVE",
"716 1333 OFFCURVE",
"716 1393 CURVE SMOOTH",
"716 1479 OFFCURVE",
"623 1480 OFFCURVE",
"623 1538 CURVE SMOOTH",
"623 1567 OFFCURVE",
"651 1614 OFFCURVE",
"691 1654 CURVE",
"646 1703 LINE",
"520 1647 OFFCURVE",
"450 1555 OFFCURVE",
"450 1443 CURVE SMOOTH",
"450 1348 OFFCURVE",
"501 1289 OFFCURVE",
"584 1289 CURVE SMOOTH"
);
}
);
width = 1156;
},
{
associatedMasterId = "FA6D65B5-4623-4FAC-A199-3F662257AC29";
components = (
{
name = g;
}
);
layerId = "CBD44848-52BD-4DC5-BFA6-577546B7224D";
paths = (
{
closed = 1;
nodes = (
"592 1289 OFFCURVE",
"639 1331 OFFCURVE",
"639 1390 CURVE SMOOTH",
"639 1482 OFFCURVE",
"542 1466 OFFCURVE",
"542 1538 CURVE SMOOTH",
"542 1563 OFFCURVE",
"578 1607 OFFCURVE",
"628 1641 CURVE",
"596 1688 LINE",
"481 1620 OFFCURVE",
"421 1531 OFFCURVE",
"421 1419 CURVE SMOOTH",
"421 1348 OFFCURVE",
"465 1289 OFFCURVE",
"529 1289 CURVE SMOOTH"
);
}
);
width = 1018;
},
{
components = (
{
alignment = -1;
name = g;
}
);
layerId = "7C8D72FA-6E62-4564-8BB2-D9F9BC4EB15A";
paths = (
{
closed = 1;
nodes = (
"601 1289 OFFCURVE",
"649 1332 OFFCURVE",
"649 1390 CURVE SMOOTH",
"649 1482 OFFCURVE",
"553 1468 OFFCURVE",
"553 1538 CURVE SMOOTH",
"553 1564 OFFCURVE",
"587 1607 OFFCURVE",
"636 1642 CURVE",
"602 1690 LINE",
"487 1624 OFFCURVE",
"425 1535 OFFCURVE",
"425 1422 CURVE SMOOTH",
"425 1348 OFFCURVE",
"470 1289 OFFCURVE",
"535 1289 CURVE SMOOTH"
);
}
);
width = 1036;
}
);
leftKerningGroup = g;
rightKerningGroup = g;
unicode = 0123;
},
{
glyphname = h;
layers = (
{
anchors = (
{
name = bottom;
position = "{675, 0}";
},
{
name = top;
position = "{894, 1289}";
}
);
layerId = "FA6D65B5-4623-4FAC-A199-3F662257AC29";
paths = (
{
closed = 1;
nodes = (
"631 0 LINE",
"631 70 LINE",
"493 109 LINE",
"493 1643 LINE",
"450 1643 LINE",
"36 1546 LINE",
"36 1500 LINE",
"185 1445 LINE",
"185 109 LINE",
"37 70 LINE",
"37 0 LINE"
);
},
{
closed = 1;
nodes = (
"1335 0 LINE",
"1335 70 LINE",
"1186 109 LINE",
"1186 721 LINE SMOOTH",
"1186 951 OFFCURVE",
"1077 1069 OFFCURVE",
"868 1069 CURVE SMOOTH",
"720 1069 OFFCURVE",
"571 1005 OFFCURVE",
"469 925 CURVE",
"469 800 LINE",
"531 856 OFFCURVE",
"602 890 OFFCURVE",
"683 890 CURVE SMOOTH",
"813 890 OFFCURVE",
"879 813 OFFCURVE",
"879 651 CURVE SMOOTH",
"879 109 LINE",
"740 70 LINE",
"740 0 LINE"
);
}
);
width = 1371;
},
{
anchors = (
{
name = bottom;
position = "{620, 0}";
},
{
name = top;
position = "{770, 1289}";
}
);
associatedMasterId = "FA6D65B5-4623-4FAC-A199-3F662257AC29";
layerId = "CBD44848-52BD-4DC5-BFA6-577546B7224D";
paths = (
{
closed = 1;
nodes = (
"532 0 LINE",
"532 39 LINE",
"383 70 LINE",
"383 1643 LINE",
"364 1643 LINE",
"50 1548 LINE",
"50 1520 LINE",
"196 1466 LINE",
"196 70 LINE",
"45 39 LINE",
"45 0 LINE"
);
},
{
closed = 1;
nodes = (
"1183 0 LINE",
"1183 39 LINE",
"1034 68 LINE",
"1034 669 LINE SMOOTH",
"1034 859 OFFCURVE",
"1032 909 OFFCURVE",
"1010 950 CURVE SMOOTH",
"972 1024 OFFCURVE",
"886 1069 OFFCURVE",
"780 1069 CURVE SMOOTH",
"641 1069 OFFCURVE",
"491 1003 OFFCURVE",
"366 888 CURVE",
"366 812 LINE",
"446 906 OFFCURVE",
"552 960 OFFCURVE",
"669 960 CURVE SMOOTH",
"747 960 OFFCURVE",
"797 930 OFFCURVE",
"823 869 CURVE SMOOTH",
"841 826 OFFCURVE",
"846 762 OFFCURVE",
"846 648 CURVE SMOOTH",
"846 68 LINE",
"698 39 LINE",
"698 0 LINE"
);
}
);
width = 1224;
},
{
anchors = (
{
name = bottom;
position = "{626, 0}";
},
{
name = top;
position = "{786, 1289}";
}
);
layerId = "7C8D72FA-6E62-4564-8BB2-D9F9BC4EB15A";
paths = (
{
closed = 1;
nodes = (
"545 0 LINE",
"545 44 LINE",
"398 75 LINE",
"398 1643 LINE",
"375 1643 LINE",
"47 1548 LINE",
"47 1518 LINE",
"195 1464 LINE",
"195 75 LINE",
"44 44 LINE",
"44 0 LINE"
);
},
{
closed = 1;
nodes = (
"1210 0 LINE",
"1210 44 LINE",
"1062 73 LINE",
"1062 800 LINE SMOOTH",
"1062 978 OFFCURVE",
"966 1069 OFFCURVE",
"777 1069 CURVE SMOOTH",
"645 1069 OFFCURVE",
"502 1009 OFFCURVE",
"380 896 CURVE",
"380 815 LINE",
"461 900 OFFCURVE",
"554 951 OFFCURVE",
"655 951 CURVE SMOOTH",
"797 951 OFFCURVE",
"858 873 OFFCURVE",
"858 715 CURVE SMOOTH",
"858 73 LINE",
"712 44 LINE",
"712 0 LINE"
);
}
);
width = 1252;
},
{
anchors = (
{
name = bottom;
position = "{626, 0}";
},
{
name = top;
position = "{786, 1289}";
}
);
associatedMasterId = "7C8D72FA-6E62-4564-8BB2-D9F9BC4EB15A";
layerId = "3DAC64EF-D175-4395-A734-FD2B67F98822";
name = "Jan 23 19, 15:06";
paths = (
{
closed = 1;
nodes = (
"545 0 LINE",
"545 44 LINE",
"398 75 LINE",
"398 1643 LINE",
"375 1643 LINE",
"47 1548 LINE",
"47 1518 LINE",
"195 1464 LINE",
"195 75 LINE",
"44 44 LINE",
"44 0 LINE"
);
},
{
closed = 1;
nodes = (
"1200 0 LINE",
"1200 44 LINE",
"1051 73 LINE",
"1051 663 LINE SMOOTH",
"1051 853 OFFCURVE",
"1048 903 OFFCURVE",
"1026 945 CURVE SMOOTH",
"987 1023 OFFCURVE",
"898 1069 OFFCURVE",
"789 1069 CURVE SMOOTH",
"651 1069 OFFCURVE",
"500 1004 OFFCURVE",
"380 894 CURVE",
"380 811 LINE",
"456 902 OFFCURVE",
"556 952 OFFCURVE",
"668 952 CURVE SMOOTH",
"748 952 OFFCURVE",
"798 920 OFFCURVE",
"824 859 CURVE SMOOTH",
"843 815 OFFCURVE",
"849 753 OFFCURVE",
"849 636 CURVE SMOOTH",
"849 73 LINE",
"701 44 LINE",
"701 0 LINE"
);
}
);
width = 1241;
},
{
anchors = (
{
name = bottom;
position = "{675, 0}";
},
{
name = top;
position = "{894, 1289}";
}
);
associatedMasterId = "FA6D65B5-4623-4FAC-A199-3F662257AC29";
layerId = "156B9CF0-7DD2-4AEE-9FC9-CBEEC7B632A7";
name = "Jan 23 19, 15:06";
paths = (
{
closed = 1;
nodes = (
"631 0 LINE",
"631 70 LINE",
"493 109 LINE",
"493 1643 LINE",
"450 1643 LINE",
"36 1546 LINE",
"36 1500 LINE",
"185 1445 LINE",
"185 109 LINE",
"37 70 LINE",
"37 0 LINE"
);
},
{
closed = 1;
nodes = (
"1313 0 LINE",
"1313 70 LINE",
"1164 109 LINE",
"1164 630 LINE SMOOTH",
"1164 812 OFFCURVE",
"1158 861 OFFCURVE",
"1133 911 CURVE SMOOTH",
"1082 1016 OFFCURVE",
"985 1069 OFFCURVE",
"853 1069 CURVE SMOOTH",
"716 1069 OFFCURVE",
"560 1011 OFFCURVE",
"469 928 CURVE",
"469 804 LINE",
"523 869 OFFCURVE",
"582 898 OFFCURVE",
"661 898 CURVE SMOOTH",
"752 898 OFFCURVE",
"805 859 OFFCURVE",
"837 790 CURVE SMOOTH",
"854 750 OFFCURVE",
"857 693 OFFCURVE",
"857 552 CURVE SMOOTH",
"857 109 LINE",
"719 70 LINE",
"719 0 LINE"
);
}
);
visible = 1;
width = 1348;
}
);
leftKerningGroup = h;
rightKerningGroup = n;
unicode = 0068;
},
{
glyphname = hbar;
layers = (
{
components = (
{
name = h;
}
);
layerId = "FA6D65B5-4623-4FAC-A199-3F662257AC29";
paths = (
{
closed = 1;
nodes = (
"755 1185 LINE",
"755 1354 LINE",
"70 1354 LINE",
"70 1185 LINE"
);
}
);
width = 1348;
},
{
associatedMasterId = "FA6D65B5-4623-4FAC-A199-3F662257AC29";
components = (
{
name = h;
}
);
layerId = "CBD44848-52BD-4DC5-BFA6-577546B7224D";
paths = (
{
closed = 1;
nodes = (
"656 1206 LINE",
"656 1333 LINE",
"50 1333 LINE",
"50 1206 LINE"
);
}
);
width = 1224;
},
{
components = (
{
alignment = -1;
name = h;
}
);
layerId = "7C8D72FA-6E62-4564-8BB2-D9F9BC4EB15A";
paths = (
{
closed = 1;
nodes = (
"670 1203 LINE",
"670 1337 LINE",
"52 1337 LINE",
"52 1203 LINE"
);
}
);
width = 1241;
}
);
leftKerningGroup = h;
rightKerningGroup = n;
unicode = 0127;
},
{
glyphname = i;
layers = (
{
anchors = (
{
name = bottom;
position = "{374, 0}";
},
{
name = ogonek;
position = "{681, 0}";
}
);
layerId = "FA6D65B5-4623-4FAC-A199-3F662257AC29";
paths = (
{
closed = 1;
nodes = (
"681 0 LINE",
"681 70 LINE",
"523 109 LINE",
"523 1069 LINE",
"481 1069 LINE",
"47 974 LINE",
"47 927 LINE",
"216 873 LINE",
"216 109 LINE",
"47 70 LINE",
"47 0 LINE"
);
},
{
closed = 1;
nodes = (
"482 1217 OFFCURVE",
"542 1299 OFFCURVE",
"542 1379 CURVE SMOOTH",
"542 1466 OFFCURVE",
"474 1544 OFFCURVE",
"366 1544 CURVE SMOOTH",
"260 1544 OFFCURVE",
"196 1466 OFFCURVE",
"196 1379 CURVE SMOOTH",
"196 1299 OFFCURVE",
"256 1217 OFFCURVE",
"366 1217 CURVE SMOOTH"
);
}
);
width = 713;
},
{
anchors = (
{
name = bottom;
position = "{305, 0}";
}
);
associatedMasterId = "FA6D65B5-4623-4FAC-A199-3F662257AC29";
layerId = "CBD44848-52BD-4DC5-BFA6-577546B7224D";
paths = (
{
closed = 1;
nodes = (
"549 0 LINE",
"549 39 LINE",
"401 70 LINE",
"401 1069 LINE",
"382 1069 LINE",
"66 974 LINE",
"66 945 LINE",
"212 892 LINE",
"212 70 LINE",
"62 39 LINE",
"62 0 LINE"
);
},
{
closed = 1;
nodes = (
"383 1289 OFFCURVE",
"433 1346 OFFCURVE",
"433 1415 CURVE SMOOTH",
"433 1489 OFFCURVE",
"383 1544 OFFCURVE",
"305 1544 CURVE SMOOTH",
"227 1544 OFFCURVE",
"177 1489 OFFCURVE",
"177 1415 CURVE SMOOTH",
"177 1346 OFFCURVE",
"227 1289 OFFCURVE",
"305 1289 CURVE SMOOTH"
);
}
);
width = 594;
},
{
anchors = (
{
name = bottom;
position = "{314, 0}";
},
{
name = ogonek;
position = "{567, 0}";
}
);
layerId = "7C8D72FA-6E62-4564-8BB2-D9F9BC4EB15A";
paths = (
{
closed = 1;
nodes = (
"567 0 LINE",
"567 44 LINE",
"417 75 LINE",
"417 1069 LINE",
"395 1069 LINE",
"63 974 LINE",
"63 943 LINE",
"212 890 LINE",
"212 75 LINE",
"60 44 LINE",
"60 0 LINE"
);
},
{
closed = 1;
nodes = (
"396 1279 OFFCURVE",
"448 1339 OFFCURVE",
"448 1409 CURVE SMOOTH",
"448 1485 OFFCURVE",
"396 1544 OFFCURVE",
"313 1544 CURVE SMOOTH",
"231 1544 OFFCURVE",
"180 1485 OFFCURVE",
"180 1409 CURVE SMOOTH",
"180 1339 OFFCURVE",
"231 1279 OFFCURVE",
"313 1279 CURVE SMOOTH"
);
}
);
width = 609;
}
);
leftKerningGroup = i;
rightKerningGroup = i;
unicode = 0069;
},
{
glyphname = dotlessi;
layers = (
{
anchors = (
{
name = top;
position = "{356, 1289}";
}
);
layerId = "FA6D65B5-4623-4FAC-A199-3F662257AC29";
paths = (
{
closed = 1;
nodes = (
"681 0 LINE",
"681 70 LINE",
"523 109 LINE",
"523 1069 LINE",
"481 1069 LINE",
"47 974 LINE",
"47 927 LINE",
"216 873 LINE",
"216 109 LINE",
"47 70 LINE",
"47 0 LINE"
);
}
);
width = 713;
},
{
anchors = (
{
name = top;
position = "{305, 1289}";
}
);
associatedMasterId = "FA6D65B5-4623-4FAC-A199-3F662257AC29";
layerId = "CBD44848-52BD-4DC5-BFA6-577546B7224D";
paths = (
{
closed = 1;
nodes = (
"549 0 LINE",
"549 39 LINE",
"401 70 LINE",
"401 1069 LINE",
"382 1069 LINE",
"66 974 LINE",
"66 945 LINE",
"212 892 LINE",
"212 70 LINE",
"62 39 LINE",
"62 0 LINE"
);
}
);
width = 594;
},
{
anchors = (
{
name = top;
position = "{312, 1289}";
}
);
layerId = "7C8D72FA-6E62-4564-8BB2-D9F9BC4EB15A";
paths = (
{
closed = 1;
nodes = (
"567 0 LINE",
"567 44 LINE",
"417 75 LINE",
"417 1069 LINE",
"395 1069 LINE",
"63 974 LINE",
"63 943 LINE",
"212 890 LINE",
"212 75 LINE",
"60 44 LINE",
"60 0 LINE"
);
}
);
width = 609;
}
);
leftKerningGroup = i;
rightKerningGroup = i;
unicode = 0131;
},
{
glyphname = j;
layers = (
{
layerId = "FA6D65B5-4623-4FAC-A199-3F662257AC29";
paths = (
{
closed = 1;
nodes = (
"196 -515 OFFCURVE",
"322 -446 OFFCURVE",
"413 -289 CURVE SMOOTH",
"477 -180 OFFCURVE",
"497 -78 OFFCURVE",
"497 136 CURVE SMOOTH",
"497 1069 LINE",
"456 1069 LINE",
"22 974 LINE",
"22 927 LINE",
"190 873 LINE",
"190 -94 LINE",
"190 -310 OFFCURVE",
"143 -411 OFFCURVE",
"47 -411 CURVE SMOOTH",
"-8 -411 OFFCURVE",
"-39 -380 OFFCURVE",
"-85 -284 CURVE SMOOTH",
"-120 -214 OFFCURVE",
"-154 -190 OFFCURVE",
"-216 -190 CURVE SMOOTH",
"-297 -190 OFFCURVE",
"-349 -237 OFFCURVE",
"-349 -312 CURVE SMOOTH",
"-349 -433 OFFCURVE",
"-208 -515 OFFCURVE",
"2 -515 CURVE SMOOTH"
);
},
{
closed = 1;
nodes = (
"457 1217 OFFCURVE",
"516 1299 OFFCURVE",
"516 1379 CURVE SMOOTH",
"516 1466 OFFCURVE",
"450 1544 OFFCURVE",
"341 1544 CURVE SMOOTH",
"234 1544 OFFCURVE",
"169 1466 OFFCURVE",
"169 1379 CURVE SMOOTH",
"169 1299 OFFCURVE",
"229 1217 OFFCURVE",
"341 1217 CURVE SMOOTH"
);
}
);
width = 653;
},
{
associatedMasterId = "FA6D65B5-4623-4FAC-A199-3F662257AC29";
layerId = "CBD44848-52BD-4DC5-BFA6-577546B7224D";
paths = (
{
closed = 1;
nodes = (
"93 -515 OFFCURVE",
"227 -425 OFFCURVE",
"318 -260 CURVE SMOOTH",
"375 -154 OFFCURVE",
"383 -81 OFFCURVE",
"383 307 CURVE SMOOTH",
"383 1069 LINE",
"366 1069 LINE",
"50 974 LINE",
"50 945 LINE",
"196 892 LINE",
"196 -94 LINE SMOOTH",
"196 -314 OFFCURVE",
"143 -421 OFFCURVE",
"31 -421 CURVE SMOOTH",
"-18 -421 OFFCURVE",
"-39 -401 OFFCURVE",
"-68 -325 CURVE SMOOTH",
"-89 -265 OFFCURVE",
"-120 -234 OFFCURVE",
"-176 -234 CURVE SMOOTH",
"-242 -234 OFFCURVE",
"-283 -279 OFFCURVE",
"-283 -352 CURVE SMOOTH",
"-283 -454 OFFCURVE",
"-200 -515 OFFCURVE",
"-66 -515 CURVE SMOOTH"
);
},
{
closed = 1;
nodes = (
"364 1289 OFFCURVE",
"417 1341 OFFCURVE",
"417 1416 CURVE SMOOTH",
"417 1490 OFFCURVE",
"364 1544 OFFCURVE",
"289 1544 CURVE SMOOTH",
"214 1544 OFFCURVE",
"162 1490 OFFCURVE",
"162 1416 CURVE SMOOTH",
"162 1341 OFFCURVE",
"214 1289 OFFCURVE",
"289 1289 CURVE SMOOTH"
);
}
);
width = 554;
},
{
layerId = "7C8D72FA-6E62-4564-8BB2-D9F9BC4EB15A";
paths = (
{
closed = 1;
nodes = (
"107 -515 OFFCURVE",
"240 -427 OFFCURVE",
"330 -264 CURVE SMOOTH",
"389 -158 OFFCURVE",
"398 -81 OFFCURVE",
"398 284 CURVE SMOOTH",
"398 1069 LINE",
"379 1069 LINE",
"46 974 LINE",
"46 943 LINE",
"195 890 LINE",
"195 -94 LINE SMOOTH",
"195 -314 OFFCURVE",
"143 -420 OFFCURVE",
"33 -420 CURVE SMOOTH",
"-16 -420 OFFCURVE",
"-39 -397 OFFCURVE",
"-70 -320 CURVE SMOOTH",
"-93 -258 OFFCURVE",
"-124 -228 OFFCURVE",
"-182 -228 CURVE SMOOTH",
"-249 -228 OFFCURVE",
"-292 -273 OFFCURVE",
"-292 -347 CURVE SMOOTH",
"-292 -450 OFFCURVE",
"-202 -515 OFFCURVE",
"-56 -515 CURVE SMOOTH"
);
},
{
closed = 1;
nodes = (
"377 1279 OFFCURVE",
"431 1336 OFFCURVE",
"431 1412 CURVE SMOOTH",
"431 1487 OFFCURVE",
"375 1544 OFFCURVE",
"296 1544 CURVE SMOOTH",
"216 1544 OFFCURVE",
"164 1487 OFFCURVE",
"164 1412 CURVE SMOOTH",
"164 1336 OFFCURVE",
"215 1279 OFFCURVE",
"296 1279 CURVE SMOOTH"
);
}
);
width = 568;
}
);
leftKerningGroup = j;
rightKerningGroup = j;
unicode = 006A;
},
{
glyphname = dotlessj;
layers = (
{
anchors = (
{
name = top;
position = "{336, 1289}";
}
);
layerId = "FA6D65B5-4623-4FAC-A199-3F662257AC29";
paths = (
{
closed = 1;
nodes = (
"196 -515 OFFCURVE",
"322 -446 OFFCURVE",
"413 -289 CURVE SMOOTH",
"477 -180 OFFCURVE",
"497 -78 OFFCURVE",
"497 136 CURVE SMOOTH",
"497 1069 LINE",
"456 1069 LINE",
"22 974 LINE",
"22 927 LINE",
"190 873 LINE",
"190 -94 LINE SMOOTH",
"190 -310 OFFCURVE",
"143 -411 OFFCURVE",
"47 -411 CURVE SMOOTH",
"-8 -411 OFFCURVE",
"-39 -380 OFFCURVE",
"-85 -284 CURVE SMOOTH",
"-120 -214 OFFCURVE",
"-154 -190 OFFCURVE",
"-216 -190 CURVE SMOOTH",
"-297 -190 OFFCURVE",
"-349 -237 OFFCURVE",
"-349 -312 CURVE SMOOTH",
"-349 -433 OFFCURVE",
"-208 -515 OFFCURVE",
"2 -515 CURVE SMOOTH"
);
}
);
width = 653;
},
{
anchors = (
{
name = top;
position = "{292, 1289}";
}
);
associatedMasterId = "FA6D65B5-4623-4FAC-A199-3F662257AC29";
layerId = "CBD44848-52BD-4DC5-BFA6-577546B7224D";
paths = (
{
closed = 1;
nodes = (
"93 -515 OFFCURVE",
"227 -425 OFFCURVE",
"318 -260 CURVE SMOOTH",
"375 -154 OFFCURVE",
"383 -81 OFFCURVE",
"383 307 CURVE SMOOTH",
"383 1069 LINE",
"366 1069 LINE",
"50 974 LINE",
"50 945 LINE",
"196 892 LINE",
"196 -94 LINE SMOOTH",
"196 -314 OFFCURVE",
"143 -421 OFFCURVE",
"31 -421 CURVE SMOOTH",
"-18 -421 OFFCURVE",
"-39 -401 OFFCURVE",
"-68 -325 CURVE SMOOTH",
"-89 -265 OFFCURVE",
"-120 -234 OFFCURVE",
"-176 -234 CURVE SMOOTH",
"-242 -234 OFFCURVE",
"-283 -279 OFFCURVE",
"-283 -352 CURVE SMOOTH",
"-283 -454 OFFCURVE",
"-200 -515 OFFCURVE",
"-66 -515 CURVE SMOOTH"
);
}
);
width = 554;
},
{
anchors = (
{
name = top;
position = "{298, 1289}";
}
);
layerId = "7C8D72FA-6E62-4564-8BB2-D9F9BC4EB15A";
paths = (
{
closed = 1;
nodes = (
"107 -515 OFFCURVE",
"240 -427 OFFCURVE",
"330 -264 CURVE SMOOTH",
"389 -158 OFFCURVE",
"398 -81 OFFCURVE",
"398 284 CURVE SMOOTH",
"398 1069 LINE",
"379 1069 LINE",
"46 974 LINE",
"46 943 LINE",
"195 890 LINE",
"195 -94 LINE SMOOTH",
"195 -314 OFFCURVE",
"143 -420 OFFCURVE",
"33 -420 CURVE SMOOTH",
"-16 -420 OFFCURVE",
"-39 -397 OFFCURVE",
"-70 -320 CURVE SMOOTH",
"-93 -258 OFFCURVE",
"-124 -228 OFFCURVE",
"-182 -228 CURVE SMOOTH",
"-249 -228 OFFCURVE",
"-292 -273 OFFCURVE",
"-292 -347 CURVE SMOOTH",
"-292 -450 OFFCURVE",
"-202 -515 OFFCURVE",
"-56 -515 CURVE SMOOTH"
);
}
);
width = 568;
}
);
leftKerningGroup = j;
rightKerningGroup = j;
unicode = 0237;
},
{
glyphname = k;
layers = (
{
anchors = (
{
name = bottom;
position = "{758, 0}";
}
);
layerId = "FA6D65B5-4623-4FAC-A199-3F662257AC29";
paths = (
{
closed = 1;
nodes = (
"677 0 LINE",
"677 70 LINE",
"504 109 LINE",
"504 1643 LINE",
"461 1643 LINE",
"29 1546 LINE",
"29 1500 LINE",
"198 1447 LINE",
"198 109 LINE",
"29 70 LINE",
"29 0 LINE"
);
},
{
closed = 1;
nodes = (
"1350 0 LINE",
"1350 70 LINE",
"1187 109 LINE",
"784 740 LINE",
"603 495 LINE",
"890 0 LINE"
);
},
{
closed = 1;
nodes = (
"982 867 LINE SMOOTH",
"1047 933 OFFCURVE",
"1076 953 OFFCURVE",
"1251 980 CURVE",
"1251 1049 LINE",
"706 1049 LINE",
"706 980 LINE",
"841 966 OFFCURVE",
"877 956 OFFCURVE",
"877 933 CURVE SMOOTH",
"877 917 OFFCURVE",
"859 895 OFFCURVE",
"828 861 CURVE SMOOTH",
"402 413 LINE",
"446 318 LINE"
);
}
);
width = 1316;
},
{
anchors = (
{
name = bottom;
position = "{646, 0}";
}
);
associatedMasterId = "FA6D65B5-4623-4FAC-A199-3F662257AC29";
layerId = "CBD44848-52BD-4DC5-BFA6-577546B7224D";
paths = (
{
closed = 1;
nodes = (
"526 0 LINE",
"526 39 LINE",
"378 70 LINE",
"378 1643 LINE",
"359 1643 LINE",
"52 1546 LINE",
"52 1520 LINE",
"196 1466 LINE",
"196 70 LINE",
"45 39 LINE",
"45 0 LINE"
);
},
{
closed = 1;
nodes = (
"1211 0 LINE",
"1211 39 LINE",
"1044 70 LINE",
"556 656 LINE",
"438 520 LINE",
"865 0 LINE"
);
},
{
closed = 1;
nodes = (
"797 896 LINE SMOOTH",
"857 966 OFFCURVE",
"887 980 OFFCURVE",
"1047 1010 CURVE",
"1047 1049 LINE",
"603 1049 LINE",
"603 1010 LINE",
"721 995 OFFCURVE",
"750 985 OFFCURVE",
"750 962 CURVE SMOOTH",
"750 945 OFFCURVE",
"737 922 OFFCURVE",
"708 890 CURVE SMOOTH",
"322 454 LINE",
"334 359 LINE"
);
}
);
width = 1131;
},
{
anchors = (
{
name = bottom;
position = "{661, 0}";
}
);
layerId = "7C8D72FA-6E62-4564-8BB2-D9F9BC4EB15A";
paths = (
{
closed = 1;
nodes = (
"546 0 LINE",
"546 44 LINE",
"395 75 LINE",
"395 1643 LINE",
"372 1643 LINE",
"48 1546 LINE",
"48 1518 LINE",
"196 1464 LINE",
"196 75 LINE",
"43 44 LINE",
"43 0 LINE"
);
},
{
closed = 1;
nodes = (
"1230 0 LINE",
"1230 44 LINE",
"1064 75 LINE",
"587 668 LINE",
"459 517 LINE",
"868 0 LINE"
);
},
{
closed = 1;
nodes = (
"822 892 LINE SMOOTH",
"882 962 OFFCURVE",
"911 976 OFFCURVE",
"1074 1005 CURVE",
"1074 1049 LINE",
"617 1049 LINE",
"617 1005 LINE",
"737 991 OFFCURVE",
"767 981 OFFCURVE",
"767 958 CURVE SMOOTH",
"767 942 OFFCURVE",
"753 919 OFFCURVE",
"724 887 CURVE SMOOTH",
"333 448 LINE",
"349 354 LINE"
);
}
);
width = 1156;
}
);
leftKerningGroup = h;
rightKerningGroup = k;
unicode = 006B;
},
{
glyphname = kgreenlandic;
layers = (
{
layerId = "FA6D65B5-4623-4FAC-A199-3F662257AC29";
paths = (
{
closed = 1;
nodes = (
"699 0 LINE",
"699 70 LINE",
"527 109 LINE",
"527 1069 LINE",
"484 1069 LINE",
"52 972 LINE",
"52 927 LINE",
"220 873 LINE",
"220 109 LINE",
"52 70 LINE",
"52 0 LINE"
);
},
{
closed = 1;
nodes = (
"1371 0 LINE",
"1371 70 LINE",
"1210 109 LINE",
"806 740 LINE",
"626 495 LINE",
"913 0 LINE"
);
},
{
closed = 1;
nodes = (
"1004 867 LINE SMOOTH",
"1070 933 OFFCURVE",
"1097 953 OFFCURVE",
"1272 980 CURVE",
"1272 1049 LINE",
"729 1049 LINE",
"729 980 LINE",
"864 966 OFFCURVE",
"899 956 OFFCURVE",
"899 933 CURVE SMOOTH",
"899 917 OFFCURVE",
"882 895 OFFCURVE",
"850 861 CURVE SMOOTH",
"424 413 LINE",
"468 318 LINE"
);
}
);
width = 1338;
},
{
associatedMasterId = "FA6D65B5-4623-4FAC-A199-3F662257AC29";
layerId = "CBD44848-52BD-4DC5-BFA6-577546B7224D";
paths = (
{
closed = 1;
nodes = (
"542 0 LINE",
"542 39 LINE",
"394 70 LINE",
"394 1069 LINE",
"374 1069 LINE",
"68 972 LINE",
"68 945 LINE",
"212 892 LINE",
"212 70 LINE",
"62 39 LINE",
"62 0 LINE"
);
},
{
closed = 1;
nodes = (
"1226 0 LINE",
"1226 39 LINE",
"1061 70 LINE",
"572 656 LINE",
"454 520 LINE",
"881 0 LINE"
);
},
{
closed = 1;
nodes = (
"813 896 LINE SMOOTH",
"873 966 OFFCURVE",
"903 980 OFFCURVE",
"1063 1010 CURVE",
"1063 1049 LINE",
"620 1049 LINE",
"620 1010 LINE",
"737 995 OFFCURVE",
"766 985 OFFCURVE",
"766 962 CURVE SMOOTH",
"766 945 OFFCURVE",
"752 922 OFFCURVE",
"724 890 CURVE SMOOTH",
"339 454 LINE",
"351 359 LINE"
);
}
);
width = 1147;
},
{
layerId = "7C8D72FA-6E62-4564-8BB2-D9F9BC4EB15A";
paths = (
{
closed = 1;
nodes = (
"563 0 LINE",
"563 44 LINE",
"411 75 LINE",
"411 1069 LINE",
"389 1069 LINE",
"66 972 LINE",
"66 943 LINE",
"213 890 LINE",
"213 75 LINE",
"61 44 LINE",
"61 0 LINE"
);
},
{
closed = 1;
nodes = (
"1246 0 LINE",
"1246 44 LINE",
"1080 75 LINE",
"603 668 LINE",
"477 517 LINE",
"884 0 LINE"
);
},
{
closed = 1;
nodes = (
"838 892 LINE SMOOTH",
"899 962 OFFCURVE",
"929 976 OFFCURVE",
"1090 1005 CURVE",
"1090 1049 LINE",
"634 1049 LINE",
"634 1005 LINE",
"753 991 OFFCURVE",
"784 981 OFFCURVE",
"784 958 CURVE SMOOTH",
"784 942 OFFCURVE",
"769 919 OFFCURVE",
"740 887 CURVE SMOOTH",
"350 448 LINE",
"366 354 LINE"
);
}
);
width = 1172;
}
);
leftMetricsKey = n;
rightMetricsKey = k;
unicode = 0138;
},
{
glyphname = l;
layers = (
{
anchors = (
{
name = bottom;
position = "{359, 0}";
},
{
name = topcap;
position = "{354, 1696}";
}
);
layerId = "FA6D65B5-4623-4FAC-A199-3F662257AC29";
paths = (
{
closed = 1;
nodes = (
"667 0 LINE",
"667 70 LINE",
"508 109 LINE",
"508 1643 LINE",
"466 1643 LINE",
"33 1548 LINE",
"33 1500 LINE",
"203 1447 LINE",
"203 109 LINE",
"33 70 LINE",
"33 0 LINE"
);
}
);
width = 705;
},
{
anchors = (
{
name = bottom;
position = "{286, 0}";
},
{
name = topcap;
position = "{286, 1696}";
}
);
associatedMasterId = "FA6D65B5-4623-4FAC-A199-3F662257AC29";
layerId = "CBD44848-52BD-4DC5-BFA6-577546B7224D";
paths = (
{
closed = 1;
nodes = (
"532 0 LINE",
"532 39 LINE",
"383 70 LINE",
"383 1643 LINE",
"365 1643 LINE",
"48 1549 LINE",
"48 1520 LINE",
"195 1467 LINE",
"195 70 LINE",
"45 39 LINE",
"45 0 LINE"
);
}
);
width = 577;
},
{
anchors = (
{
name = bottom;
position = "{284, 0}";
},
{
name = topcap;
position = "{284, 1696}";
}
);
associatedMasterId = "FA6D65B5-4623-4FAC-A199-3F662257AC29";
layerId = "49171B4C-9787-4E4D-BDE1-9BE5B70CD83A";
name = "Nov 19 18, 13:46";
paths = (
{
closed = 1;
nodes = (
"515 0 LINE",
"515 37 LINE",
"378 68 LINE",
"378 1643 LINE",
"360 1643 LINE",
"58 1546 LINE",
"58 1520 LINE",
"196 1468 LINE",
"196 68 LINE",
"58 37 LINE",
"58 0 LINE"
);
}
);
width = 572;
},
{
anchors = (
{
name = bottom;
position = "{296, 0}";
},
{
name = topcap;
position = "{295, 1696}";
}
);
layerId = "7C8D72FA-6E62-4564-8BB2-D9F9BC4EB15A";
paths = (
{
closed = 1;
nodes = (
"550 0 LINE",
"550 44 LINE",
"400 75 LINE",
"400 1643 LINE",
"379 1643 LINE",
"46 1549 LINE",
"46 1518 LINE",
"196 1465 LINE",
"196 75 LINE",
"44 44 LINE",
"44 0 LINE"
);
}
);
width = 594;
}
);
leftKerningGroup = l;
rightKerningGroup = l;
unicode = 006C;
},
